STARTFONT 2.3
FONT -FontForge-Bungee Shade-Book-R-Normal--20-200-72-72-P-172-ISO10646-1
SIZE 20 72 72  2
FONTBOUNDINGBOX 51 51 -12 -18
COMMENT "Generated by fontforge, http://fontforge.sourceforge.net"
COMMENT "Copyright 2008 The Bungee Project Authors (david@djr.com)"
STARTPROPERTIES 40
FOUNDRY "FontForge"
FAMILY_NAME "Bungee Shade"
WEIGHT_NAME "Book"
SLANT "R"
SETWIDTH_NAME "Normal"
ADD_STYLE_NAME ""
PIXEL_SIZE 20
POINT_SIZE 200
RESOLUTION_X 72
RESOLUTION_Y 72
SPACING "P"
AVERAGE_WIDTH 172
CHARSET_REGISTRY "ISO10646"
CHARSET_ENCODING "1"
FONTNAME_REGISTRY ""
CHARSET_COLLECTIONS "ISO8859-2 ISO8859-9 ISO8859-4 ISO10646-1"
BITS_PER_PIXEL 2
FONT_NAME "BungeeShade-Regular"
FACE_NAME "Bungee Shade"
COPYRIGHT "Copyright 2008 The Bungee Project Authors (david@djr.com)"
FONT_VERSION "1.000;PS 1.0;hotconv 1.0.72;makeotf.lib2.5.5900"
FONT_ASCENT 17
FONT_DESCENT 3
UNDERLINE_POSITION 0
UNDERLINE_THICKNESS 0
X_HEIGHT 14
CAP_HEIGHT 14
RAW_ASCENT 860
RAW_DESCENT 140
NORM_SPACE 7
RELATIVE_WEIGHT 40
RELATIVE_SETWIDTH 50
SUPERSCRIPT_X 0
SUPERSCRIPT_Y 7
SUPERSCRIPT_SIZE 12
SUBSCRIPT_X 0
SUBSCRIPT_Y 1
SUBSCRIPT_SIZE 12
AVG_LOWERCASE_WIDTH 164
AVG_UPPERCASE_WIDTH 167
ENDPROPERTIES
CHARS 1065
STARTCHAR space
ENCODING 32
SWIDTH 325 0
DWIDTH 7 0
BBX 1 1 0 0
BITMAP
00
ENDCHAR
STARTCHAR exclam
ENCODING 33
SWIDTH 524 0
DWIDTH 10 0
BBX 9 17 1 -2
BITMAP
055540
2C0040
BC1040
BC1040
BC1040
BC1040
BD1000
BD0000
BD0000
BEA900
BEA900
7C0040
7C1040
BC0040
BD5500
BFFD00
BFE000
ENDCHAR
STARTCHAR quotedbl
ENCODING 34
SWIDTH 746 0
DWIDTH 15 0
BBX 15 10 0 5
BITMAP
05555554
1D00D004
7D10D104
BD10E104
BD10E104
7D10E104
7D00E004
7E56F550
7FFFFFD0
7FE3FE00
ENDCHAR
STARTCHAR numbersign
ENCODING 35
SWIDTH 850 0
DWIDTH 17 0
BBX 17 17 0 -2
BITMAP
0015515500
00701A0100
0191191140
0201001040
0E05555040
3E01000040
3F40144140
3FC47C4500
3E84684500
1C04004000
7C15555000
BD04004100
BF40F41D00
BF41F01400
2F96F55000
2FFAFF4000
1FD2FD0000
ENDCHAR
STARTCHAR dollar
ENCODING 36
SWIDTH 750 0
DWIDTH 15 0
BBX 15 21 0 -4
BITMAP
00015400
00180100
00500050
01000010
05055510
2D100010
7D10FFD0
7D105A40
7D100010
7E015404
7F800104
7FFE9044
1FFFE044
09000004
2D155404
7D000010
7E540180
7FF80200
7FFD5400
00FFE000
00FF8000
ENDCHAR
STARTCHAR percent
ENCODING 37
SWIDTH 1131 0
DWIDTH 23 0
BBX 23 17 0 -2
BITMAP
005550554000
051506400000
1D444B010000
7C4D4B110000
BC4D4A110000
BC4949101540
BD4048040010
BE150C451504
BF95B8484444
7FFFF44C4D44
1BF8F01C4D44
0001F12C4D44
0002E12C4044
0002D03E1500
0003E5BF9540
0007FE7FFE00
0007F42FF800
ENDCHAR
STARTCHAR ampersand
ENCODING 38
SWIDTH 866 0
DWIDTH 17 0
BBX 18 17 0 -2
BITMAP
0000555000
0040001000
0281541000
0B44001000
1F443F8000
1F842D0000
1F84045540
1E05060010
0D100A0410
3C11FE1010
BC11AA1080
BC10001000
BD05554100
BF00000100
7FE5556400
3FFFFFD000
0BFFFE0000
ENDCHAR
STARTCHAR quotesingle
ENCODING 39
SWIDTH 456 0
DWIDTH 9 0
BBX 9 10 0 5
BITMAP
015540
1D0040
7D1040
7E1040
7E1040
7E1040
7E0040
7F5500
7FFD00
3FE000
ENDCHAR
STARTCHAR parenleft
ENCODING 40
SWIDTH 529 0
DWIDTH 11 0
BBX 11 21 0 -4
BITMAP
000550
004004
020504
1D1000
3D10D0
7D1140
7D1100
BD1100
BD1100
BD1100
BD1100
BD1100
BD1100
BD1050
BD1004
BE0504
7F0004
7FD000
3FFFD0
1BFF00
015400
ENDCHAR
STARTCHAR parenright
ENCODING 41
SWIDTH 529 0
DWIDTH 11 0
BBX 10 21 0 -4
BITMAP
015400
090040
7D1410
BD0110
BFD100
BFD100
1BD100
07D100
07D100
07D100
07D100
07D100
07D100
07D100
090100
2D1410
7D0010
BD0140
BFFD00
BFE400
150000
ENDCHAR
STARTCHAR asterisk
ENCODING 42
SWIDTH 818 0
DWIDTH 16 0
BBX 15 14 1 1
BITMAP
00055400
00280400
01BC4450
09184500
2C004004
78155504
BE504164
FFE112D0
BF840440
0600C010
0F81E040
3FE7F500
2FF7F800
07C2D000
ENDCHAR
STARTCHAR plus
ENCODING 43
SWIDTH 834 0
DWIDTH 17 0
BBX 15 15 1 -1
BITMAP
00015400
00180400
00780400
00F84400
01A44154
18004004
78155504
F8004004
FD544154
FFF847D0
FFF84740
00F80400
00FD5400
00FFE000
00FF4000
ENDCHAR
STARTCHAR comma
ENCODING 44
SWIDTH 484 0
DWIDTH 10 0
BBX 9 10 0 -4
BITMAP
015540
090000
2D1500
7D0100
7D0100
7FF540
7E1440
2E5500
3FF800
3FD000
ENDCHAR
STARTCHAR hyphen
ENCODING 45
SWIDTH 520 0
DWIDTH 10 0
BBX 10 7 0 3
BITMAP
015550
080000
7C1500
BC0000
BE5550
BFFF80
BFFE00
ENDCHAR
STARTCHAR period
ENCODING 46
SWIDTH 484 0
DWIDTH 10 0
BBX 9 9 0 -2
BITMAP
015540
090000
2D0000
7D0400
7D0400
7D0000
7E5540
7FFE00
7FF800
ENDCHAR
STARTCHAR slash
ENCODING 47
SWIDTH 487 0
DWIDTH 10 0
BBX 10 21 0 -4
BITMAP
001550
009010
03C110
0BC010
0B8410
0F8400
0F4440
0F4440
1F0440
1F0440
2F0040
2E1040
3E1000
3D1100
7D1100
7C1100
7C0100
BC0100
BFF800
FFD000
554000
ENDCHAR
STARTCHAR zero
ENCODING 48
SWIDTH 827 0
DWIDTH 17 0
BBX 16 17 0 -2
BITMAP
00155550
00415504
06040041
1E101011
3D10FC11
7D10FD11
7D10FD11
7D10BD11
7D10BD11
7D10BD11
7D10BC11
7E040041
7F015501
3F800004
3FFA56A0
1FFFFF40
01BFE800
ENDCHAR
STARTCHAR one
ENCODING 49
SWIDTH 701 0
DWIDTH 14 0
BBX 14 17 0 -2
BITMAP
01555400
0A000000
3E054000
3E004000
3FF44000
3FF44000
16F44000
02F44000
02F44000
02F44000
02A04150
09004010
2D155410
7D000010
BE555550
BFFFFF40
7FFFFD00
ENDCHAR
STARTCHAR two
ENCODING 50
SWIDTH 739 0
DWIDTH 15 0
BBX 15 17 0 -2
BITMAP
01555540
0B000010
2F055400
3F000104
3FFFD104
3FFE4104
15900110
01005010
09040140
2C10AD00
7C11A550
BC100004
BC155504
BC000004
BE555550
BFFFFF80
BFFFFE00
ENDCHAR
STARTCHAR three
ENCODING 51
SWIDTH 737 0
DWIDTH 15 0
BBX 15 17 0 -2
BITMAP
01555500
1D000040
7D155040
7D000400
BFFF4400
7FE90440
16C00440
07C15410
0FC00104
0FFFE004
0FAA9004
09000104
2D155404
7D000010
BE555640
BFFFFD00
7FFFE400
ENDCHAR
STARTCHAR four
ENCODING 52
SWIDTH 809 0
DWIDTH 16 0
BBX 16 17 0 -2
BITMAP
01550554
0A006801
3E10F841
7E10F841
7E10F841
7E10F841
7E10F841
7E105441
7E000041
7F015541
3F900041
2FFFF841
0FFFF841
0156F801
0001FD54
0001FFF0
0000FF80
ENDCHAR
STARTCHAR five
ENCODING 53
SWIDTH 747 0
DWIDTH 15 0
BBX 15 17 0 -2
BITMAP
01555550
0A000010
3E055410
7E100010
7E10FF80
7E105540
7E100010
7E055404
7E000004
7FFFE044
3FAAA044
19000004
2D055404
7D000010
7E555640
7FFFFE00
7FFFE400
ENDCHAR
STARTCHAR six
ENCODING 54
SWIDTH 793 0
DWIDTH 16 0
BBX 16 17 0 -2
BITMAP
00155550
01415510
06040010
1E100010
3D10FF80
7D105550
7D115504
7D100041
7D106401
7D10F801
7D10F841
7E040041
7E015500
3F800004
3FFA5690
1FFFFF40
02BFE400
ENDCHAR
STARTCHAR seven
ENCODING 55
SWIDTH 727 0
DWIDTH 15 0
BBX 14 17 0 -2
BITMAP
05555550
1C000010
7C155510
BD000110
BFFFD110
BFFFD110
15590110
00100410
01805010
07800140
0F842D00
1F842000
1F801000
1F801000
1F954000
1FFF4000
0FF80000
ENDCHAR
STARTCHAR eight
ENCODING 56
SWIDTH 811 0
DWIDTH 16 0
BBX 16 17 0 -2
BITMAP
00155550
00415504
07440044
1F44B844
1F44B844
2F845044
2F415504
1E100041
2D106411
7D11FC11
7D11FC11
BD100041
BE015501
7F400004
7FFA56A0
1FFFFF40
06BFE800
ENDCHAR
STARTCHAR nine
ENCODING 57
SWIDTH 793 0
DWIDTH 16 0
BBX 16 17 0 -2
BITMAP
00155540
01415404
06000044
2D10A040
7D11F441
7D10F441
BD100041
BD015541
BF000041
7F941441
3FFFF441
0BD55040
07815504
0F800004
0FD55590
0FFFFE00
0FFFE400
ENDCHAR
STARTCHAR colon
ENCODING 58
SWIDTH 484 0
DWIDTH 10 0
BBX 9 16 0 -2
BITMAP
015540
090000
2D0000
7D0400
7D0400
7D0000
7FAA00
7FA940
2D0000
1D0000
7D0400
7D0400
7D0000
7E5540
7FFE00
7FF800
ENDCHAR
STARTCHAR semicolon
ENCODING 59
SWIDTH 484 0
DWIDTH 10 0
BBX 9 17 0 -4
BITMAP
015540
090000
2D0400
7D0400
7D0000
7E0040
7FFF40
7FA940
1D0000
3D1500
7D0100
7D0100
7FF540
7E1440
2E5500
3FF800
3FD000
ENDCHAR
STARTCHAR less
ENCODING 60
SWIDTH 814 0
DWIDTH 16 0
BBX 14 16 1 -2
BITMAP
00000050
00001510
00150010
01401510
05054010
2C100680
7C42FE00
BC41A400
FC100150
FE015010
BF900510
7FFE5010
1FFFFE50
01AFFFC0
0001BE00
00000400
ENDCHAR
STARTCHAR equal
ENCODING 61
SWIDTH 834 0
DWIDTH 17 0
BBX 15 13 1 0
BITMAP
05555554
18000004
78155504
F8000004
FEAAAAA4
FFFFFFD0
AAAAAA54
18000004
78155544
F8000004
FD555554
FFFFFFD0
FFFFFF40
ENDCHAR
STARTCHAR greater
ENCODING 62
SWIDTH 814 0
DWIDTH 16 0
BBX 15 15 1 -2
BITMAP
04140000
1C005400
BC100000
BD015000
BFE40500
BFFFE004
6FFE5004
01500100
04001410
1C150190
7C01AF00
BD6FF800
BFFF9000
BF900000
64000000
ENDCHAR
STARTCHAR question
ENCODING 63
SWIDTH 756 0
DWIDTH 15 0
BBX 15 17 0 -2
BITMAP
05555540
1D000000
7D155504
BD000004
BFFFF044
BFE94044
16C00004
07C15404
0FC00050
0FD5AB40
0BE56D00
0B800000
0B800000
0F800000
0FD55000
0FFF8000
0BFE0000
ENDCHAR
STARTCHAR at
ENCODING 64
SWIDTH 967 0
DWIDTH 19 0
BBX 19 22 0 -4
BITMAP
0001555400
0014000140
0040000010
0606FFF904
1E1FFFFF44
2E55AAAB54
3E55155254
7E5C401254
7E684F1254
7E684F1254
7E684F1254
7E684F1254
7E68451250
7E68401010
7E5D155540
7E5F555540
7F4BFFFE00
3F956AA900
2FFA555100
0BFFFFF800
01FFFFE000
0005554000
ENDCHAR
STARTCHAR A
ENCODING 65
SWIDTH 830 0
DWIDTH 17 0
BBX 16 17 0 -2
BITMAP
00155540
00600010
01D05400
03C10104
07803444
0B047841
0E00B811
2E105411
3D100011
7D155551
7D100011
7D11FD11
7D01FD01
7D01BD01
7E557E55
7FF87FF8
7FD07FD0
ENDCHAR
STARTCHAR B
ENCODING 66
SWIDTH 825 0
DWIDTH 17 0
BBX 15 17 1 -2
BITMAP
05555540
28000000
B8155010
F8004110
F802E110
F802D110
F8000110
F8155504
F8000044
F802F440
F802F840
F8015040
F8155504
F8000004
FD555590
FFFFFF40
FFFFF900
ENDCHAR
STARTCHAR C
ENCODING 67
SWIDTH 728 0
DWIDTH 15 0
BBX 15 17 0 -2
BITMAP
00155550
00400004
06015504
1E000000
3D10BFD0
7D10FF40
7D109400
7D104000
7D104000
7D104000
7D105550
7E000004
7F015504
3F800004
2FF95550
1FFFFF80
02FFFE00
ENDCHAR
STARTCHAR D
ENCODING 68
SWIDTH 846 0
DWIDTH 17 0
BBX 16 17 1 -2
BITMAP
05555550
28000004
B8155504
F8000041
F802A441
F802F841
F802F841
F801F841
F801F841
F801F841
F801A041
F8000040
F8155504
F8000004
FD555590
FFFFFE00
FFFFE400
ENDCHAR
STARTCHAR E
ENCODING 69
SWIDTH 754 0
DWIDTH 15 0
BBX 14 17 1 -2
BITMAP
05555550
28000010
B8155410
F8000010
F803FF80
F801AA00
F8000100
F8155100
F8000100
F802F800
F802A540
F8000010
F8155410
F8000010
FD555540
FFFFFF40
FFFFFD00
ENDCHAR
STARTCHAR F
ENCODING 70
SWIDTH 718 0
DWIDTH 14 0
BBX 14 17 1 -2
BITMAP
05555540
28000010
B8155410
F8000000
F802FF40
F802FD00
F8000100
F8154100
F8000100
F8000100
F802F800
F802E000
F8014000
F8010000
FD550000
FFF40000
FF800000
ENDCHAR
STARTCHAR G
ENCODING 71
SWIDTH 808 0
DWIDTH 16 0
BBX 16 17 0 -2
BITMAP
00155550
00400004
06015504
1E000004
3D10BFD0
7D10FF40
7D109954
7D105801
7D10BC01
7D10FC11
7D106411
7E040011
7F015541
3F800001
2FF95554
1FFFFFF4
02FFFFD0
ENDCHAR
STARTCHAR H
ENCODING 72
SWIDTH 859 0
DWIDTH 17 0
BBX 16 17 1 -2
BITMAP
05550554
28012801
B801B841
F801F841
F801F841
F801A441
F8000041
F8155541
F8000041
F8015441
F802F841
F802F841
F801F841
F801F801
FD55F954
FFF5FFF0
FF80FF80
ENDCHAR
STARTCHAR I
ENCODING 73
SWIDTH 705 0
DWIDTH 14 0
BBX 14 17 0 -2
BITMAP
01555550
1D000010
7D055410
7E504150
7FF04780
7FF04500
16F04400
02F04400
02F04400
02F04400
02A04140
09004010
2D155410
7D000010
7E555540
7FFFFF40
7FFFF800
ENDCHAR
STARTCHAR J
ENCODING 74
SWIDTH 788 0
DWIDTH 16 0
BBX 15 17 0 -2
BITMAP
00001554
00007404
0001F444
0002F444
0002F444
0002F444
0156F444
0802F444
7C02F444
BC12F444
BC109044
BD100104
BE015404
7F400010
7FF95680
1FFFFE00
06FFE400
ENDCHAR
STARTCHAR K
ENCODING 75
SWIDTH 846 0
DWIDTH 17 0
BBX 16 17 1 -2
BITMAP
05550554
28016004
B802D100
F802C110
F8024410
F8010450
F8000004
F8155500
F8000041
F802A441
F802F441
F802F841
F801F841
F801F801
FD55F954
FFF5FFE0
FF80FF80
ENDCHAR
STARTCHAR L
ENCODING 76
SWIDTH 795 0
DWIDTH 16 0
BBX 15 17 1 -2
BITMAP
05550000
28010000
B8010000
F8010000
F8010000
F8010000
F8010550
F8013004
F801F004
F802F044
F801A044
F8000044
F8155504
F8000004
FD555550
FFFFFFD0
FFFFFE00
ENDCHAR
STARTCHAR M
ENCODING 77
SWIDTH 949 0
DWIDTH 19 0
BBX 17 17 1 -2
BITMAP
0555015540
2800060000
B8101C1000
F844284400
F841110400
F840400400
F840100400
F842014400
F843424400
F843EB4400
F843FF4400
F8429F4400
F8011F4000
F8011F4000
FD541F9540
FFE01FFE00
FF801FF800
ENDCHAR
STARTCHAR N
ENCODING 78
SWIDTH 853 0
DWIDTH 17 0
BBX 16 17 1 -2
BITMAP
05540554
28013801
B850B841
F8443841
F8410441
F8400041
F8400041
F8410041
F8420441
F843C141
F843E041
F843F441
F843F801
F802F801
FD55F954
FFF1FFE0
FF80FF80
ENDCHAR
STARTCHAR O
ENCODING 79
SWIDTH 837 0
DWIDTH 17 0
BBX 16 17 0 -2
BITMAP
00155550
00415504
06040041
1E101411
3D10FD10
7D10FD10
7D10BD10
7D10BD10
7D10BD10
7D10BD10
7D10BD10
7E040001
7F015501
7F800004
2FFA56A0
1FFFFF80
01BFE900
ENDCHAR
STARTCHAR P
ENCODING 80
SWIDTH 782 0
DWIDTH 16 0
BBX 15 17 1 -2
BITMAP
05555540
28000010
B8155400
F8000104
F802E044
F802F044
F802E044
F8000104
F8155400
F8000010
F8015640
F802FD00
F802E000
F8010000
FD540000
FFF40000
FF800000
ENDCHAR
STARTCHAR Q
ENCODING 81
SWIDTH 837 0
DWIDTH 17 0
BBX 16 20 0 -5
BITMAP
00155550
00400004
02015501
1E040041
3D10BD10
3D10FD10
7D10FD10
7D10BD10
7D10BD10
7D10BD10
7D10BD10
7E105411
7E040001
7F015501
3FD01014
2FFD00D0
0BFE0140
01BFFD00
007FF400
00154000
ENDCHAR
STARTCHAR R
ENCODING 82
SWIDTH 843 0
DWIDTH 17 0
BBX 16 17 1 -2
BITMAP
05555540
28000010
B8155410
F8000100
F802D104
F802E100
F8019110
F8000114
F8155500
F8000041
F802F801
F802F801
F802F801
F801F801
FD55FD55
FFF4FFF4
FF80FFC0
ENDCHAR
STARTCHAR S
ENCODING 83
SWIDTH 750 0
DWIDTH 15 0
BBX 15 17 0 -2
BITMAP
00155550
01000010
0A055510
2D100010
7D10FFD0
7D105A40
7D100010
7E015404
7F800104
7FFE9044
1FFFE044
09000004
2D155404
7D000010
7E555680
7FFFFE00
7FFFE400
ENDCHAR
STARTCHAR T
ENCODING 84
SWIDTH 756 0
DWIDTH 15 0
BBX 15 17 0 -2
BITMAP
05555554
2C000000
BC155540
FC004004
FFF842F4
FFF842D0
56F84100
01F84100
01F84100
01F84100
01F84100
01F84100
01F80100
01F80100
01F95400
01FFF400
00FF8000
ENDCHAR
STARTCHAR U
ENCODING 85
SWIDTH 846 0
DWIDTH 17 0
BBX 16 17 0 -2
BITMAP
01554155
0A005D00
3E107D10
7E10BD10
7E10BD10
7E10BD10
7E10BD10
7E10BD10
7E10BD10
7E10BD10
7E006810
7E040000
7F015501
3F800004
2FFA55A0
0BFFFF80
01BFE900
ENDCHAR
STARTCHAR V
ENCODING 86
SWIDTH 830 0
DWIDTH 17 0
BBX 16 17 0 -2
BITMAP
01550555
1D005D01
7D10BD11
7D10BD11
7D10BD11
7D10BD11
7D10BD11
7D10BC11
7E047801
7F443440
3F800044
2FC10104
1FD05400
0FE00010
07F95540
03FFFE00
02FFF800
ENDCHAR
STARTCHAR W
ENCODING 87
SWIDTH 931 0
DWIDTH 19 0
BBX 18 17 0 -2
BITMAP
0155001550
0E0040D010
3E0043D010
7E1047D110
7E1047D110
7E1056D110
7E10809110
7E10441110
7E10110110
7E10004110
7E00484110
7F040D1010
3F411E0400
3F802F0040
2FD57F9500
0FFF7FFD00
0BF82FE000
ENDCHAR
STARTCHAR X
ENCODING 88
SWIDTH 837 0
DWIDTH 17 0
BBX 16 17 0 -2
BITMAP
01550155
0A005D00
3E107D10
7E10BC11
7F043401
7F400040
3FD10104
1FE05510
0BC10104
03401040
0A047811
1E10FD11
3E10FD10
7E00BD00
7E557E55
7FF87FF8
3FE07FE0
ENDCHAR
STARTCHAR Y
ENCODING 89
SWIDTH 805 0
DWIDTH 16 0
BBX 16 17 0 -2
BITMAP
05550555
1D011C01
7D117C11
BD11BC11
BD11BC11
BD10B811
BD047041
BF040004
7F810000
2FE05010
0FF41040
07FC1100
02FC0100
00FC0100
00BE5500
00BFF800
00BFD000
ENDCHAR
STARTCHAR Z
ENCODING 90
SWIDTH 760 0
DWIDTH 15 0
BBX 15 17 0 -2
BITMAP
01555554
0A000004
3E055504
7E000004
7FFF4104
7FFD0410
15681040
00604100
01800000
02000000
09041554
2D100004
7D055504
BD000004
BE555554
BFFFFFD0
7FFFFF40
ENDCHAR
STARTCHAR bracketleft
ENCODING 91
SWIDTH 529 0
DWIDTH 11 0
BBX 11 21 0 -4
BITMAP
015550
090004
2D1504
7D1000
BD11D0
BD1140
BD1100
BD1100
BD1100
BD1100
BD1100
BD1100
BD1100
BD1050
BD1004
BD1504
BD0004
BD0000
BFFFD0
7FFF00
155400
ENDCHAR
STARTCHAR backslash
ENCODING 92
SWIDTH 487 0
DWIDTH 10 0
BBX 10 21 0 -4
BITMAP
015400
180100
7C1100
FC1100
BD1100
BD1100
BE1000
7E0040
7F0440
3F0440
3F4440
2F4440
2F4400
1F8410
1F8010
0FC110
0FC010
0FD010
0BFFC0
0BFE00
015400
ENDCHAR
STARTCHAR bracketright
ENCODING 93
SWIDTH 529 0
DWIDTH 11 0
BBX 10 21 0 -4
BITMAP
015550
090000
7D1500
BD0100
BFD100
BFD100
1BD100
07D100
07D100
07D100
07D100
07D100
07D100
07D100
090100
2D1500
7D0000
BD0010
BFFFD0
BFFF40
155400
ENDCHAR
STARTCHAR asciicircum
ENCODING 94
SWIDTH 814 0
DWIDTH 16 0
BBX 16 14 0 1
BITMAP
00055500
00200040
00D05400
02C10010
07841110
0B846110
0F44B004
1F00F444
1E11F844
2D02FC00
3D02FD01
7FF8FFF8
BFD0BFD0
15401540
ENDCHAR
STARTCHAR underscore
ENCODING 95
SWIDTH 834 0
DWIDTH 17 0
BBX 15 7 1 -4
BITMAP
05555554
18000004
B8155504
F8000004
FD555554
FFFFFFE0
FFFFFF40
ENDCHAR
STARTCHAR grave
ENCODING 96
SWIDTH 600 0
DWIDTH 12 0
BBX 12 8 0 12
BITMAP
015000
080154
2C1501
BD0001
BFE951
BFFFF8
1AFFE0
000140
ENDCHAR
STARTCHAR a
ENCODING 97
SWIDTH 830 0
DWIDTH 17 0
BBX 16 17 0 -2
BITMAP
00155540
00600010
01D05400
03C10104
07803444
0B047841
0E00B811
2E105411
3D100011
7D155551
7D100011
7D11FD11
7D01FD01
7D01BD01
7E557E55
7FF87FF8
7FD07FD0
ENDCHAR
STARTCHAR b
ENCODING 98
SWIDTH 825 0
DWIDTH 17 0
BBX 15 17 1 -2
BITMAP
05555540
28000000
B8155010
F8004110
F802E110
F802D110
F8000110
F8155504
F8000044
F802F440
F802F840
F8015040
F8155504
F8000004
FD555590
FFFFFF40
FFFFF900
ENDCHAR
STARTCHAR c
ENCODING 99
SWIDTH 728 0
DWIDTH 15 0
BBX 15 17 0 -2
BITMAP
00155550
00400004
06015504
1E000000
3D10BFD0
7D10FF40
7D109400
7D104000
7D104000
7D104000
7D105550
7E000004
7F015504
3F800004
2FF95550
1FFFFF80
02FFFE00
ENDCHAR
STARTCHAR d
ENCODING 100
SWIDTH 846 0
DWIDTH 17 0
BBX 16 17 1 -2
BITMAP
05555550
28000004
B8155504
F8000041
F802A441
F802F841
F802F841
F801F841
F801F841
F801F841
F801A041
F8000040
F8155504
F8000004
FD555590
FFFFFE00
FFFFE400
ENDCHAR
STARTCHAR e
ENCODING 101
SWIDTH 754 0
DWIDTH 15 0
BBX 14 17 1 -2
BITMAP
05555550
28000010
B8155410
F8000010
F803FF80
F801AA00
F8000100
F8155100
F8000100
F802F800
F802A540
F8000010
F8155410
F8000010
FD555540
FFFFFF40
FFFFFD00
ENDCHAR
STARTCHAR f
ENCODING 102
SWIDTH 718 0
DWIDTH 14 0
BBX 14 17 1 -2
BITMAP
05555540
28000010
B8155410
F8000000
F802FF40
F802FD00
F8000100
F8154100
F8000100
F8000100
F802F800
F802E000
F8014000
F8010000
FD550000
FFF40000
FF800000
ENDCHAR
STARTCHAR g
ENCODING 103
SWIDTH 808 0
DWIDTH 16 0
BBX 16 17 0 -2
BITMAP
00155550
00400004
06015504
1E000004
3D10BFD0
7D10FF40
7D109954
7D105801
7D10BC01
7D10FC11
7D106411
7E040011
7F015541
3F800001
2FF95554
1FFFFFF4
02FFFFD0
ENDCHAR
STARTCHAR h
ENCODING 104
SWIDTH 859 0
DWIDTH 17 0
BBX 16 17 1 -2
BITMAP
05550554
28012801
B801B841
F801F841
F801F841
F801A441
F8000041
F8155541
F8000041
F8015441
F802F841
F802F841
F801F841
F801F801
FD55F954
FFF5FFF0
FF80FF80
ENDCHAR
STARTCHAR i
ENCODING 105
SWIDTH 705 0
DWIDTH 14 0
BBX 14 17 0 -2
BITMAP
01555550
1D000010
7D055410
7E504150
7FF04780
7FF04500
16F04400
02F04400
02F04400
02F04400
02A04140
09004010
2D155410
7D000010
7E555540
7FFFFF40
7FFFF800
ENDCHAR
STARTCHAR j
ENCODING 106
SWIDTH 788 0
DWIDTH 16 0
BBX 15 17 0 -2
BITMAP
00001554
00007404
0001F444
0002F444
0002F444
0002F444
0156F444
0802F444
7C02F444
BC12F444
BC109044
BD100104
BE015404
7F400010
7FF95680
1FFFFE00
06FFE400
ENDCHAR
STARTCHAR k
ENCODING 107
SWIDTH 846 0
DWIDTH 17 0
BBX 16 17 1 -2
BITMAP
05550554
28016004
B802D100
F802C110
F8024410
F8010450
F8000004
F8155500
F8000041
F802A441
F802F441
F802F841
F801F841
F801F801
FD55F954
FFF5FFE0
FF80FF80
ENDCHAR
STARTCHAR l
ENCODING 108
SWIDTH 795 0
DWIDTH 16 0
BBX 15 17 1 -2
BITMAP
05550000
28010000
B8010000
F8010000
F8010000
F8010000
F8010550
F8013004
F801F004
F802F044
F801A044
F8000044
F8155504
F8000004
FD555550
FFFFFFD0
FFFFFE00
ENDCHAR
STARTCHAR m
ENCODING 109
SWIDTH 949 0
DWIDTH 19 0
BBX 17 17 1 -2
BITMAP
0555015540
2800060000
B8101C1000
F844284400
F841110400
F840400400
F840100400
F842014400
F843424400
F843EB4400
F843FF4400
F8429F4400
F8011F4000
F8011F4000
FD541F9540
FFE01FFE00
FF801FF800
ENDCHAR
STARTCHAR n
ENCODING 110
SWIDTH 853 0
DWIDTH 17 0
BBX 16 17 1 -2
BITMAP
05540554
28013801
B850B841
F8443841
F8410441
F8400041
F8400041
F8410041
F8420441
F843C141
F843E041
F843F441
F843F801
F802F801
FD55F954
FFF1FFE0
FF80FF80
ENDCHAR
STARTCHAR o
ENCODING 111
SWIDTH 837 0
DWIDTH 17 0
BBX 16 17 0 -2
BITMAP
00155550
00415504
06040041
1E101411
3D10FD10
7D10FD10
7D10BD10
7D10BD10
7D10BD10
7D10BD10
7D10BD10
7E040001
7F015501
7F800004
2FFA56A0
1FFFFF80
01BFE900
ENDCHAR
STARTCHAR p
ENCODING 112
SWIDTH 782 0
DWIDTH 16 0
BBX 15 17 1 -2
BITMAP
05555540
28000010
B8155400
F8000104
F802E044
F802F044
F802E044
F8000104
F8155400
F8000010
F8015640
F802FD00
F802E000
F8010000
FD540000
FFF40000
FF800000
ENDCHAR
STARTCHAR q
ENCODING 113
SWIDTH 837 0
DWIDTH 17 0
BBX 16 20 0 -5
BITMAP
00155550
00400004
02015501
1E040041
3D10BD10
3D10FD10
7D10FD10
7D10BD10
7D10BD10
7D10BD10
7D10BD10
7E105411
7E040001
7F015501
3FD01014
2FFD00D0
0BFE0140
01BFFD00
007FF400
00154000
ENDCHAR
STARTCHAR r
ENCODING 114
SWIDTH 843 0
DWIDTH 17 0
BBX 16 17 1 -2
BITMAP
05555540
28000010
B8155410
F8000100
F802D104
F802E100
F8019110
F8000114
F8155500
F8000041
F802F801
F802F801
F802F801
F801F801
FD55FD55
FFF4FFF4
FF80FFC0
ENDCHAR
STARTCHAR s
ENCODING 115
SWIDTH 750 0
DWIDTH 15 0
BBX 15 17 0 -2
BITMAP
00155550
01000010
0A055510
2D100010
7D10FFD0
7D105A40
7D100010
7E015404
7F800104
7FFE9044
1FFFE044
09000004
2D155404
7D000010
7E555680
7FFFFE00
7FFFE400
ENDCHAR
STARTCHAR t
ENCODING 116
SWIDTH 756 0
DWIDTH 15 0
BBX 15 17 0 -2
BITMAP
05555554
2C000000
BC155540
FC004004
FFF842F4
FFF842D0
56F84100
01F84100
01F84100
01F84100
01F84100
01F84100
01F80100
01F80100
01F95400
01FFF400
00FF8000
ENDCHAR
STARTCHAR u
ENCODING 117
SWIDTH 846 0
DWIDTH 17 0
BBX 16 17 0 -2
BITMAP
01554155
0A005D00
3E107D10
7E10BD10
7E10BD10
7E10BD10
7E10BD10
7E10BD10
7E10BD10
7E10BD10
7E006810
7E040000
7F015501
3F800004
2FFA55A0
0BFFFF80
01BFE900
ENDCHAR
STARTCHAR v
ENCODING 118
SWIDTH 830 0
DWIDTH 17 0
BBX 16 17 0 -2
BITMAP
01550555
1D005D01
7D10BD11
7D10BD11
7D10BD11
7D10BD11
7D10BD11
7D10BC11
7E047801
7F443440
3F800044
2FC10104
1FD05400
0FE00010
07F95540
03FFFE00
02FFF800
ENDCHAR
STARTCHAR w
ENCODING 119
SWIDTH 931 0
DWIDTH 19 0
BBX 18 17 0 -2
BITMAP
0155001550
0E0040D010
3E0043D010
7E1047D110
7E1047D110
7E1056D110
7E10809110
7E10441110
7E10110110
7E10004110
7E00484110
7F040D1010
3F411E0400
3F802F0040
2FD57F9500
0FFF7FFD00
0BF82FE000
ENDCHAR
STARTCHAR x
ENCODING 120
SWIDTH 837 0
DWIDTH 17 0
BBX 16 17 0 -2
BITMAP
01550155
0A005D00
3E107D10
7E10BC11
7F043401
7F400040
3FD10104
1FE05510
0BC10104
03401040
0A047811
1E10FD11
3E10FD10
7E00BD00
7E557E55
7FF87FF8
3FE07FE0
ENDCHAR
STARTCHAR y
ENCODING 121
SWIDTH 805 0
DWIDTH 16 0
BBX 16 17 0 -2
BITMAP
05550555
1D011C01
7D117C11
BD11BC11
BD11BC11
BD10B811
BD047041
BF040004
7F810000
2FE05010
0FF41040
07FC1100
02FC0100
00FC0100
00BE5500
00BFF800
00BFD000
ENDCHAR
STARTCHAR z
ENCODING 122
SWIDTH 760 0
DWIDTH 15 0
BBX 15 17 0 -2
BITMAP
01555554
0A000004
3E055504
7E000004
7FFF4104
7FFD0410
15681040
00604100
01800000
02000000
09041554
2D100004
7D055504
BD000004
BE555554
BFFFFFD0
7FFFFF40
ENDCHAR
STARTCHAR braceleft
ENCODING 123
SWIDTH 555 0
DWIDTH 11 0
BBX 11 21 0 -4
BITMAP
000554
005004
014104
0B0404
1F0460
2F0440
2F0440
2C1040
380200
B80040
FD0440
FF0440
BF0440
2F0414
2F0404
2F4104
2F8004
2FE404
1FFFE0
07FF80
005500
ENDCHAR
STARTCHAR bar
ENCODING 124
SWIDTH 447 0
DWIDTH 9 0
BBX 8 21 0 -4
BITMAP
0155
0600
2E10
7E10
7E10
7E10
7E10
7E10
7E10
7E10
7E10
7E10
7E10
7E10
7E10
7E10
7E00
7E01
7FFD
3FF4
1540
ENDCHAR
STARTCHAR braceright
ENCODING 125
SWIDTH 555 0
DWIDTH 11 0
BBX 12 21 0 -4
BITMAP
015400
090040
7D1410
BD0110
BFC110
BFC110
1FC110
0BD104
0BE441
0BE440
07D104
03C110
0BC110
0BC110
090110
2D1410
7D0000
BD0100
BFFC00
BFE000
150000
ENDCHAR
STARTCHAR asciitilde
ENCODING 126
SWIDTH 834 0
DWIDTH 17 0
BBX 15 8 1 2
BITMAP
00554014
04000504
28154004
B8000504
F8594014
FFFFFFD0
FFFFFF40
5015A400
ENDCHAR
STARTCHAR uni00A0
ENCODING 160
SWIDTH 325 0
DWIDTH 7 0
BBX 1 1 0 0
BITMAP
00
ENDCHAR
STARTCHAR exclamdown
ENCODING 161
SWIDTH 523 0
DWIDTH 10 0
BBX 9 17 1 -2
BITMAP
055500
1C0040
BC1040
BC0040
BFFE00
BE5500
6D0000
3D0000
BC1000
BC1040
BC1040
BC1040
BC1040
BC0040
BD5500
BFFD00
BFE000
ENDCHAR
STARTCHAR cent
ENCODING 162
SWIDTH 728 0
DWIDTH 15 0
BBX 15 19 0 -3
BITMAP
00015500
00050050
00401004
00015504
06040004
1D100000
3D10BFD0
7D10FF00
7D109400
7D104000
7D105550
7E000004
7F015504
7F801004
3FF80050
1FFD0180
07FE5500
007FF800
007FD000
ENDCHAR
STARTCHAR sterling
ENCODING 163
SWIDTH 795 0
DWIDTH 16 0
BBX 16 17 0 -2
BITMAP
00155540
00400010
02015410
1E040010
2E00BF80
3D00AD00
38000400
78000154
F8000801
FD006C01
FE00BC11
BE000011
3E055541
3E000001
3F555554
3FFFFFF4
3FFFFF80
ENDCHAR
STARTCHAR currency
ENCODING 164
SWIDTH 921 0
DWIDTH 18 0
BBX 18 17 0 -2
BITMAP
0054000540
0101556010
0900000010
2F44554400
7FC1001000
3FD12F1100
0FD13F4100
07D13F4100
07D13F4100
07D11A1100
07C1001040
0704154410
0900000010
2F03FBF010
7FDFFFFD40
3FD697FD00
0F4000F400
ENDCHAR
STARTCHAR yen
ENCODING 165
SWIDTH 803 0
DWIDTH 16 0
BBX 16 17 0 -2
BITMAP
05550555
1D011C01
7D117C11
BD11BC11
BD10BC11
BE00B401
BF401004
7FD00010
2F900010
0F401004
0B455504
2F401004
2FFC01E0
2FFC0180
05BE5500
00BFF400
00BFD000
ENDCHAR
STARTCHAR brokenbar
ENCODING 166
SWIDTH 447 0
DWIDTH 9 0
BBX 8 21 0 -4
BITMAP
0155
0600
2E10
7E10
7E10
7E10
7E00
7E00
7FA9
7FA5
2A00
1E00
3E10
7E10
7E10
7E10
7E00
7E01
7FFD
7FF4
1540
ENDCHAR
STARTCHAR section
ENCODING 167
SWIDTH 750 0
DWIDTH 15 0
BBX 15 17 0 -2
BITMAP
00155550
01415510
06000010
1D10FFD0
3D100540
7D155410
7D100004
7E11F044
7F045044
7FD15544
3FFFF044
1E000044
0A000044
2E055410
7E555640
7FFFFD00
3FFFE400
ENDCHAR
STARTCHAR dieresis
ENCODING 168
SWIDTH 600 0
DWIDTH 12 0
BBX 12 7 0 12
BITMAP
055455
180600
B84610
F80701
FFFFFD
FFBFF4
551540
ENDCHAR
STARTCHAR copyright
ENCODING 169
SWIDTH 967 0
DWIDTH 19 0
BBX 19 22 0 -4
BITMAP
0001555400
0014000140
0040000010
0606FFF904
1E1FFAAF44
2E5A400754
3E55154754
7E5C415B54
7E6C4BEF54
7E6C4B5F54
7E6C441F54
7E6C441F54
7E6C455B54
7E6D154754
7E5F400754
7E5FFFFF14
7F46FFD910
3F94000150
2FFA555A40
0BFFFFFD00
01FFFFE000
0005540000
ENDCHAR
STARTCHAR ordfeminine
ENCODING 170
SWIDTH 620 0
DWIDTH 12 0
BBX 13 17 0 -2
BITMAP
00555000
02454400
0B100000
1E131100
2D074100
3C400400
7C555440
BC410440
BC0B8040
BC0B8040
BEAFE900
BE9AA900
BC000040
2C000040
BE555500
BFFFF800
BFFFE000
ENDCHAR
STARTCHAR guillemotleft
ENCODING 171
SWIDTH 912 0
DWIDTH 18 0
BBX 18 13 0 -1
BITMAP
0005540550
0050054010
0101080410
0D10080010
3D11B84640
7D11B84540
7D10084010
7E050C0410
7F900F4010
7FFE4FFA50
1FFFFFFF80
01BF45BD00
0004000000
ENDCHAR
STARTCHAR logicalnot
ENCODING 172
SWIDTH 834 0
DWIDTH 17 0
BBX 15 12 1 -1
BITMAP
01555554
18000004
78155544
F8000044
FD555444
FFFFF844
FFFFF844
0000F804
0000F804
0000FD54
0000FFD0
0000FF40
ENDCHAR
STARTCHAR uni00AD
ENCODING 173
SWIDTH 520 0
DWIDTH 10 0
BBX 10 7 0 3
BITMAP
015550
080000
7C1500
BC0000
BE5550
BFFF80
BFFE00
ENDCHAR
STARTCHAR registered
ENCODING 174
SWIDTH 660 0
DWIDTH 13 0
BBX 13 13 0 2
BITMAP
00555500
016FF500
0A655D40
3E964D40
7E941D40
7E954540
7E969540
7DA28940
7E7FF940
7F955500
3FFFF800
1FFFD000
01A90000
ENDCHAR
STARTCHAR macron
ENCODING 175
SWIDTH 600 0
DWIDTH 12 0
BBX 12 7 0 12
BITMAP
015554
080001
3C1541
BD0001
BFFFF8
BFFFE0
155540
ENDCHAR
STARTCHAR degree
ENCODING 176
SWIDTH 583 0
DWIDTH 12 0
BBX 12 12 0 3
BITMAP
005550
051544
1D4011
7D4B11
BD4F11
BD4A11
BD4011
BD1540
BF9550
7FFFC0
1FFE00
004000
ENDCHAR
STARTCHAR plusminus
ENCODING 177
SWIDTH 834 0
DWIDTH 17 0
BBX 15 17 1 -2
BITMAP
00055400
00280400
00B84400
00F84400
05A44154
18004004
B8155544
F8004004
FEA846A0
FFF84780
56A40554
18000004
78155504
F8000004
FD555554
FFFFFFD0
FFFFFF40
ENDCHAR
STARTCHAR twosuperior
ENCODING 178
SWIDTH 585 0
DWIDTH 12 0
BBX 12 13 0 2
BITMAP
015550
0E1544
3E5410
3FFD10
3F9014
060504
1D0190
7C4654
BC4001
BC1541
BE5554
BFFFE0
BFFF80
ENDCHAR
STARTCHAR threesuperior
ENCODING 179
SWIDTH 584 0
DWIDTH 12 0
BBX 12 13 0 2
BITMAP
055550
1D1500
7D0044
BFFC44
7F8050
1B4544
1F8011
1FFF11
1D5411
1D1544
7E5564
BFFFC0
7FFE00
ENDCHAR
STARTCHAR acute
ENCODING 180
SWIDTH 600 0
DWIDTH 12 0
BBX 12 8 0 12
BITMAP
000014
015501
080141
3C1001
BD16A8
BFFFE0
BFEA40
100000
ENDCHAR
STARTCHAR mu
ENCODING 181
SWIDTH 813 0
DWIDTH 16 0
BBX 16 17 0 -4
BITMAP
01550154
06005C01
2E00BC01
7E10FC11
7E10FC11
7E10FC11
7E10FC11
7E10FC11
7E106401
7E140041
7E115501
7E100014
7E00AAD0
7E00FF40
7FFFE800
7FF40000
15500000
ENDCHAR
STARTCHAR paragraph
ENCODING 182
SWIDTH 782 0
DWIDTH 16 0
BBX 15 17 0 -2
BITMAP
00155554
01000004
09055544
2C100044
7C400044
BC400044
BC400044
BC100044
BD055544
BF400044
7FE00444
3FF01844
0BF01804
02F01804
02F96D54
02FFFFD0
02FDBF40
ENDCHAR
STARTCHAR periodcentered
ENCODING 183
SWIDTH 464 0
DWIDTH 9 0
BBX 9 9 0 2
BITMAP
015540
090040
2D0040
BD0040
BD0040
BD0040
BE5540
BFFD00
7FF400
ENDCHAR
STARTCHAR cedilla
ENCODING 184
SWIDTH 600 0
DWIDTH 12 0
BBX 9 9 1 -5
BITMAP
001000
008140
028040
0B4440
0F0440
1E0100
2E5500
3FF400
7FD000
ENDCHAR
STARTCHAR onesuperior
ENCODING 185
SWIDTH 557 0
DWIDTH 11 0
BBX 11 13 0 2
BITMAP
015540
1E1440
3E4040
7FD040
7FD040
07D040
07D040
069014
090004
2D1544
7E5554
BFFFE0
7FFF40
ENDCHAR
STARTCHAR ordmasculine
ENCODING 186
SWIDTH 625 0
DWIDTH 13 0
BBX 13 17 0 -2
BITMAP
00555400
01055100
1D000000
7C478440
BC4B8440
BC4B8440
BC4B8440
BC478440
BD000000
BE055100
BFE9A400
7EAA9500
2C000040
2C000040
BE555500
BFFFF800
BFFFE000
ENDCHAR
STARTCHAR guillemotright
ENCODING 187
SWIDTH 912 0
DWIDTH 18 0
BBX 18 13 0 0
BITMAP
0140054000
066A596900
2E01B80180
7E05181410
7E00480110
7FE04F9110
3FE04F9110
0A05080400
2E00180000
7E00B80100
7E69F86800
7FE4FF9000
2900A40000
ENDCHAR
STARTCHAR onequarter
ENCODING 188
SWIDTH 1303 0
DWIDTH 26 0
BBX 26 17 0 -2
BITMAP
01554055400000
1E1441C0000000
3E4047C4400000
7FD04B84400000
7FD04F84555540
07D04F44C4B110
07D05F00C4B110
06901B11C4B110
09000611C4B110
2D154612C45110
7E555912D15510
BFFFFD13E40110
7FFFBC07FFF110
0000BC07FFF010
0000BD5056F950
0000FFD002FF40
0000BF4002FD00
ENDCHAR
STARTCHAR onehalf
ENCODING 189
SWIDTH 1260 0
DWIDTH 25 0
BBX 25 17 0 -2
BITMAP
01554055400000
1E1441C0000000
3E4047C4400000
7FD04B84400000
7FD04F84555400
1BD04F44C15040
07D05F00D54440
06901B11FF8440
09000611F40440
2D154611815100
7E555912841800
BFFFFD1384A540
7FFFBC07840040
0000BC07855440
0000BD5B955540
0000FFEFFFFD00
0000BF4FFFF400
ENDCHAR
STARTCHAR threequarters
ENCODING 190
SWIDTH 1313 0
DWIDTH 26 0
BBX 26 17 0 -2
BITMAP
05555015400000
1D1500D0100000
7D0047C0000000
BFFC4BC4400000
7F805B84555550
0B450784947410
1F800344D47410
1FFF1340D47410
1D541311D47410
1D154611D06010
7E556E12D15510
BFFFBD12F40010
7FFE7D03FFF410
00007C03FFF410
0000BD5056F950
0000BFD001FF80
0000BF4001FD00
ENDCHAR
STARTCHAR questiondown
ENCODING 191
SWIDTH 756 0
DWIDTH 15 0
BBX 15 17 0 -2
BITMAP
00015540
000A0000
002E0400
003E0000
003FA540
00254000
00000040
05055400
1D100040
7D10AF40
BD10A954
BD100004
BE055504
BF400004
7FE55554
3FFFFFD0
0BFFFF40
ENDCHAR
STARTCHAR Agrave
ENCODING 192
SWIDTH 830 0
DWIDTH 17 0
BBX 16 22 0 -2
BITMAP
002AA540
01D015A0
07D05510
07D00010
07FEA500
07F00010
00A00010
01D05400
03810104
07403444
0B047841
0E00B811
2E105411
3D100011
7D155551
7D100011
7D11FD11
7D01FD01
7D01BD01
7E557E55
7FF87FF8
7FD07FD0
ENDCHAR
STARTCHAR Aacute
ENCODING 193
SWIDTH 830 0
DWIDTH 17 0
BBX 16 22 0 -2
BITMAP
00005AA0
00295010
00D05510
03D00000
07E15A80
07F55540
07E00010
02D05400
03C10104
07803444
0B047841
0E00B811
2E105411
3D100011
7D155551
7D100011
7D11FD11
7D01FD01
7D01BD01
7E557E55
7FF87FF8
7FD07FD0
ENDCHAR
STARTCHAR Acircumflex
ENCODING 194
SWIDTH 830 0
DWIDTH 17 0
BBX 16 23 0 -2
BITMAP
00005400
00040040
00105410
01D00010
03D06410
07FFFFD0
07F00010
07E00010
01D05400
03810104
07403444
0B047841
0E00B811
2E105411
3D100011
7D155551
7D100011
7D11FD11
7D01FD01
7D01BD01
7E557E55
7FF87FF8
7FD07FD0
ENDCHAR
STARTCHAR Atilde
ENCODING 195
SWIDTH 830 0
DWIDTH 17 0
BBX 16 22 0 -2
BITMAP
00055450
00100010
01D15010
03D00110
07E55010
07FAAA80
07F00010
01D05410
03C10104
07803444
0B447840
0F00B811
2E105411
3D100011
7D155551
7D100011
7D11FD11
7D01FD01
7D01BD01
7E557E55
7FF87FF8
7FD07FE0
ENDCHAR
STARTCHAR Adieresis
ENCODING 196
SWIDTH 830 0
DWIDTH 17 0
BBX 16 22 0 -2
BITMAP
00154550
00803004
07C03044
0BC03004
0FC03404
0FFEAAE0
0BF00010
01D05410
03C10104
07803444
0B447840
0F00B811
2E105411
3D100011
7D155551
7D100011
7D11FD11
7D01FD01
7D01BD01
7E557E55
7FF87FF8
7FD07FE0
ENDCHAR
STARTCHAR Aring
ENCODING 197
SWIDTH 830 0
DWIDTH 17 0
BBX 16 23 0 -2
BITMAP
00015500
00140010
00505510
01D11000
07D47840
07D47840
0BE10010
07E05510
07D05400
03C10104
07803444
0B047841
0E00B811
2E105411
3D100011
7D155551
7D100011
7D11FD11
7D01FD01
7D01BD01
7E557E55
7FF87FF8
7FD07FD0
ENDCHAR
STARTCHAR AE
ENCODING 198
SWIDTH 1105 0
DWIDTH 22 0
BBX 22 17 0 -2
BITMAP
001555555550
006000000010
02C055555410
078100100010
0B443C11FF80
0F047C11AA00
1E04BC100100
2E1054100100
3D1000100000
7D155551A800
7D100011A540
7D11FC100010
7D01FC155410
7D01BC000010
7E55BE555550
7FF8BFFFFF40
7FD07FFFFD00
ENDCHAR
STARTCHAR Ccedilla
ENCODING 199
SWIDTH 728 0
DWIDTH 15 0
BBX 15 20 0 -5
BITMAP
00155550
00400004
06015504
1E000000
3D10BFD0
7D10FF40
7D109400
7D104000
7D104000
7D104000
7D105550
7E000004
7F015504
3F800004
2FF91190
0FFD0280
02BC0100
007FF400
00BFD000
00550000
ENDCHAR
STARTCHAR Egrave
ENCODING 200
SWIDTH 754 0
DWIDTH 15 0
BBX 14 22 1 -2
BITMAP
01A95000
0A015A00
2E055040
3E000040
3FEA5000
3D555550
28000010
B8155410
F8000010
F803FF80
F801AA00
F8000100
F8155100
F8000100
F802F800
F802A540
F8000010
F8155410
F8000010
FD555540
FFFFFF40
FFFFFD00
ENDCHAR
STARTCHAR Eacute
ENCODING 201
SWIDTH 754 0
DWIDTH 15 0
BBX 14 22 1 -2
BITMAP
00016A40
00A54040
07455040
1F400000
2F45A900
2D555550
28000010
B8155410
F8000010
F803FF80
F801AA00
F8000100
F8155100
F8000100
F802F800
F802A540
F8000010
F8155410
F8000010
FD555540
FFFFFF40
FFFFFD00
ENDCHAR
STARTCHAR Ecircumflex
ENCODING 202
SWIDTH 754 0
DWIDTH 15 0
BBX 14 23 1 -2
BITMAP
00014000
00500500
02014040
0B000040
2F055040
3FBFFE40
3D555550
78000010
F8155410
F8000010
F803FF80
F801AA00
F8000100
F8155100
F8000100
F802F800
F802A540
F8000010
F8155410
F8000010
FD555540
FFFFFF40
FFFFFD00
ENDCHAR
STARTCHAR Edieresis
ENCODING 203
SWIDTH 754 0
DWIDTH 15 0
BBX 14 22 1 -2
BITMAP
01551540
06018040
1E118440
7E018040
7E018000
7FAAAA90
78000010
78155410
F8000010
F803FF80
F801AA00
F8000100
F8155100
F8000100
F802F800
F802A540
F8000010
F8155410
F8000010
FD555540
FFFFFF40
FFFFFD00
ENDCHAR
STARTCHAR Igrave
ENCODING 204
SWIDTH 705 0
DWIDTH 14 0
BBX 14 22 0 -2
BITMAP
00A95000
07405640
1F055040
2F400040
2FFA5400
2E555550
0D000010
7D055410
7E504150
7FF04780
7FF04500
16F04400
02F04400
02F04400
02F04400
02A04140
09004010
2D155410
7D000010
7E555540
7FFFFF40
7FFFF800
ENDCHAR
STARTCHAR Iacute
ENCODING 205
SWIDTH 705 0
DWIDTH 14 0
BBX 14 22 0 -2
BITMAP
00056A40
01A54040
07055040
1F000000
2F45A900
2E555550
2D000010
3D055410
7E504150
7FF04780
7FF04500
16F04400
02F04400
02F04400
02F04400
02A04140
09004010
2D155410
7D000010
7E555540
7FFFFF40
7FFFF800
ENDCHAR
STARTCHAR Icircumflex
ENCODING 206
SWIDTH 705 0
DWIDTH 14 0
BBX 14 23 0 -2
BITMAP
00015000
00100500
01415040
07000040
1F019040
2FBFFE40
2E555550
2D000010
3D055410
7E504150
7FF04780
7FF04500
16F04400
02F04400
02F04400
02F04400
02A04140
09004010
2D155410
7D000010
7E555540
7FFFFF40
7FFFF800
ENDCHAR
STARTCHAR Idieresis
ENCODING 207
SWIDTH 705 0
DWIDTH 14 0
BBX 14 22 0 -2
BITMAP
01551540
06018000
1E11C400
3E01C000
3E01C000
3FAAAA90
3D000010
2D055410
7E504150
7FF04780
7FF04500
16F04400
02F04400
02F04400
02F04400
02A04140
09004010
2D155410
7D000010
7E555540
7FFFFF40
7FFFF800
ENDCHAR
STARTCHAR Eth
ENCODING 208
SWIDTH 856 0
DWIDTH 17 0
BBX 17 17 0 -2
BITMAP
0155555400
0B00000100
2F05554000
3F04001000
3F04BE0040
3E046E0040
38040E0040
78150E0040
F8040E0040
FD046E0040
FF047E0040
BF04001040
3F05554000
3F00000100
3F55556400
3FFFFFD000
2FFFFE0000
ENDCHAR
STARTCHAR Ntilde
ENCODING 209
SWIDTH 853 0
DWIDTH 17 0
BBX 16 22 1 -2
BITMAP
00155140
00800010
03814010
0F800400
0F954000
0D5BF954
2802F801
F850B841
F8443841
F8410441
F8400041
F8400041
F8410041
F8420441
F843C141
F843E041
F843F441
F843F801
F802F801
FD55F954
FFF1FFE0
FF80FF80
ENDCHAR
STARTCHAR Ograve
ENCODING 210
SWIDTH 837 0
DWIDTH 17 0
BBX 16 23 0 -2
BITMAP
00040000
007BEA50
01D055A0
07D00510
07E00000
07F94000
02900004
02015501
0A040041
2D101410
3D10FD10
7D10FD10
7D10BD10
7D10BD10
7D10BD10
7D10BD10
7D10BD10
7E040001
7F015501
3F800004
2FFA56A0
0FFFFF80
01BFE900
ENDCHAR
STARTCHAR Oacute
ENCODING 211
SWIDTH 837 0
DWIDTH 17 0
BBX 16 22 0 -2
BITMAP
0006AFF0
00795510
01D04000
07D00010
07E00140
07900004
03015501
0A040041
2D101410
3D10FD10
7D10FD10
7D10BD10
7D10BD10
7D10BD10
7D10BD10
7D10BD10
7E040001
7F015501
3F800004
2FFA56A0
0FFFFF80
01BFE900
ENDCHAR
STARTCHAR Ocircumflex
ENCODING 212
SWIDTH 837 0
DWIDTH 17 0
BBX 16 23 0 -2
BITMAP
00005400
00000040
00505410
01D00000
07E6FE50
07F95590
07800004
02015501
0A040041
2D101410
3D10FD10
7D10FD10
7D10BD10
7D10BD10
7D10BD10
7D10BD10
7D10BD10
7E040001
7F015501
3F800004
2FFA56A0
0FFFFF80
01BFE900
ENDCHAR
STARTCHAR Otilde
ENCODING 213
SWIDTH 837 0
DWIDTH 17 0
BBX 16 22 0 -2
BITMAP
00055450
00500010
01D15010
07D00110
07E55010
07F95550
03815504
0A040041
2E101410
3D10FD10
7D10FD10
7D10BD10
7D10BD10
7D10BD10
7D10BD10
7D10BD10
7E040001
7F015501
3F800004
2FFA56A0
0FFFFF80
01BFE900
ENDCHAR
STARTCHAR Odieresis
ENCODING 214
SWIDTH 837 0
DWIDTH 17 0
BBX 16 22 0 -2
BITMAP
00154550
01C03404
07C03044
0BC03004
0BC03400
0BFEAAA0
07915504
0B040041
2E101411
3D10FD10
7D10FD10
7D10BD10
7D10BD10
7D10BD10
7D10BD10
7D10BD10
7E040001
7E015501
3F800004
2FFA56A0
0FFFFF80
01BFE900
ENDCHAR
STARTCHAR multiply
ENCODING 215
SWIDTH 834 0
DWIDTH 17 0
BBX 15 14 1 -1
BITMAP
00400000
01011400
0C005004
3E040010
BF810040
7FE04100
1FD01040
07400410
05004000
1D01E004
7F47F810
BFD7FE40
2F81FD00
09007400
ENDCHAR
STARTCHAR Oslash
ENCODING 216
SWIDTH 837 0
DWIDTH 17 0
BBX 16 20 0 -3
BITMAP
00000154
00000500
00155404
00415541
06040001
1E10A010
3D11D010
7D11C010
7D118110
7D111210
7D100A10
7D104E10
7D101D10
7E010011
7F015501
7F800004
3F8056A0
1F95FF80
0FFFE900
1FE00000
ENDCHAR
STARTCHAR Ugrave
ENCODING 217
SWIDTH 846 0
DWIDTH 17 0
BBX 16 22 0 -2
BITMAP
002A9400
00D015A0
03D15510
07D00010
07FE9500
0655FE55
0A00BD00
3E107D10
7E10BD10
7E10BD10
7E10BD10
7E10BD10
7E10BD10
7E10BD10
7E10BD10
7E006810
7E040000
7F015501
3F800004
2FFA55A0
0BFFFF80
01BFE900
ENDCHAR
STARTCHAR Uacute
ENCODING 218
SWIDTH 846 0
DWIDTH 17 0
BBX 16 22 0 -2
BITMAP
000056A0
001A5004
00A05504
02E00000
03F15A80
0255FE55
0A005D00
3E107D10
7E10BD10
7E10BD10
7E10BD10
7E10BD10
7E10BD10
7E10BD10
7E10BD10
7E006810
7E040000
7F015501
3F800004
2FFA55A0
0BFFFF80
01BFE900
ENDCHAR
STARTCHAR Ucircumflex
ENCODING 219
SWIDTH 846 0
DWIDTH 17 0
BBX 16 23 0 -2
BITMAP
00001400
00000000
00105400
01E00000
03E1BE40
07FFFFF0
0655FE55
0E006D00
3E107D10
7E10BD10
7E10BD10
7E10BD10
7E10BD10
7E10BD10
7E10BD10
7E10BD10
7E005410
7E040000
7F015501
3F800004
2FFA55A0
0BFFFF80
01BFE900
ENDCHAR
STARTCHAR Udieresis
ENCODING 220
SWIDTH 846 0
DWIDTH 17 0
BBX 16 22 0 -2
BITMAP
00154550
00C02404
07C12444
0BC02404
0BD03400
0BABFFAA
1E00FD00
3E007D00
7E107D10
7E10BD10
7E10BD10
7E10BD10
7E10BD10
7E10BD10
7E10BD10
7E006810
7E040010
7F015501
3F800004
2FFA55A0
0BFFFF80
01BFE900
ENDCHAR
STARTCHAR Yacute
ENCODING 221
SWIDTH 805 0
DWIDTH 16 0
BBX 16 22 0 -2
BITMAP
00005AA0
00295010
01D15510
07D00000
07D15A40
0556FD55
1D016C01
7D117C11
BD11BC11
BD11BC11
BD10B811
BD047041
BF040004
7F810000
2FE05010
0FF41040
07FC1100
02FC0100
00FC0100
00BE5500
00BFF800
00BFD000
ENDCHAR
STARTCHAR Thorn
ENCODING 222
SWIDTH 792 0
DWIDTH 16 0
BBX 15 17 1 -2
BITMAP
05550000
28010000
B8005540
F8000010
F8155404
F8000104
F802E004
F802F004
F802E004
F8000104
F8155400
F8000010
F8015640
F802FD00
FD57E000
FFF40000
FF800000
ENDCHAR
STARTCHAR germandbls
ENCODING 223
SWIDTH 859 0
DWIDTH 17 0
BBX 16 17 1 -2
BITMAP
05555540
28000010
B8155410
F8000110
F8028110
F802C010
F8028404
F8028541
F8028011
F802FD11
F802FC11
F8024011
F8024141
F8024001
FD579564
FFFFFFC0
FF9FFE00
ENDCHAR
STARTCHAR agrave
ENCODING 224
SWIDTH 830 0
DWIDTH 17 0
BBX 16 22 0 -2
BITMAP
002AA540
01D015A0
07D05510
07D00010
07FEA500
07F00010
00A00010
01D05400
03810104
07403444
0B047841
0E00B811
2E105411
3D100011
7D155551
7D100011
7D11FD11
7D01FD01
7D01BD01
7E557E55
7FF87FF8
7FD07FD0
ENDCHAR
STARTCHAR aacute
ENCODING 225
SWIDTH 830 0
DWIDTH 17 0
BBX 16 22 0 -2
BITMAP
00005AA0
00295010
00D05510
03D00000
07E15A80
07F55540
07E00010
02D05400
03C10104
07803444
0B047841
0E00B811
2E105411
3D100011
7D155551
7D100011
7D11FD11
7D01FD01
7D01BD01
7E557E55
7FF87FF8
7FD07FD0
ENDCHAR
STARTCHAR acircumflex
ENCODING 226
SWIDTH 830 0
DWIDTH 17 0
BBX 16 23 0 -2
BITMAP
00005400
00040040
00105410
01D00010
03D06410
07FFFFD0
07F00010
07E00010
01D05400
03810104
07403444
0B047841
0E00B811
2E105411
3D100011
7D155551
7D100011
7D11FD11
7D01FD01
7D01BD01
7E557E55
7FF87FF8
7FD07FD0
ENDCHAR
STARTCHAR atilde
ENCODING 227
SWIDTH 830 0
DWIDTH 17 0
BBX 16 22 0 -2
BITMAP
00055450
00100010
01D15010
03D00110
07E55010
07FAAA80
07F00010
01D05410
03C10104
07803444
0B447840
0F00B811
2E105411
3D100011
7D155551
7D100011
7D11FD11
7D01FD01
7D01BD01
7E557E55
7FF87FF8
7FD07FE0
ENDCHAR
STARTCHAR adieresis
ENCODING 228
SWIDTH 830 0
DWIDTH 17 0
BBX 16 22 0 -2
BITMAP
00154550
00803004
07C03044
0BC03004
0FC03404
0FFEAAE0
0BF00010
01D05410
03C10104
07803444
0B447840
0F00B811
2E105411
3D100011
7D155551
7D100011
7D11FD11
7D01FD01
7D01BD01
7E557E55
7FF87FF8
7FD07FE0
ENDCHAR
STARTCHAR aring
ENCODING 229
SWIDTH 830 0
DWIDTH 17 0
BBX 16 23 0 -2
BITMAP
00015500
00140010
00505510
01D11000
07D47840
07D47840
0BE10010
07E05510
07D05400
03C10104
07803444
0B047841
0E00B811
2E105411
3D100011
7D155551
7D100011
7D11FD11
7D01FD01
7D01BD01
7E557E55
7FF87FF8
7FD07FD0
ENDCHAR
STARTCHAR ae
ENCODING 230
SWIDTH 1105 0
DWIDTH 22 0
BBX 22 17 0 -2
BITMAP
001555555550
006000000010
02C055555410
078100100010
0B443C11FF80
0F047C11AA00
1E04BC100100
2E1054100100
3D1000100000
7D155551A800
7D100011A540
7D11FC100010
7D01FC155410
7D01BC000010
7E55BE555550
7FF8BFFFFF40
7FD07FFFFD00
ENDCHAR
STARTCHAR ccedilla
ENCODING 231
SWIDTH 728 0
DWIDTH 15 0
BBX 15 20 0 -5
BITMAP
00155550
00400004
06015504
1E000000
3D10BFD0
7D10FF40
7D109400
7D104000
7D104000
7D104000
7D105550
7E000004
7F015504
3F800004
2FF91190
0FFD0280
02BC0100
007FF400
00BFD000
00550000
ENDCHAR
STARTCHAR egrave
ENCODING 232
SWIDTH 754 0
DWIDTH 15 0
BBX 14 22 1 -2
BITMAP
01A95000
0A015A00
2E055040
3E000040
3FEA5000
3D555550
28000010
B8155410
F8000010
F803FF80
F801AA00
F8000100
F8155100
F8000100
F802F800
F802A540
F8000010
F8155410
F8000010
FD555540
FFFFFF40
FFFFFD00
ENDCHAR
STARTCHAR eacute
ENCODING 233
SWIDTH 754 0
DWIDTH 15 0
BBX 14 22 1 -2
BITMAP
00016A40
00A54040
07455040
1F400000
2F45A900
2D555550
28000010
B8155410
F8000010
F803FF80
F801AA00
F8000100
F8155100
F8000100
F802F800
F802A540
F8000010
F8155410
F8000010
FD555540
FFFFFF40
FFFFFD00
ENDCHAR
STARTCHAR ecircumflex
ENCODING 234
SWIDTH 754 0
DWIDTH 15 0
BBX 14 23 1 -2
BITMAP
00014000
00500500
02014040
0B000040
2F055040
3FBFFE40
3D555550
78000010
F8155410
F8000010
F803FF80
F801AA00
F8000100
F8155100
F8000100
F802F800
F802A540
F8000010
F8155410
F8000010
FD555540
FFFFFF40
FFFFFD00
ENDCHAR
STARTCHAR edieresis
ENCODING 235
SWIDTH 754 0
DWIDTH 15 0
BBX 14 22 1 -2
BITMAP
01551540
06018040
1E118440
7E018040
7E018000
7FAAAA90
78000010
78155410
F8000010
F803FF80
F801AA00
F8000100
F8155100
F8000100
F802F800
F802A540
F8000010
F8155410
F8000010
FD555540
FFFFFF40
FFFFFD00
ENDCHAR
STARTCHAR igrave
ENCODING 236
SWIDTH 705 0
DWIDTH 14 0
BBX 14 22 0 -2
BITMAP
00A95000
07405640
1F055040
2F400040
2FFA5400
2E555550
0D000010
7D055410
7E504150
7FF04780
7FF04500
16F04400
02F04400
02F04400
02F04400
02A04140
09004010
2D155410
7D000010
7E555540
7FFFFF40
7FFFF800
ENDCHAR
STARTCHAR iacute
ENCODING 237
SWIDTH 705 0
DWIDTH 14 0
BBX 14 22 0 -2
BITMAP
00056A40
01A54040
07055040
1F000000
2F45A900
2E555550
2D000010
3D055410
7E504150
7FF04780
7FF04500
16F04400
02F04400
02F04400
02F04400
02A04140
09004010
2D155410
7D000010
7E555540
7FFFFF40
7FFFF800
ENDCHAR
STARTCHAR icircumflex
ENCODING 238
SWIDTH 705 0
DWIDTH 14 0
BBX 14 23 0 -2
BITMAP
00015000
00100500
01415040
07000040
1F019040
2FBFFE40
2E555550
2D000010
3D055410
7E504150
7FF04780
7FF04500
16F04400
02F04400
02F04400
02F04400
02A04140
09004010
2D155410
7D000010
7E555540
7FFFFF40
7FFFF800
ENDCHAR
STARTCHAR idieresis
ENCODING 239
SWIDTH 705 0
DWIDTH 14 0
BBX 14 22 0 -2
BITMAP
01551540
06018000
1E11C400
3E01C000
3E01C000
3FAAAA90
3D000010
2D055410
7E504150
7FF04780
7FF04500
16F04400
02F04400
02F04400
02F04400
02A04140
09004010
2D155410
7D000010
7E555540
7FFFFF40
7FFFF800
ENDCHAR
STARTCHAR eth
ENCODING 240
SWIDTH 856 0
DWIDTH 17 0
BBX 17 17 0 -2
BITMAP
0155555400
0B00000100
2F05554000
3F04001000
3F04BE0040
3E046E0040
38040E0040
78150E0040
F8040E0040
FD046E0040
FF047E0040
BF04001040
3F05554000
3F00000100
3F55556400
3FFFFFD000
2FFFFE0000
ENDCHAR
STARTCHAR ntilde
ENCODING 241
SWIDTH 853 0
DWIDTH 17 0
BBX 16 22 1 -2
BITMAP
00155140
00800010
03814010
0F800400
0F954000
0D5BF954
2802F801
F850B841
F8443841
F8410441
F8400041
F8400041
F8410041
F8420441
F843C141
F843E041
F843F441
F843F801
F802F801
FD55F954
FFF1FFE0
FF80FF80
ENDCHAR
STARTCHAR ograve
ENCODING 242
SWIDTH 837 0
DWIDTH 17 0
BBX 16 23 0 -2
BITMAP
00040000
007BEA50
01D055A0
07D00510
07E00000
07F94000
02900004
02015501
0A040041
2D101410
3D10FD10
7D10FD10
7D10BD10
7D10BD10
7D10BD10
7D10BD10
7D10BD10
7E040001
7F015501
3F800004
2FFA56A0
0FFFFF80
01BFE900
ENDCHAR
STARTCHAR oacute
ENCODING 243
SWIDTH 837 0
DWIDTH 17 0
BBX 16 22 0 -2
BITMAP
0006AFF0
00795510
01D04000
07D00010
07E00140
07900004
03015501
0A040041
2D101410
3D10FD10
7D10FD10
7D10BD10
7D10BD10
7D10BD10
7D10BD10
7D10BD10
7E040001
7F015501
3F800004
2FFA56A0
0FFFFF80
01BFE900
ENDCHAR
STARTCHAR ocircumflex
ENCODING 244
SWIDTH 837 0
DWIDTH 17 0
BBX 16 23 0 -2
BITMAP
00005400
00000040
00505410
01D00000
07E6FE50
07F95590
07800004
02015501
0A040041
2D101410
3D10FD10
7D10FD10
7D10BD10
7D10BD10
7D10BD10
7D10BD10
7D10BD10
7E040001
7F015501
3F800004
2FFA56A0
0FFFFF80
01BFE900
ENDCHAR
STARTCHAR otilde
ENCODING 245
SWIDTH 837 0
DWIDTH 17 0
BBX 16 22 0 -2
BITMAP
00055450
00500010
01D15010
07D00110
07E55010
07F95550
03815504
0A040041
2E101410
3D10FD10
7D10FD10
7D10BD10
7D10BD10
7D10BD10
7D10BD10
7D10BD10
7E040001
7F015501
3F800004
2FFA56A0
0FFFFF80
01BFE900
ENDCHAR
STARTCHAR odieresis
ENCODING 246
SWIDTH 837 0
DWIDTH 17 0
BBX 16 22 0 -2
BITMAP
00154550
01C03404
07C03044
0BC03004
0BC03400
0BFEAAA0
07915504
0B040041
2E101411
3D10FD10
7D10FD10
7D10BD10
7D10BD10
7D10BD10
7D10BD10
7D10BD10
7E040001
7E015501
3F800004
2FFA56A0
0FFFFF80
01BFE900
ENDCHAR
STARTCHAR divide
ENCODING 247
SWIDTH 834 0
DWIDTH 17 0
BBX 15 16 1 -2
BITMAP
00055400
00240100
00B44100
01F40100
01F95400
05AAA554
18000004
B8155504
F8000000
FFFEAFE0
FFF40340
01F40100
01F40100
01F95400
01FFE000
01FF8000
ENDCHAR
STARTCHAR oslash
ENCODING 248
SWIDTH 837 0
DWIDTH 17 0
BBX 16 20 0 -3
BITMAP
00000154
00000500
00155404
00415541
06040001
1E10A010
3D11D010
7D11C010
7D118110
7D111210
7D100A10
7D104E10
7D101D10
7E010011
7F015501
7F800004
3F8056A0
1F95FF80
0FFFE900
1FE00000
ENDCHAR
STARTCHAR ugrave
ENCODING 249
SWIDTH 846 0
DWIDTH 17 0
BBX 16 22 0 -2
BITMAP
002A9400
00D015A0
03D15510
07D00010
07FE9500
0655FE55
0A00BD00
3E107D10
7E10BD10
7E10BD10
7E10BD10
7E10BD10
7E10BD10
7E10BD10
7E10BD10
7E006810
7E040000
7F015501
3F800004
2FFA55A0
0BFFFF80
01BFE900
ENDCHAR
STARTCHAR uacute
ENCODING 250
SWIDTH 846 0
DWIDTH 17 0
BBX 16 22 0 -2
BITMAP
000056A0
001A5004
00A05504
02E00000
03F15A80
0255FE55
0A005D00
3E107D10
7E10BD10
7E10BD10
7E10BD10
7E10BD10
7E10BD10
7E10BD10
7E10BD10
7E006810
7E040000
7F015501
3F800004
2FFA55A0
0BFFFF80
01BFE900
ENDCHAR
STARTCHAR ucircumflex
ENCODING 251
SWIDTH 846 0
DWIDTH 17 0
BBX 16 23 0 -2
BITMAP
00001400
00000000
00105400
01E00000
03E1BE40
07FFFFF0
0655FE55
0E006D00
3E107D10
7E10BD10
7E10BD10
7E10BD10
7E10BD10
7E10BD10
7E10BD10
7E10BD10
7E005410
7E040000
7F015501
3F800004
2FFA55A0
0BFFFF80
01BFE900
ENDCHAR
STARTCHAR udieresis
ENCODING 252
SWIDTH 846 0
DWIDTH 17 0
BBX 16 22 0 -2
BITMAP
00154550
00C02404
07C12444
0BC02404
0BD03400
0BABFFAA
1E00FD00
3E007D00
7E107D10
7E10BD10
7E10BD10
7E10BD10
7E10BD10
7E10BD10
7E10BD10
7E006810
7E040010
7F015501
3F800004
2FFA55A0
0BFFFF80
01BFE900
ENDCHAR
STARTCHAR yacute
ENCODING 253
SWIDTH 805 0
DWIDTH 16 0
BBX 16 22 0 -2
BITMAP
00005AA0
00295010
01D15510
07D00000
07D15A40
0556FD55
1D016C01
7D117C11
BD11BC11
BD11BC11
BD10B811
BD047041
BF040004
7F810000
2FE05010
0FF41040
07FC1100
02FC0100
00FC0100
00BE5500
00BFF800
00BFD000
ENDCHAR
STARTCHAR thorn
ENCODING 254
SWIDTH 792 0
DWIDTH 16 0
BBX 15 17 1 -2
BITMAP
05550000
28010000
B8005540
F8000010
F8155404
F8000104
F802E004
F802F004
F802E004
F8000104
F8155400
F8000010
F8015640
F802FD00
FD57E000
FFF40000
FF800000
ENDCHAR
STARTCHAR ydieresis
ENCODING 255
SWIDTH 805 0
DWIDTH 16 0
BBX 16 22 0 -2
BITMAP
00554550
01806000
0B847100
0F807000
0F807000
0FABFFAA
1D01FC01
7D017C01
BD11BC11
BD11BC11
BD10B811
BD007440
BF040000
7F810100
2FD05000
0FF41040
07FC1000
02FC0100
00FC0100
00BE5500
00BFF800
00BFD000
ENDCHAR
STARTCHAR Amacron
ENCODING 256
SWIDTH 830 0
DWIDTH 17 0
BBX 16 22 0 -2
BITMAP
00155550
00500010
01D05510
07D00010
07E00010
07FEAAD0
07F00010
01D05410
03C10104
07803444
0B447840
0F00B811
2E105411
3D100011
7D155551
7D100011
7D11FD11
7D01FD01
7D01BD01
7E557E55
7FF87FF8
7FD07FE0
ENDCHAR
STARTCHAR amacron
ENCODING 257
SWIDTH 830 0
DWIDTH 17 0
BBX 16 22 0 -2
BITMAP
00155550
00500010
01D05510
07D00010
07E00010
07FEAAD0
07F00010
01D05410
03C10104
07803444
0B447840
0F00B811
2E105411
3D100011
7D155551
7D100011
7D11FD11
7D01FD01
7D01BD01
7E557E55
7FF87FF8
7FD07FE0
ENDCHAR
STARTCHAR Abreve
ENCODING 258
SWIDTH 830 0
DWIDTH 17 0
BBX 16 23 0 -2
BITMAP
00154550
00905800
02D06400
07D10040
0BE05400
07F90100
07FAAA90
01F00010
01D05410
03C10104
07803444
0B447841
0F00B811
2E105411
3D100011
7D155551
7D100011
7D11FD11
7D01FD01
7D01BD01
7E557E55
7FF87FF8
7FD07FD0
ENDCHAR
STARTCHAR abreve
ENCODING 259
SWIDTH 830 0
DWIDTH 17 0
BBX 16 23 0 -2
BITMAP
00154550
00905800
02D06400
07D10040
0BE05400
07F90100
07FAAA90
01F00010
01D05410
03C10104
07803444
0B447841
0F00B811
2E105411
3D100011
7D155551
7D100011
7D11FD11
7D01FD01
7D01BD01
7E557E55
7FF87FF8
7FD07FD0
ENDCHAR
STARTCHAR Aogonek
ENCODING 260
SWIDTH 830 0
DWIDTH 17 0
BBX 16 21 0 -6
BITMAP
00155540
00600010
01D05400
03C10104
07803444
0B047841
0E00B811
2E105411
3D100011
7D155551
7D100011
7D11FD11
7D01FD11
7D01BD01
7E557C41
7FF87C45
7FD0BC51
0000BC01
0000FE55
0000BFF8
00006FE0
ENDCHAR
STARTCHAR aogonek
ENCODING 261
SWIDTH 830 0
DWIDTH 17 0
BBX 16 21 0 -6
BITMAP
00155540
00600010
01D05400
03C10104
07803444
0B047841
0E00B811
2E105411
3D100011
7D155551
7D100011
7D11FD11
7D01FD11
7D01BD01
7E557C41
7FF87C45
7FD0BC51
0000BC01
0000FE55
0000BFF8
00006FE0
ENDCHAR
STARTCHAR Cacute
ENCODING 262
SWIDTH 728 0
DWIDTH 15 0
BBX 15 22 0 -2
BITMAP
000056A0
00295004
00A05504
03E00000
07E15A80
07E55550
03400004
02015504
0E000000
2D10BFD0
3D10FF40
7D109400
7D104000
7D104000
7D104000
7D105550
7E000004
7F015504
3F800004
2FF95550
1FFFFF80
02FFFE00
ENDCHAR
STARTCHAR cacute
ENCODING 263
SWIDTH 728 0
DWIDTH 15 0
BBX 15 22 0 -2
BITMAP
000056A0
00295004
00A05504
03E00000
07E15A80
07E55550
03400004
02015504
0E000000
2D10BFD0
3D10FF40
7D109400
7D104000
7D104000
7D104000
7D105550
7E000004
7F015504
3F800004
2FF95550
1FFFFF80
02FFFE00
ENDCHAR
STARTCHAR Ccircumflex
ENCODING 264
SWIDTH 728 0
DWIDTH 15 0
BBX 15 23 0 -2
BITMAP
00005000
00040140
00405410
01C00010
07C16410
0BEFFF90
0BE55550
0B400004
06015504
0E000000
2D10BFD0
7D10FF40
7D109400
7D104000
7D104000
7D104000
7D105550
7E000004
7F015504
3F800004
2FF95550
1FFFFF80
02FFFE00
ENDCHAR
STARTCHAR ccircumflex
ENCODING 265
SWIDTH 728 0
DWIDTH 15 0
BBX 15 23 0 -2
BITMAP
00005000
00040140
00405410
01C00010
07C16410
0BEFFF90
0BE55550
0B400004
06015504
0E000000
2D10BFD0
7D10FF40
7D109400
7D104000
7D104000
7D104000
7D105550
7E000004
7F015504
3F800004
2FF95550
1FFFFF80
02FFFE00
ENDCHAR
STARTCHAR Cdotaccent
ENCODING 266
SWIDTH 728 0
DWIDTH 15 0
BBX 15 22 0 -2
BITMAP
00015500
00080100
007C1100
00BC0100
00BD0000
00A55550
00400004
06015504
1E000000
3D10BFD0
7D10FF40
7D109400
7D104000
7D104000
7D104000
7D105550
7E000004
7F015504
3F800004
2FF95550
1FFFFF80
02FFFE00
ENDCHAR
STARTCHAR cdotaccent
ENCODING 267
SWIDTH 728 0
DWIDTH 15 0
BBX 15 22 0 -2
BITMAP
00015500
00080100
007C1100
00BC0100
00BD0000
00A55550
00400004
06015504
1E000000
3D10BFD0
7D10FF40
7D109400
7D104000
7D104000
7D104000
7D105550
7E000004
7F015504
3F800004
2FF95550
1FFFFF80
02FFFE00
ENDCHAR
STARTCHAR Ccaron
ENCODING 268
SWIDTH 728 0
DWIDTH 15 0
BBX 15 23 0 -2
BITMAP
00100050
00401410
02C00010
0BC05400
0BE00000
0BFE4600
0BE55550
01400004
02015504
1E000000
3D10BFD0
7D10FF40
7D109400
7D104000
7D104000
7D104000
7D105550
7E000004
7F015504
3F800004
2FF95550
1FFFFF80
02FFFE00
ENDCHAR
STARTCHAR ccaron
ENCODING 269
SWIDTH 728 0
DWIDTH 15 0
BBX 15 23 0 -2
BITMAP
00100050
00401410
02C00010
0BC05400
0BE00000
0BFE4600
0BE55550
01400004
02015504
1E000000
3D10BFD0
7D10FF40
7D109400
7D104000
7D104000
7D104000
7D105550
7E000004
7F015504
3F800004
2FF95550
1FFFFF80
02FFFE00
ENDCHAR
STARTCHAR Dcaron
ENCODING 270
SWIDTH 846 0
DWIDTH 17 0
BBX 16 23 1 -2
BITMAP
00100140
00405400
07800000
0F815000
1FD00000
1FFD1900
08000150
28000004
B8155504
F8000041
F802A441
F802F841
F802F841
F801F841
F801F841
F801F841
F801A041
F8000040
F8155504
F8000000
FD555590
FFFFFE00
FFFFE400
ENDCHAR
STARTCHAR dcaron
ENCODING 271
SWIDTH 846 0
DWIDTH 17 0
BBX 16 23 1 -2
BITMAP
00100140
00405400
07800000
0F815000
1FD00000
1FFD1900
08000150
28000004
B8155504
F8000041
F802A441
F802F841
F802F841
F801F841
F801F841
F801F841
F801A041
F8000040
F8155504
F8000000
FD555590
FFFFFE00
FFFFE400
ENDCHAR
STARTCHAR Dcroat
ENCODING 272
SWIDTH 856 0
DWIDTH 17 0
BBX 17 17 0 -2
BITMAP
0155555400
0B00000100
2F05554000
3F04001000
3F04BE0040
3E046E0040
38040E0040
78150E0040
F8040E0040
FD046E0040
FF047E0040
BF04001040
3F05554000
3F00000100
3F55556400
3FFFFFD000
2FFFFE0000
ENDCHAR
STARTCHAR dcroat
ENCODING 273
SWIDTH 856 0
DWIDTH 17 0
BBX 17 17 0 -2
BITMAP
0155555400
0B00000100
2F05554000
3F04001000
3F04BE0040
3E046E0040
38040E0040
78150E0040
F8040E0040
FD046E0040
FF047E0040
BF04001040
3F05554000
3F00000100
3F55556400
3FFFFFD000
2FFFFE0000
ENDCHAR
STARTCHAR Emacron
ENCODING 274
SWIDTH 754 0
DWIDTH 15 0
BBX 14 22 1 -2
BITMAP
00555500
02000040
0F055040
3F000040
3F000000
3D555550
38000010
B8155410
F8000010
F803FF80
F801AA00
F8000100
F8155100
F8000100
F802F800
F802A540
F8000010
F8155410
F8000010
FD555540
FFFFFF40
FFFFFD00
ENDCHAR
STARTCHAR emacron
ENCODING 275
SWIDTH 754 0
DWIDTH 15 0
BBX 14 22 1 -2
BITMAP
00555500
02000040
0F055040
3F000040
3F000000
3D555550
38000010
B8155410
F8000010
F803FF80
F801AA00
F8000100
F8155100
F8000100
F802F800
F802A540
F8000010
F8155410
F8000010
FD555540
FFFFFF40
FFFFFD00
ENDCHAR
STARTCHAR Ebreve
ENCODING 276
SWIDTH 754 0
DWIDTH 15 0
BBX 14 23 1 -2
BITMAP
00541540
02019040
0F029040
2F100400
3F455000
2FE40400
2D555550
28000010
B8155410
F8000010
F803FF80
F801AA00
F8000100
F8155100
F8000100
F802F800
F802A540
F8000010
F8155410
F8000010
FD555540
FFFFFF40
FFFFFD00
ENDCHAR
STARTCHAR ebreve
ENCODING 277
SWIDTH 754 0
DWIDTH 15 0
BBX 14 23 1 -2
BITMAP
00541540
02019040
0F029040
2F100400
3F455000
2FE40400
2D555550
28000010
B8155410
F8000010
F803FF80
F801AA00
F8000100
F8155100
F8000100
F802F800
F802A540
F8000010
F8155410
F8000010
FD555540
FFFFFF40
FFFFFD00
ENDCHAR
STARTCHAR Edotaccent
ENCODING 278
SWIDTH 754 0
DWIDTH 15 0
BBX 14 22 1 -2
BITMAP
00155000
00A00400
02E10400
07E00400
07E00000
05555550
28000010
F8155410
F8000010
F803FF80
F801AA00
F8000100
F8155100
F8000100
F802F800
F802A540
F8000010
F8155410
F8000010
FD555540
FFFFFF40
FFFFFD00
ENDCHAR
STARTCHAR edotaccent
ENCODING 279
SWIDTH 754 0
DWIDTH 15 0
BBX 14 22 1 -2
BITMAP
00155000
00A00400
02E10400
07E00400
07E00000
05555550
28000010
F8155410
F8000010
F803FF80
F801AA00
F8000100
F8155100
F8000100
F802F800
F802A540
F8000010
F8155410
F8000010
FD555540
FFFFFF40
FFFFFD00
ENDCHAR
STARTCHAR Eogonek
ENCODING 280
SWIDTH 754 0
DWIDTH 15 0
BBX 14 21 1 -6
BITMAP
05555550
28000010
B8155410
F8000010
F803FF80
F801AA00
F8000100
F8155100
F8000100
F802F800
F802A540
F8000010
F8155410
F8000410
FD554450
FFFF8450
FFFF4410
001F8010
001FE540
001FFF40
000BFD00
ENDCHAR
STARTCHAR eogonek
ENCODING 281
SWIDTH 754 0
DWIDTH 15 0
BBX 14 21 1 -6
BITMAP
05555550
28000010
B8155410
F8000010
F803FF80
F801AA00
F8000100
F8155100
F8000100
F802F800
F802A540
F8000010
F8155410
F8000410
FD554450
FFFF8450
FFFF4410
001F8010
001FE540
001FFF40
000BFD00
ENDCHAR
STARTCHAR Ecaron
ENCODING 282
SWIDTH 754 0
DWIDTH 15 0
BBX 14 23 1 -2
BITMAP
00400540
01005040
0B000040
2F015000
2F800000
2FF81800
2D555550
28000010
B8155410
F8000010
F803FF80
F801AA00
F8000100
F8155100
F8000100
F802F800
F802A540
F8000010
F8155410
F8000010
FD555540
FFFFFF40
FFFFFD00
ENDCHAR
STARTCHAR ecaron
ENCODING 283
SWIDTH 754 0
DWIDTH 15 0
BBX 14 23 1 -2
BITMAP
00400540
01005040
0B000040
2F015000
2F800000
2FF81800
2D555550
28000010
B8155410
F8000010
F803FF80
F801AA00
F8000100
F8155100
F8000100
F802F800
F802A540
F8000010
F8155410
F8000010
FD555540
FFFFFF40
FFFFFD00
ENDCHAR
STARTCHAR Gcircumflex
ENCODING 284
SWIDTH 808 0
DWIDTH 16 0
BBX 16 23 0 -2
BITMAP
00001400
00000050
00105404
00A00004
02E06904
03FBFFE0
03E40004
03400004
02015504
0E000004
2D10BFD0
3D10FF40
7D109954
7D105801
7D10BC01
7D10FC11
7D106411
7E040011
7F015541
3F800001
2FF95554
1FFFFFF4
02FFFFD0
ENDCHAR
STARTCHAR gcircumflex
ENCODING 285
SWIDTH 808 0
DWIDTH 16 0
BBX 16 23 0 -2
BITMAP
00001400
00000050
00105404
00A00004
02E06904
03FBFFE0
03E40004
03400004
02015504
0E000004
2D10BFD0
3D10FF40
7D109954
7D105801
7D10BC01
7D10FC11
7D106411
7E040011
7F015541
3F800001
2FF95554
1FFFFFF4
02FFFFD0
ENDCHAR
STARTCHAR Gbreve
ENCODING 286
SWIDTH 808 0
DWIDTH 16 0
BBX 16 23 0 -2
BITMAP
00154150
00505C04
01D02804
07E10040
07F05500
07F90000
03E55550
01400004
02015504
1E000004
3D10BFD0
7D10FF40
7D109954
7D105801
7D10BC01
7D10FC11
7D106411
7E040011
7F015541
3F800001
2FF95554
1FFFFFF4
02FFFFD0
ENDCHAR
STARTCHAR gbreve
ENCODING 287
SWIDTH 808 0
DWIDTH 16 0
BBX 16 23 0 -2
BITMAP
00154150
00505C04
01D02804
07E10040
07F05500
07F90000
03E55550
01400004
02015504
1E000004
3D10BFD0
7D10FF40
7D109954
7D105801
7D10BC01
7D10FC11
7D106411
7E040011
7F015541
3F800001
2FF95554
1FFFFFF4
02FFFFD0
ENDCHAR
STARTCHAR Gdotaccent
ENCODING 288
SWIDTH 808 0
DWIDTH 16 0
BBX 16 22 0 -2
BITMAP
00015500
000A0040
002E1040
007E0040
007E0000
00655550
00000004
06015504
1E000004
3D10BFD0
7D10FF40
7D109954
7D105801
7D10BC01
7D10FC11
7D106411
7E040011
7F015541
3F800001
2FF95554
1FFFFFF4
02FFFFD0
ENDCHAR
STARTCHAR gdotaccent
ENCODING 289
SWIDTH 808 0
DWIDTH 16 0
BBX 16 22 0 -2
BITMAP
00015500
000A0040
002E1040
007E0040
007E0000
00655550
00000004
06015504
1E000004
3D10BFD0
7D10FF40
7D109954
7D105801
7D10BC01
7D10FC11
7D106411
7E040011
7F015541
3F800001
2FF95554
1FFFFFF4
02FFFFD0
ENDCHAR
STARTCHAR Gcommaaccent
ENCODING 290
SWIDTH 808 0
DWIDTH 16 0
BBX 16 24 0 -9
BITMAP
00155550
00415504
06040004
1E105550
3D10FFD0
7D10FE00
7D104154
7D105801
7D10BC01
7D10FC11
7D106411
7E040011
7F015541
3FD00001
2FFFFFFD
1FFE00F4
02FD1490
002D0440
007E0440
007FA440
007E1100
002F5900
003FF000
003F8000
ENDCHAR
STARTCHAR gcommaaccent
ENCODING 291
SWIDTH 808 0
DWIDTH 16 0
BBX 16 24 0 -9
BITMAP
00155550
00415504
06040004
1E105550
3D10FFD0
7D10FE00
7D104154
7D105801
7D10BC01
7D10FC11
7D106411
7E040011
7F015541
3FD00001
2FFFFFFD
1FFE00F4
02FD1490
002D0440
007E0440
007FA440
007E1100
002F5900
003FF000
003F8000
ENDCHAR
STARTCHAR Hcircumflex
ENCODING 292
SWIDTH 859 0
DWIDTH 17 0
BBX 16 23 1 -2
BITMAP
00005000
00140140
00815010
02800010
0F819410
0FEFFF80
0D57F954
2801B801
F801F841
F801F841
F801F841
F801A441
F8000041
F8155541
F8000041
F8015441
F802F841
F802F841
F801F841
F801F801
FD55F954
FFF5FFF0
FF80FF80
ENDCHAR
STARTCHAR hcircumflex
ENCODING 293
SWIDTH 859 0
DWIDTH 17 0
BBX 16 23 1 -2
BITMAP
00005000
00140140
00815010
02800010
0F819410
0FEFFF80
0D57F954
2801B801
F801F841
F801F841
F801F841
F801A441
F8000041
F8155541
F8000041
F8015441
F802F841
F802F841
F801F841
F801F801
FD55F954
FFF5FFF0
FF80FF80
ENDCHAR
STARTCHAR Hbar
ENCODING 294
SWIDTH 879 0
DWIDTH 18 0
BBX 18 17 0 -2
BITMAP
0155415540
0B004A0040
2E04590040
3C04000010
7C15555410
BC04000010
FF04BE0040
FF04690040
7F04000040
3F05555040
3F04000040
3F04550040
3F04BE0040
3F00BE0040
3F557F5500
3FFD3FFD00
2FF42FE000
ENDCHAR
STARTCHAR hbar
ENCODING 295
SWIDTH 879 0
DWIDTH 18 0
BBX 18 17 0 -2
BITMAP
0155415540
0B004A0040
2E04590040
3C04000010
7C15555410
BC04000010
FF04BE0040
FF04690040
7F04000040
3F05555040
3F04000040
3F04550040
3F04BE0040
3F00BE0040
3F557F5500
3FFD3FFD00
2FF42FE000
ENDCHAR
STARTCHAR Itilde
ENCODING 296
SWIDTH 705 0
DWIDTH 14 0
BBX 14 22 0 -2
BITMAP
00155540
01400040
07054040
1F000040
2F554000
2E555550
2D000010
3D055410
7E504150
7FF04780
7FF04500
16F04400
02F04400
02F04400
02F04400
02A04140
09004010
2D155410
7D000010
7E555540
7FFFFF40
7FFFF800
ENDCHAR
STARTCHAR itilde
ENCODING 297
SWIDTH 705 0
DWIDTH 14 0
BBX 14 22 0 -2
BITMAP
00155540
01400040
07054040
1F000040
2F554000
2E555550
2D000010
3D055410
7E504150
7FF04780
7FF04500
16F04400
02F04400
02F04400
02F04400
02A04140
09004010
2D155410
7D000010
7E555540
7FFFFF40
7FFFF800
ENDCHAR
STARTCHAR Imacron
ENCODING 298
SWIDTH 705 0
DWIDTH 14 0
BBX 14 22 0 -2
BITMAP
00555540
02000040
0B055040
2F000040
2F400000
2FAAAA90
2D000010
2D055410
7E504150
7FF04780
7FF04500
16F04400
02F04400
02F04400
02F04400
02A04140
09004010
2D155410
7D000010
7E555540
7FFFFF40
7FFFF800
ENDCHAR
STARTCHAR imacron
ENCODING 299
SWIDTH 705 0
DWIDTH 14 0
BBX 14 22 0 -2
BITMAP
00555540
02000040
0B055040
2F000040
2F400000
2FAAAA90
2D000010
2D055410
7E504150
7FF04780
7FF04500
16F04400
02F04400
02F04400
02F04400
02A04140
09004010
2D155410
7D000010
7E555540
7FFFFF40
7FFFF800
ENDCHAR
STARTCHAR Ibreve
ENCODING 300
SWIDTH 705 0
DWIDTH 14 0
BBX 14 23 0 -2
BITMAP
00541540
0201A040
0F019040
2F100400
2F455000
2FE40400
1E555550
0D000010
7D055410
7E504150
7FF04780
7FF04500
16F04400
02F04400
02F04400
02F04400
02A04140
09004010
2D155410
7D000010
7E555540
7FFFFF40
7FFFF800
ENDCHAR
STARTCHAR ibreve
ENCODING 301
SWIDTH 705 0
DWIDTH 14 0
BBX 14 23 0 -2
BITMAP
00541540
0201A040
0F019040
2F100400
2F455000
2FE40400
1E555550
0D000010
7D055410
7E504150
7FF04780
7FF04500
16F04400
02F04400
02F04400
02F04400
02A04140
09004010
2D155410
7D000010
7E555540
7FFFFF40
7FFFF800
ENDCHAR
STARTCHAR Iogonek
ENCODING 302
SWIDTH 705 0
DWIDTH 14 0
BBX 14 21 0 -6
BITMAP
01555550
1D000010
7D055410
7E504150
7FF04780
7FF04500
16F04400
02F04400
02F04400
02F04400
02A04140
09004010
2D155410
7D000410
7E554450
7FFF4440
7FFF4410
001F8010
001FE540
001FFF40
000BFD00
ENDCHAR
STARTCHAR iogonek
ENCODING 303
SWIDTH 705 0
DWIDTH 14 0
BBX 14 21 0 -6
BITMAP
01555550
1D000010
7D055410
7E504150
7FF04780
7FF04500
16F04400
02F04400
02F04400
02F04400
02A04140
09004010
2D155410
7D000410
7E554450
7FFF4440
7FFF4410
001F8010
001FE540
001FFF40
000BFD00
ENDCHAR
STARTCHAR Idotaccent
ENCODING 304
SWIDTH 705 0
DWIDTH 14 0
BBX 14 22 0 -2
BITMAP
00055400
00300400
01F04400
02F00400
02F40000
01555550
1D000010
7D055410
7E504150
7FF04780
7FF04500
16F04400
02F04400
02F04400
02F04400
02A04140
09004010
2D155410
7D000010
7E555540
7FFFFF40
7FFFF800
ENDCHAR
STARTCHAR dotlessi
ENCODING 305
SWIDTH 705 0
DWIDTH 14 0
BBX 14 17 0 -2
BITMAP
01555550
1D000010
7D055410
7E504150
7FF04780
7FF04500
16F04400
02F04400
02F04400
02F04400
02A04140
09004010
2D155410
7D000010
7E555540
7FFFFF40
7FFFF800
ENDCHAR
STARTCHAR IJ
ENCODING 306
SWIDTH 844 0
DWIDTH 17 0
BBX 15 17 1 -2
BITMAP
05550554
28017400
F801F440
F802F440
F802F440
F802F440
F802F440
F802F440
FEABF440
FFE3F440
6A969040
18000044
78155404
F8000010
FD555580
FFFFFE00
FFFFE400
ENDCHAR
STARTCHAR ij
ENCODING 307
SWIDTH 844 0
DWIDTH 17 0
BBX 15 17 1 -2
BITMAP
05550554
28017400
F801F440
F802F440
F802F440
F802F440
F802F440
F802F440
FEABF440
FFE3F440
6A969040
18000044
78155404
F8000010
FD555580
FFFFFE00
FFFFE400
ENDCHAR
STARTCHAR Jcircumflex
ENCODING 308
SWIDTH 788 0
DWIDTH 16 0
BBX 17 23 0 -2
BITMAP
0000015000
0000000100
0002415040
000B000040
002F5BE540
002FFAAB40
002FB40400
0014B40400
0002F44400
0002F44400
0002F44400
0002F44400
0156F44400
0802F44400
7C02F44400
BC12F44400
BC10904400
BD10010400
BE01540400
7F40001000
7FF9568000
1FFFFE0000
06FFA40000
ENDCHAR
STARTCHAR jcircumflex
ENCODING 309
SWIDTH 788 0
DWIDTH 16 0
BBX 17 23 0 -2
BITMAP
0000015000
0000000100
0002415040
000B000040
002F5BE540
002FFAAB40
002FB40400
0014B40400
0002F44400
0002F44400
0002F44400
0002F44400
0156F44400
0802F44400
7C02F44400
BC12F44400
BC10904400
BD10010400
BE01540400
7F40001000
7FF9568000
1FFFFE0000
06FFA40000
ENDCHAR
STARTCHAR Kcommaaccent
ENCODING 310
SWIDTH 846 0
DWIDTH 17 0
BBX 16 24 1 -9
BITMAP
05551554
2801A104
B802C110
F8028410
F8010450
F8000004
F8155500
F8000041
F801A041
F802F441
F802F841
F801F841
F801F801
F801F801
FD55A554
FFF803E0
FFF45380
01F41100
01F41100
01FE9100
01F84400
00BD6400
00FFC000
00FE0000
ENDCHAR
STARTCHAR kcommaaccent
ENCODING 311
SWIDTH 846 0
DWIDTH 17 0
BBX 16 24 1 -9
BITMAP
05551554
2801A104
B802C110
F8028410
F8010450
F8000004
F8155500
F8000041
F801A041
F802F441
F802F841
F801F841
F801F801
F801F801
FD55A554
FFF803E0
FFF45380
01F41100
01F41100
01FE9100
01F84400
00BD6400
00FFC000
00FE0000
ENDCHAR
STARTCHAR kgreenlandic
ENCODING 312
SWIDTH 846 0
DWIDTH 17 0
BBX 16 17 1 -2
BITMAP
05550554
28016004
B802D100
F802C110
F8024410
F8010450
F8000004
F8155500
F8000041
F802A441
F802F441
F802F841
F801F841
F801F801
FD55F954
FFF5FFE0
FF80FF80
ENDCHAR
STARTCHAR Lacute
ENCODING 313
SWIDTH 795 0
DWIDTH 16 0
BBX 15 22 1 -2
BITMAP
0056A800
0A940100
28150100
F8000000
F856A000
F8038000
F8010000
B8010000
F8010000
F8010000
F8010000
F8010550
F8013004
F801F004
F802F044
F801A044
F8000044
F8155504
F8000004
FD555550
FFFFFFD0
FFFFFE00
ENDCHAR
STARTCHAR lacute
ENCODING 314
SWIDTH 795 0
DWIDTH 16 0
BBX 15 22 1 -2
BITMAP
0056A800
0A940100
28150100
F8000000
F856A000
F8038000
F8010000
B8010000
F8010000
F8010000
F8010000
F8010550
F8013004
F801F004
F802F044
F801A044
F8000044
F8155504
F8000004
FD555550
FFFFFFD0
FFFFFE00
ENDCHAR
STARTCHAR Lcommaaccent
ENCODING 315
SWIDTH 795 0
DWIDTH 16 0
BBX 15 24 1 -9
BITMAP
05550000
28010000
B8010000
F8010000
F8010000
F8010000
F8010550
F8013004
F801F004
F802F044
F801A044
F8000044
F8155504
F8000004
FFFFFFF4
FFF403D0
FFF44200
01F41000
02F41000
02FE5400
01F84400
00F96000
01FF8000
01FD0000
ENDCHAR
STARTCHAR lcommaaccent
ENCODING 316
SWIDTH 795 0
DWIDTH 16 0
BBX 15 24 1 -9
BITMAP
05550000
28010000
B8010000
F8010000
F8010000
F8010000
F8010550
F8013004
F801F004
F802F044
F801A044
F8000044
F8155504
F8000004
FFFFFFF4
FFF403D0
FFF44200
01F41000
02F41000
02FE5400
01F84400
00F96000
01FF8000
01FD0000
ENDCHAR
STARTCHAR Lcaron
ENCODING 317
SWIDTH 795 0
DWIDTH 16 0
BBX 15 17 1 -2
BITMAP
05551550
2801B004
B802E110
F802D010
F802D010
F802FA80
F802FA50
F802B004
F801F004
F802F044
F801A044
F8000044
F8155504
F8000004
FD555550
FFFFFFD0
FFFFFE00
ENDCHAR
STARTCHAR lcaron
ENCODING 318
SWIDTH 795 0
DWIDTH 16 0
BBX 15 17 1 -2
BITMAP
05551550
2801B004
B802E110
F802D010
F802D010
F802FA80
F802FA50
F802B004
F801F004
F802F044
F801A044
F8000044
F8155504
F8000004
FD555550
FFFFFFD0
FFFFFE00
ENDCHAR
STARTCHAR Ldot
ENCODING 319
SWIDTH 795 0
DWIDTH 16 0
BBX 15 17 1 -2
BITMAP
05550000
28010000
B8010000
F8010550
F8016004
F802E004
F802E004
F802FAA0
F802FA90
F802B004
F801A004
F8000044
F8155504
F8000004
FD555554
FFFFFFD0
FFFFFE00
ENDCHAR
STARTCHAR ldot
ENCODING 320
SWIDTH 795 0
DWIDTH 16 0
BBX 15 17 1 -2
BITMAP
05550000
28010000
B8010000
F8010550
F8016004
F802E004
F802E004
F802FAA0
F802FA90
F802B004
F801A004
F8000044
F8155504
F8000004
FD555554
FFFFFFD0
FFFFFE00
ENDCHAR
STARTCHAR Lslash
ENCODING 321
SWIDTH 805 0
DWIDTH 16 0
BBX 16 17 0 -2
BITMAP
01554000
0B004000
2F044000
3F044000
3F041400
38040400
38150555
F8041C01
FD04BC01
FF04BC11
FF046811
3F040011
3F055541
3F000001
3F555555
3FFFFFF4
2FFFFFD0
ENDCHAR
STARTCHAR lslash
ENCODING 322
SWIDTH 805 0
DWIDTH 16 0
BBX 16 17 0 -2
BITMAP
01554000
0B004000
2F044000
3F044000
3F041400
38040400
38150555
F8041C01
FD04BC01
FF04BC11
FF046811
3F040011
3F055541
3F000001
3F555555
3FFFFFF4
2FFFFFD0
ENDCHAR
STARTCHAR Nacute
ENCODING 323
SWIDTH 853 0
DWIDTH 17 0
BBX 16 22 1 -2
BITMAP
00015A90
00694010
02C15410
0B800000
0FC56A00
095BF954
28017801
B850B841
F8443841
F8410441
F8400041
F8400041
F8410041
F8420441
F843C141
F843E041
F843F441
F843F801
F802F801
FD55F954
FFF1FFE0
FF80FF80
ENDCHAR
STARTCHAR nacute
ENCODING 324
SWIDTH 853 0
DWIDTH 17 0
BBX 16 22 1 -2
BITMAP
00015A90
00694010
02C15410
0B800000
0FC56A00
095BF954
28017801
B850B841
F8443841
F8410441
F8400041
F8400041
F8410041
F8420441
F843C141
F843E041
F843F441
F843F801
F802F801
FD55F954
FFF1FFE0
FF80FF80
ENDCHAR
STARTCHAR Ncommaaccent
ENCODING 325
SWIDTH 853 0
DWIDTH 17 0
BBX 16 24 1 -9
BITMAP
05551954
2811F801
B8447841
F8401841
F8400041
F8400041
F8401041
F8420441
F8438141
F843E041
F843F441
F843F841
F802F801
F801F801
FD55A554
FFF803E0
FFF85380
01F81100
01F81100
01FE9100
01F84400
00BD6400
00FFD000
00FE0000
ENDCHAR
STARTCHAR ncommaaccent
ENCODING 326
SWIDTH 853 0
DWIDTH 17 0
BBX 16 24 1 -9
BITMAP
05551954
2811F801
B8447841
F8401841
F8400041
F8400041
F8401041
F8420441
F8438141
F843E041
F843F441
F843F841
F802F801
F801F801
FD55A554
FFF803E0
FFF85380
01F81100
01F81100
01FE9100
01F84400
00BD6400
00FFD000
00FE0000
ENDCHAR
STARTCHAR Ncaron
ENCODING 327
SWIDTH 853 0
DWIDTH 17 0
BBX 16 23 1 -2
BITMAP
00000140
01405040
07400040
1F415000
1FD00000
1FF91900
095BE954
28027801
B850B841
F8443841
F8410441
F8400041
F8400041
F8410041
F8420441
F843C141
F843E041
F843F441
F843F801
F802F801
FD55F954
FFF1FFE0
FF80FF80
ENDCHAR
STARTCHAR ncaron
ENCODING 328
SWIDTH 853 0
DWIDTH 17 0
BBX 16 23 1 -2
BITMAP
00000140
01405040
07400040
1F415000
1FD00000
1FF91900
095BE954
28027801
B850B841
F8443841
F8410441
F8400041
F8400041
F8410041
F8420441
F843C141
F843E041
F843F441
F843F801
F802F801
FD55F954
FFF1FFE0
FF80FF80
ENDCHAR
STARTCHAR napostrophe
ENCODING 329
SWIDTH 853 0
DWIDTH 17 0
BBX 17 25 0 -2
BITMAP
0155000000
0500400000
1D14400000
7D04400000
7D04400000
7FA4000000
7E10000000
2E00000000
3FAA02AA00
3E004E0040
3E143E1040
3E110E1040
3E10451040
3E10001040
3E10001040
3E10401040
3E10811040
3E10F05040
3E10F81040
3E10FD1040
3E10FE0040
3E00BE0040
3F557E5500
3FFC7FF800
3FE03FE000
ENDCHAR
STARTCHAR Eng
ENCODING 330
SWIDTH 846 0
DWIDTH 17 0
BBX 16 19 0 -4
BITMAP
00155550
00415504
02040001
1E000010
3E10BD10
3E10FD10
7E10FD10
7E10BD10
7E10BD10
7E10BD10
7E10BD10
7E10BD10
7E10B910
7E009011
7F55D041
7FFFD005
3FE7FAA0
0007FF80
0007F900
ENDCHAR
STARTCHAR eng
ENCODING 331
SWIDTH 846 0
DWIDTH 17 0
BBX 16 19 0 -4
BITMAP
00155550
00415504
02040001
1E000010
3E10BD10
3E10FD10
7E10FD10
7E10BD10
7E10BD10
7E10BD10
7E10BD10
7E10BD10
7E10B910
7E009011
7F55D041
7FFFD005
3FE7FAA0
0007FF80
0007F900
ENDCHAR
STARTCHAR Omacron
ENCODING 332
SWIDTH 837 0
DWIDTH 17 0
BBX 16 22 0 -2
BITMAP
00155550
00900010
02D05500
07D00000
07E00010
07FEAA90
03915504
0B040041
2E101411
3D10FD10
7D10FD10
7D10BD10
7D10BD10
7D10BD10
7D10BD10
7D10BD10
7E040001
7E015501
3F800004
2FFA56A0
0FFFFF80
01BFE900
ENDCHAR
STARTCHAR omacron
ENCODING 333
SWIDTH 837 0
DWIDTH 17 0
BBX 16 22 0 -2
BITMAP
00155550
00900010
02D05500
07D00000
07E00010
07FEAA90
03915504
0B040041
2E101411
3D10FD10
7D10FD10
7D10BD10
7D10BD10
7D10BD10
7D10BD10
7D10BD10
7E040001
7E015501
3F800004
2FFA56A0
0FFFFF80
01BFE900
ENDCHAR
STARTCHAR Obreve
ENCODING 334
SWIDTH 837 0
DWIDTH 17 0
BBX 16 23 0 -2
BITMAP
00154150
00905804
02D10044
07D05500
07E00010
07F90140
02FA5550
01815504
0B040041
2E101411
3D10FD10
7D10FD10
7D10BD10
7D10BD10
7D10BD10
7D10BD10
7D10BD10
7E040001
7E015501
3F800004
2FFA56A0
0FFFFF80
01BFE900
ENDCHAR
STARTCHAR obreve
ENCODING 335
SWIDTH 837 0
DWIDTH 17 0
BBX 16 23 0 -2
BITMAP
00154150
00905804
02D10044
07D05500
07E00010
07F90140
02FA5550
01815504
0B040041
2E101411
3D10FD10
7D10FD10
7D10BD10
7D10BD10
7D10BD10
7D10BD10
7D10BD10
7E040001
7E015501
3F800004
2FFA56A0
0FFFFF80
01BFE900
ENDCHAR
STARTCHAR Ohungarumlaut
ENCODING 336
SWIDTH 837 0
DWIDTH 17 0
BBX 16 24 0 -2
BITMAP
00055154
00241501
00B01D04
01F12C44
02E13C44
03D03804
07D07800
07FEAA90
03915504
0B040041
2E101411
3D10FD10
7D10FD10
7D10BD10
7D10BD10
7D10BD10
7D10BD10
7D10BD10
7E040001
7E015501
3F800004
2FFA56A0
0FFFFF80
01BFE900
ENDCHAR
STARTCHAR ohungarumlaut
ENCODING 337
SWIDTH 837 0
DWIDTH 17 0
BBX 16 24 0 -2
BITMAP
00055154
00241501
00B01D04
01F12C44
02E13C44
03D03804
07D07800
07FEAA90
03915504
0B040041
2E101411
3D10FD10
7D10FD10
7D10BD10
7D10BD10
7D10BD10
7D10BD10
7D10BD10
7E040001
7E015501
3F800004
2FFA56A0
0FFFFF80
01BFE900
ENDCHAR
STARTCHAR OE
ENCODING 338
SWIDTH 1115 0
DWIDTH 22 0
BBX 22 17 0 -2
BITMAP
001555555550
004000000010
060155555410
1E0414100010
3D10FC11FF80
7D10FC11AA00
7D10FC100040
7D10FC155040
7D10FC100000
7D10FC11FD00
7D106811A550
7E0400100010
7F0155555410
3F8000000010
3FF955555550
1FFFFFFFFF40
02FFFFFFFD00
ENDCHAR
STARTCHAR oe
ENCODING 339
SWIDTH 1115 0
DWIDTH 22 0
BBX 22 17 0 -2
BITMAP
001555555550
004000000010
060155555410
1E0414100010
3D10FC11FF80
7D10FC11AA00
7D10FC100040
7D10FC155040
7D10FC100000
7D10FC11FD00
7D106811A550
7E0400100010
7F0155555410
3F8000000010
3FF955555550
1FFFFFFFFF40
02FFFFFFFD00
ENDCHAR
STARTCHAR Racute
ENCODING 340
SWIDTH 843 0
DWIDTH 17 0
BBX 16 22 1 -2
BITMAP
0015AA80
01A54040
07455040
1F400000
1F456900
18000040
28000010
B8155400
F8000104
F802D104
F802E100
F8019110
F8000114
F8155500
F8000041
F802F801
F802F801
F802F801
F801F801
FD55FD55
FFF4FFF4
FF80FFC0
ENDCHAR
STARTCHAR racute
ENCODING 341
SWIDTH 843 0
DWIDTH 17 0
BBX 16 22 1 -2
BITMAP
0015AA80
01A54040
07455040
1F400000
1F456900
18000040
28000010
B8155400
F8000104
F802D104
F802E100
F8019110
F8000114
F8155500
F8000041
F802F801
F802F801
F802F801
F801F801
FD55FD55
FFF4FFF4
FF80FFC0
ENDCHAR
STARTCHAR Rcommaaccent
ENCODING 342
SWIDTH 843 0
DWIDTH 17 0
BBX 16 24 1 -9
BITMAP
05555540
28155410
B8000100
F8019104
F802E100
F802D110
F8000110
F8155504
F8000041
F8015001
F802F801
F802F801
F801F801
F801F801
FD55A954
FFF802F4
FFF85280
00F80100
01F80100
01FE9100
00FC4400
00BD6400
00FFD000
00BE0000
ENDCHAR
STARTCHAR rcommaaccent
ENCODING 343
SWIDTH 843 0
DWIDTH 17 0
BBX 16 24 1 -9
BITMAP
05555540
28155410
B8000100
F8019104
F802E100
F802D110
F8000110
F8155504
F8000041
F8015001
F802F801
F802F801
F801F801
F801F801
FD55A954
FFF802F4
FFF85280
00F80100
01F80100
01FE9100
00FC4400
00BD6400
00FFD000
00BE0000
ENDCHAR
STARTCHAR Rcaron
ENCODING 344
SWIDTH 843 0
DWIDTH 17 0
BBX 16 23 1 -2
BITMAP
00100140
00405000
03800000
0F815000
1FD00040
1FFD1A00
1EAAA900
18000010
78155410
F8000100
F802D104
F802E100
F8019110
F8000114
F8155500
F8000041
F802F801
F802F801
F802F801
F801F801
FD55FD55
FFF4FFF4
FF80FFC0
ENDCHAR
STARTCHAR rcaron
ENCODING 345
SWIDTH 843 0
DWIDTH 17 0
BBX 16 23 1 -2
BITMAP
00100140
00405000
03800000
0F815000
1FD00040
1FFD1A00
1EAAA900
18000010
78155410
F8000100
F802D104
F802E100
F8019110
F8000114
F8155500
F8000041
F802F801
F802F801
F802F801
F801F801
FD55FD55
FFF4FFF4
FF80FFC0
ENDCHAR
STARTCHAR Sacute
ENCODING 346
SWIDTH 750 0
DWIDTH 15 0
BBX 15 22 0 -2
BITMAP
00015A90
00694010
02815410
0B800000
0FC56A00
0FE55550
0F000010
06055510
1D100010
3D10FFD0
7D105A40
7D100010
7E015404
7F800104
7FFE9044
2FFFE044
09000004
2D155404
7D000010
7E555680
7FFFFE00
7FFFE400
ENDCHAR
STARTCHAR sacute
ENCODING 347
SWIDTH 750 0
DWIDTH 15 0
BBX 15 22 0 -2
BITMAP
00015A90
00694010
02815410
0B800000
0FC56A00
0FE55550
0F000010
06055510
1D100010
3D10FFD0
7D105A40
7D100010
7E015404
7F800104
7FFE9044
2FFFE044
09000004
2D155404
7D000010
7E555680
7FFFFE00
7FFFE400
ENDCHAR
STARTCHAR Scircumflex
ENCODING 348
SWIDTH 750 0
DWIDTH 15 0
BBX 15 23 0 -2
BITMAP
00005000
00140100
00415000
02800010
0F819010
1FEFFF80
1FE55550
0F000010
05055510
1D100010
3D10FFD0
7D105A40
7D100010
7E015404
7F800104
7FFE9044
2FFFE044
09000004
2D155404
7D000010
7E555680
7FFFFE00
7FFFE400
ENDCHAR
STARTCHAR scircumflex
ENCODING 349
SWIDTH 750 0
DWIDTH 15 0
BBX 15 23 0 -2
BITMAP
00005000
00140100
00415000
02800010
0F819010
1FEFFF80
1FE55550
0F000010
05055510
1D100010
3D10FFD0
7D105A40
7D100010
7E015404
7F800104
7FFE9044
2FFFE044
09000004
2D155404
7D000010
7E555680
7FFFFE00
7FFFE400
ENDCHAR
STARTCHAR Scedilla
ENCODING 350
SWIDTH 750 0
DWIDTH 15 0
BBX 15 20 0 -5
BITMAP
00155550
01000010
0A055510
2D100010
7D10FFD0
7D105A40
7D100010
7E015404
7F800104
7FFE9044
1FFFE044
09000004
2D155404
7D000010
7EA44680
7FF40900
7FF00400
01FFD000
02FF4000
01540000
ENDCHAR
STARTCHAR scedilla
ENCODING 351
SWIDTH 750 0
DWIDTH 15 0
BBX 15 20 0 -5
BITMAP
00155550
01000010
0A055510
2D100010
7D10FFD0
7D105A40
7D100010
7E015404
7F800104
7FFE9044
1FFFE044
09000004
2D155404
7D000010
7EA44680
7FF40900
7FF00400
01FFD000
02FF4000
01540000
ENDCHAR
STARTCHAR Scaron
ENCODING 352
SWIDTH 750 0
DWIDTH 15 0
BBX 15 23 0 -2
BITMAP
00100140
00401410
02800010
0B815000
0FD00000
0FFE0A00
0BE55550
01000010
05055510
1D100010
3D10FFD0
7D105A40
7D100010
7E015404
7F800104
7FFE9044
1FFFE044
09000004
2D155404
7D000010
7E555680
7FFFFE00
7FFFE400
ENDCHAR
STARTCHAR scaron
ENCODING 353
SWIDTH 750 0
DWIDTH 15 0
BBX 15 23 0 -2
BITMAP
00100140
00401410
02800010
0B815000
0FD00000
0FFE0A00
0BE55550
01000010
05055510
1D100010
3D10FFD0
7D105A40
7D100010
7E015404
7F800104
7FFE9044
1FFFE044
09000004
2D155404
7D000010
7E555680
7FFFFE00
7FFFE400
ENDCHAR
STARTCHAR Tcommaaccent
ENCODING 354
SWIDTH 756 0
DWIDTH 15 0
BBX 15 24 0 -9
BITMAP
05555554
2C155540
BC004000
FD544154
FFF842E0
BFF84280
01F84100
01F84100
01F84100
01F84100
01F84100
01F84100
01F80100
01F80100
01FFF800
01F80100
00F85100
00B80100
01F80100
01FE9100
01F84000
00BD5000
00FF8000
00FE0000
ENDCHAR
STARTCHAR tcommaaccent
ENCODING 355
SWIDTH 756 0
DWIDTH 15 0
BBX 15 24 0 -9
BITMAP
05555554
2C155540
BC004000
FD544154
FFF842E0
BFF84280
01F84100
01F84100
01F84100
01F84100
01F84100
01F84100
01F80100
01F80100
01FFF800
01F80100
00F85100
00B80100
01F80100
01FE9100
01F84000
00BD5000
00FF8000
00FE0000
ENDCHAR
STARTCHAR Tcaron
ENCODING 356
SWIDTH 756 0
DWIDTH 15 0
BBX 15 23 0 -2
BITMAP
00100140
00405410
03800010
0F815000
0FD00000
0FFD1900
09555554
2C000000
BC155540
FC004004
FFF842F4
FFF842D0
56F84100
01F84100
01F84100
01F84100
01F84100
01F84100
01F80100
01F80100
01F95400
01FFF400
00FF8000
ENDCHAR
STARTCHAR tcaron
ENCODING 357
SWIDTH 756 0
DWIDTH 15 0
BBX 15 23 0 -2
BITMAP
00100140
00405410
03800010
0F815000
0FD00000
0FFD1900
09555554
2C000000
BC155540
FC004004
FFF842F4
FFF842D0
56F84100
01F84100
01F84100
01F84100
01F84100
01F84100
01F80100
01F80100
01F95400
01FFF400
00FF8000
ENDCHAR
STARTCHAR Tbar
ENCODING 358
SWIDTH 756 0
DWIDTH 15 0
BBX 15 17 0 -2
BITMAP
05555554
2C000000
BC155540
FC004004
FFF442F4
FFF842D0
56A44150
02404010
0B455410
1F404010
2FE44280
2FF84200
1AF80100
01F80100
01F95400
01FFF400
00FF8000
ENDCHAR
STARTCHAR tbar
ENCODING 359
SWIDTH 756 0
DWIDTH 15 0
BBX 15 17 0 -2
BITMAP
05555554
2C000000
BC155540
FC004004
FFF442F4
FFF842D0
56A44150
02404010
0B455410
1F404010
2FE44280
2FF84200
1AF80100
01F80100
01F95400
01FFF400
00FF8000
ENDCHAR
STARTCHAR Utilde
ENCODING 360
SWIDTH 846 0
DWIDTH 17 0
BBX 16 22 0 -2
BITMAP
00055450
00200000
01E15000
03E00100
07E55000
0655FE55
0E00BD00
3E107D10
7E10BD10
7E10BD10
7E10BD10
7E10BD10
7E10BD10
7E10BD10
7E10BD10
7E006810
7E040000
7F015501
3F800004
2FFA55A0
0BFFFF80
01BFE900
ENDCHAR
STARTCHAR utilde
ENCODING 361
SWIDTH 846 0
DWIDTH 17 0
BBX 16 22 0 -2
BITMAP
00055450
00200000
01E15000
03E00100
07E55000
0655FE55
0E00BD00
3E107D10
7E10BD10
7E10BD10
7E10BD10
7E10BD10
7E10BD10
7E10BD10
7E10BD10
7E006810
7E040000
7F015501
3F800004
2FFA55A0
0BFFFF80
01BFE900
ENDCHAR
STARTCHAR Umacron
ENCODING 362
SWIDTH 846 0
DWIDTH 17 0
BBX 16 22 0 -2
BITMAP
00155550
00600000
01E05500
03E00000
07E00000
07ABFFAA
0600FD00
2E007D00
7E107D10
7E10BD10
7E10BD10
7E10BD10
7E10BD10
7E10BD10
7E10BD10
7E006810
7E040010
7F015501
3F800004
2FFA55A0
0FFFFF80
01BFE900
ENDCHAR
STARTCHAR umacron
ENCODING 363
SWIDTH 846 0
DWIDTH 17 0
BBX 16 22 0 -2
BITMAP
00155550
00600000
01E05500
03E00000
07E00000
07ABFFAA
0600FD00
2E007D00
7E107D10
7E10BD10
7E10BD10
7E10BD10
7E10BD10
7E10BD10
7E10BD10
7E006810
7E040010
7F015501
3F800004
2FFA55A0
0FFFFF80
01BFE900
ENDCHAR
STARTCHAR Ubreve
ENCODING 364
SWIDTH 846 0
DWIDTH 17 0
BBX 16 23 0 -2
BITMAP
00154150
00505804
02D10044
07E05500
07F00000
07F90100
0255FE55
0A00FD00
3E006D00
7E107D10
7E10BD10
7E10BD10
7E10BD10
7E10BD10
7E10BD10
7E10BD10
7E006810
7E040010
7F015501
3F800004
2FFA55A0
0FFFFF80
01BFE900
ENDCHAR
STARTCHAR ubreve
ENCODING 365
SWIDTH 846 0
DWIDTH 17 0
BBX 16 23 0 -2
BITMAP
00154150
00505804
02D10044
07E05500
07F00000
07F90100
0255FE55
0A00FD00
3E006D00
7E107D10
7E10BD10
7E10BD10
7E10BD10
7E10BD10
7E10BD10
7E10BD10
7E006810
7E040010
7F015501
3F800004
2FFA55A0
0FFFFF80
01BFE900
ENDCHAR
STARTCHAR Uring
ENCODING 366
SWIDTH 846 0
DWIDTH 17 0
BBX 16 26 0 -2
BITMAP
00015500
00145510
00610040
01D07844
03D07C44
07D11444
07E05500
07E00000
07F90000
0255FE55
0A00BD00
3E107D10
7E10BD10
7E10BD10
7E10BD10
7E10BD10
7E10BD10
7E10BD10
7E10BD10
7E00BD10
7E046410
7F015501
3F800004
2FFA55A0
0FFFFF80
01BFE900
ENDCHAR
STARTCHAR uring
ENCODING 367
SWIDTH 846 0
DWIDTH 17 0
BBX 16 26 0 -2
BITMAP
00015500
00145510
00610040
01D07844
03D07C44
07D11444
07E05500
07E00000
07F90000
0255FE55
0A00BD00
3E107D10
7E10BD10
7E10BD10
7E10BD10
7E10BD10
7E10BD10
7E10BD10
7E10BD10
7E00BD10
7E046410
7F015501
3F800004
2FFA55A0
0FFFFF80
01BFE900
ENDCHAR
STARTCHAR Uhungarumlaut
ENCODING 368
SWIDTH 846 0
DWIDTH 17 0
BBX 16 24 0 -2
BITMAP
00055054
00140601
00741D00
01F11D00
01E12C40
02E03800
03E07800
03ABFFAA
0600FD00
2E007D00
7E107D10
7E10BD10
7E10BD10
7E10BD10
7E10BD10
7E10BD10
7E10BD10
7E006810
7E040010
7F015501
3F800004
2FFA55A0
0FFFFF80
01BFE900
ENDCHAR
STARTCHAR uhungarumlaut
ENCODING 369
SWIDTH 846 0
DWIDTH 17 0
BBX 16 24 0 -2
BITMAP
00055054
00140601
00741D00
01F11D00
01E12C40
02E03800
03E07800
03ABFFAA
0600FD00
2E007D00
7E107D10
7E10BD10
7E10BD10
7E10BD10
7E10BD10
7E10BD10
7E10BD10
7E006810
7E040010
7F015501
3F800004
2FFA55A0
0FFFFF80
01BFE900
ENDCHAR
STARTCHAR Uogonek
ENCODING 370
SWIDTH 846 0
DWIDTH 17 0
BBX 16 21 0 -6
BITMAP
01554155
0A005D00
3E107D10
7E10BD10
7E10BD10
7E10BD10
7E10BD10
7E10BD10
7E10BD10
7E10BD10
7E006810
7E040011
3F015501
3F801005
2FFA11A4
1FFF1190
02FE1440
003F0040
003F9540
003FFE00
001FF400
ENDCHAR
STARTCHAR uogonek
ENCODING 371
SWIDTH 846 0
DWIDTH 17 0
BBX 16 21 0 -6
BITMAP
01554155
0A005D00
3E107D10
7E10BD10
7E10BD10
7E10BD10
7E10BD10
7E10BD10
7E10BD10
7E10BD10
7E006810
7E040011
3F015501
3F801005
2FFA11A4
1FFF1190
02FE1440
003F0040
003F9540
003FFE00
001FF400
ENDCHAR
STARTCHAR Wcircumflex
ENCODING 372
SWIDTH 931 0
DWIDTH 19 0
BBX 18 23 0 -2
BITMAP
0000150000
0001401000
0014150400
0074000400
01F4190400
01FAFFE800
0255FFE550
1E005BD010
3E0043D010
7E1047D110
7E1047D110
7E1056D110
7E10809110
7E10441110
7E10110110
7E10004110
7E00484110
7F040D1010
3F411E0400
3F802F0040
1FD57F9500
0FFF7FFD00
0BF82FE000
ENDCHAR
STARTCHAR wcircumflex
ENCODING 373
SWIDTH 931 0
DWIDTH 19 0
BBX 18 23 0 -2
BITMAP
0000150000
0001401000
0014150400
0074000400
01F4190400
01FAFFE800
0255FFE550
1E005BD010
3E0043D010
7E1047D110
7E1047D110
7E1056D110
7E10809110
7E10441110
7E10110110
7E10004110
7E00484110
7F040D1010
3F411E0400
3F802F0040
1FD57F9500
0FFF7FFD00
0BF82FE000
ENDCHAR
STARTCHAR Ycircumflex
ENCODING 374
SWIDTH 805 0
DWIDTH 16 0
BBX 16 23 0 -2
BITMAP
00005400
00050140
00505410
01C10110
07C01010
0BDBFE50
0956FD55
1D017C01
7D117C11
BD11BC11
BD11BC11
BD10B811
BD047041
BF040004
7F810000
2FE05010
0FF41040
07FC1100
02FC0100
00FC0100
00BE5500
00BFF800
00BFD000
ENDCHAR
STARTCHAR ycircumflex
ENCODING 375
SWIDTH 805 0
DWIDTH 16 0
BBX 16 23 0 -2
BITMAP
00005400
00050140
00505410
01C10110
07C01010
0BDBFE50
0956FD55
1D017C01
7D117C11
BD11BC11
BD11BC11
BD10B811
BD047041
BF040004
7F810000
2FE05010
0FF41040
07FC1100
02FC0100
00FC0100
00BE5500
00BFF800
00BFD000
ENDCHAR
STARTCHAR Ydieresis
ENCODING 376
SWIDTH 805 0
DWIDTH 16 0
BBX 16 22 0 -2
BITMAP
00554550
01806000
0B847100
0F807000
0F807000
0FABFFAA
1D01FC01
7D017C01
BD11BC11
BD11BC11
BD10B811
BD007440
BF040000
7F810100
2FD05000
0FF41040
07FC1000
02FC0100
00FC0100
00BE5500
00BFF800
00BFD000
ENDCHAR
STARTCHAR Zacute
ENCODING 377
SWIDTH 760 0
DWIDTH 15 0
BBX 15 22 0 -2
BITMAP
00015A90
00694010
02C15410
0BC00000
0FC56A40
0E555554
0E000004
3E055504
7E000004
7FFF4104
7FFD0410
15681040
00604100
01800000
02000000
09041554
2D100004
7D055504
BD000004
BE555554
BFFFFFD0
7FFFFF40
ENDCHAR
STARTCHAR zacute
ENCODING 378
SWIDTH 760 0
DWIDTH 15 0
BBX 15 22 0 -2
BITMAP
00015A90
00694010
02C15410
0BC00000
0FC56A40
0E555554
0E000004
3E055504
7E000004
7FFF4104
7FFD0410
15681040
00604100
01800000
02000000
09041554
2D100004
7D055504
BD000004
BE555554
BFFFFFD0
7FFFFF40
ENDCHAR
STARTCHAR Zdotaccent
ENCODING 379
SWIDTH 760 0
DWIDTH 15 0
BBX 15 22 0 -2
BITMAP
00055400
00180100
00B84100
00F80100
00F80000
01555554
0A000004
3E055504
7E000004
7FFF4104
7FFD0410
15681040
00604100
01800000
02000000
09041554
2D100004
7D055504
BD000004
BE555554
BFFFFFD0
7FFFFF40
ENDCHAR
STARTCHAR zdotaccent
ENCODING 380
SWIDTH 760 0
DWIDTH 15 0
BBX 15 22 0 -2
BITMAP
00055400
00180100
00B84100
00F80100
00F80000
01555554
0A000004
3E055504
7E000004
7FFF4104
7FFD0410
15681040
00604100
01800000
02000000
09041554
2D100004
7D055504
BD000004
BE555554
BFFFFFD0
7FFFFF40
ENDCHAR
STARTCHAR Zcaron
ENCODING 381
SWIDTH 760 0
DWIDTH 15 0
BBX 15 23 0 -2
BITMAP
00100140
00405410
02800010
0F815000
0FD00000
0FFD0900
0A555554
0A000004
3E055504
7E000004
7FFF4104
3FFD0410
15681040
00604100
01800000
02000000
09041554
2D100004
7D055504
BD000004
BE555554
BFFFFFD0
7FFFFF40
ENDCHAR
STARTCHAR zcaron
ENCODING 382
SWIDTH 760 0
DWIDTH 15 0
BBX 15 23 0 -2
BITMAP
00100140
00405410
02800010
0F815000
0FD00000
0FFD0900
0A555554
0A000004
3E055504
7E000004
7FFF4104
3FFD0410
15681040
00604100
01800000
02000000
09041554
2D100004
7D055504
BD000004
BE555554
BFFFFFD0
7FFFFF40
ENDCHAR
STARTCHAR Schwa
ENCODING 399
SWIDTH 815 0
DWIDTH 16 0
BBX 16 17 0 -2
BITMAP
00555550
02C15504
0BC00041
0FEAA810
0FFFFD11
09000011
0D000011
3D155551
7D100011
7D10FD11
7D10A811
7D100001
7F015501
7F800004
3FFA56A0
1FFFFF40
06BFE800
ENDCHAR
STARTCHAR florin
ENCODING 402
SWIDTH 674 0
DWIDTH 13 0
BBX 13 17 0 -2
BITMAP
00015540
00040000
00201400
00F04000
02E04640
02900540
09000000
7D155400
BD000040
BFE00B40
BE900900
1D010400
3D140000
BD001000
BE564000
BFFD0000
7FE00000
ENDCHAR
STARTCHAR Ohorn
ENCODING 416
SWIDTH 847 0
DWIDTH 17 0
BBX 18 19 0 -2
BITMAP
0000001540
0000005010
0015544000
0040015040
0600001100
1E10141000
3D10FD1000
7D10FD1000
7D10BD1000
7D10BD1000
7D10BD1000
7D10BD1000
7D10BD1000
7E04000100
7F01550100
7F80000400
3FFA56A000
1FFFFF8000
06BFE90000
ENDCHAR
STARTCHAR ohorn
ENCODING 417
SWIDTH 847 0
DWIDTH 17 0
BBX 18 19 0 -2
BITMAP
0000001540
0000005010
0015544000
0040015040
0600001100
1E10141000
3D10FD1000
7D10FD1000
7D10BD1000
7D10BD1000
7D10BD1000
7D10BD1000
7D10BD1000
7E04000100
7F01550100
7F80000400
3FFA56A000
1FFFFF8000
06BFE90000
ENDCHAR
STARTCHAR Uhorn
ENCODING 431
SWIDTH 856 0
DWIDTH 17 0
BBX 18 19 0 -2
BITMAP
0000001540
0000006010
0155414110
0A005D0400
3E107D1040
7E10BD1000
7E10BD1000
7E10BD1000
7E10BD1000
7E10BD1000
7E10BD1000
7E10BD1000
7E00681000
7E04001000
7F01550100
3F80000400
3FFA55A000
1FFFFF8000
01BFE90000
ENDCHAR
STARTCHAR uhorn
ENCODING 432
SWIDTH 856 0
DWIDTH 17 0
BBX 18 19 0 -2
BITMAP
0000001540
0000006010
0155414110
0A005D0400
3E107D1040
7E10BD1000
7E10BD1000
7E10BD1000
7E10BD1000
7E10BD1000
7E10BD1000
7E10BD1000
7E00681000
7E04001000
7F01550100
3F80000400
3FFA55A000
1FFFFF8000
01BFE90000
ENDCHAR
STARTCHAR Acaron
ENCODING 461
SWIDTH 830 0
DWIDTH 17 0
BBX 16 23 0 -2
BITMAP
00140050
00501410
01D00010
07D05400
07F40000
07FE4640
07F55540
00A00010
01D05400
03C10104
07803444
0B047841
0E00B811
2E105411
3D100011
7D155551
7D100011
7D11FD11
7D01FD01
7D01BD01
7E557E55
7FF87FF8
7FD07FD0
ENDCHAR
STARTCHAR acaron
ENCODING 462
SWIDTH 830 0
DWIDTH 17 0
BBX 16 23 0 -2
BITMAP
00140050
00501410
01D00010
07D05400
07F40000
07FE4640
07F55540
00A00010
01D05400
03C10104
07803444
0B047841
0E00B811
2E105411
3D100011
7D155551
7D100011
7D11FD11
7D01FD01
7D01BD01
7E557E55
7FF87FF8
7FD07FD0
ENDCHAR
STARTCHAR Icaron
ENCODING 463
SWIDTH 705 0
DWIDTH 14 0
BBX 14 23 0 -2
BITMAP
00400140
01005040
07000040
1F415000
2F800000
2FF91800
1E555550
0D000010
7D055410
7E504150
7FF04780
7FF04500
16F04400
02F04400
02F04400
02F04400
02A04140
09004010
2D155410
7D000010
7E555540
7FFFFF40
7FFFF800
ENDCHAR
STARTCHAR icaron
ENCODING 464
SWIDTH 705 0
DWIDTH 14 0
BBX 14 23 0 -2
BITMAP
00400140
01005040
07000040
1F415000
2F800000
2FF91800
1E555550
0D000010
7D055410
7E504150
7FF04780
7FF04500
16F04400
02F04400
02F04400
02F04400
02A04140
09004010
2D155410
7D000010
7E555540
7FFFFF40
7FFFF800
ENDCHAR
STARTCHAR Ocaron
ENCODING 465
SWIDTH 837 0
DWIDTH 17 0
BBX 16 23 0 -2
BITMAP
00100050
00905400
02D00000
07D05410
07F40010
07FE4680
02F95550
01415504
0A040041
2E101410
3D10FD10
7D10FD10
7D10BD10
7D10BD10
7D10BD10
7D10BD10
7D10BD10
7E040001
7F015501
3F800004
2FFA56A0
0FFFFF80
01BFE900
ENDCHAR
STARTCHAR ocaron
ENCODING 466
SWIDTH 837 0
DWIDTH 17 0
BBX 16 23 0 -2
BITMAP
00100050
00905400
02D00000
07D05410
07F40010
07FE4680
02F95550
01415504
0A040041
2E101410
3D10FD10
7D10FD10
7D10BD10
7D10BD10
7D10BD10
7D10BD10
7D10BD10
7E040001
7F015501
3F800004
2FFA56A0
0FFFFF80
01BFE900
ENDCHAR
STARTCHAR Ucaron
ENCODING 467
SWIDTH 846 0
DWIDTH 17 0
BBX 16 23 0 -2
BITMAP
00000050
00501500
01E00000
03E05400
07F40000
07FF4640
0255FE55
0A005D00
3E107D10
7E10BD10
7E10BD10
7E10BD10
7E10BD10
7E10BD10
7E10BD10
7E10BD10
7E006810
7E040000
7F015501
3F800004
2FFA55A0
0BFFFF80
01BFE900
ENDCHAR
STARTCHAR ucaron
ENCODING 468
SWIDTH 846 0
DWIDTH 17 0
BBX 16 23 0 -2
BITMAP
00000050
00501500
01E00000
03E05400
07F40000
07FF4640
0255FE55
0A005D00
3E107D10
7E10BD10
7E10BD10
7E10BD10
7E10BD10
7E10BD10
7E10BD10
7E10BD10
7E006810
7E040000
7F015501
3F800004
2FFA55A0
0BFFFF80
01BFE900
ENDCHAR
STARTCHAR Udieresismacron
ENCODING 469
SWIDTH 846 0
DWIDTH 17 0
BBX 16 26 0 -2
BITMAP
00155550
00605500
02E00000
07FABAA0
07C03404
07C02404
07C12444
0BC02404
0BD03400
0BABFFAA
0E00FD00
3E007D00
7E107D10
7E10BD10
7E10BD10
7E10BD10
7E10BD10
7E10BD10
7E10BD10
7E006810
7E040010
7F015501
3F800004
2FFA55A0
0BFFFF80
01BFE900
ENDCHAR
STARTCHAR udieresismacron
ENCODING 470
SWIDTH 846 0
DWIDTH 17 0
BBX 16 26 0 -2
BITMAP
00155550
00605500
02E00000
07FABAA0
07C03404
07C02404
07C12444
0BC02404
0BD03400
0BABFFAA
0E00FD00
3E007D00
7E107D10
7E10BD10
7E10BD10
7E10BD10
7E10BD10
7E10BD10
7E10BD10
7E006810
7E040010
7F015501
3F800004
2FFA55A0
0BFFFF80
01BFE900
ENDCHAR
STARTCHAR Udieresisacute
ENCODING 471
SWIDTH 846 0
DWIDTH 17 0
BBX 16 27 0 -2
BITMAP
00000100
0000A940
00024440
000F4040
002F4000
001A6950
00803404
07C12444
0BC02404
0BD03400
0BABFFAA
1E00FD00
3E007D00
7E107D10
7E10BD10
7E10BD10
7E10BD10
7E10BD10
7E10BD10
7E10BD10
7E006810
7E040010
7F015501
3F800004
2FFA55A0
0BFFFF80
01BFE900
ENDCHAR
STARTCHAR udieresisacute
ENCODING 472
SWIDTH 846 0
DWIDTH 17 0
BBX 16 27 0 -2
BITMAP
00000100
0000A940
00024440
000F4040
002F4000
001A6950
00803404
07C12444
0BC02404
0BD03400
0BABFFAA
1E00FD00
3E007D00
7E107D10
7E10BD10
7E10BD10
7E10BD10
7E10BD10
7E10BD10
7E10BD10
7E006810
7E040010
7F015501
3F800004
2FFA55A0
0BFFFF80
01BFE900
ENDCHAR
STARTCHAR Udieresiscaron
ENCODING 473
SWIDTH 846 0
DWIDTH 17 0
BBX 16 27 0 -2
BITMAP
00150050
00A05400
02E05400
07E00010
07FE4690
07EABA50
01C03404
07C12444
0BC02404
0BD03400
0BABFFAA
1E00FD00
3E007D00
7E107D10
7E10BD10
7E10BD10
7E10BD10
7E10BD10
7E10BD10
7E10BD10
7E006810
7E040010
7F015501
3F800004
2FFA55A0
0BFFFF80
01BFE900
ENDCHAR
STARTCHAR udieresiscaron
ENCODING 474
SWIDTH 846 0
DWIDTH 17 0
BBX 16 27 0 -2
BITMAP
00150050
00A05400
02E05400
07E00010
07FE4690
07EABA50
01C03404
07C12444
0BC02404
0BD03400
0BABFFAA
1E00FD00
3E007D00
7E107D10
7E10BD10
7E10BD10
7E10BD10
7E10BD10
7E10BD10
7E10BD10
7E006810
7E040010
7F015501
3F800004
2FFA55A0
0BFFFF80
01BFE900
ENDCHAR
STARTCHAR Udieresisgrave
ENCODING 475
SWIDTH 846 0
DWIDTH 17 0
BBX 16 27 0 -2
BITMAP
00014000
00066900
002D1100
007D0100
007E0000
006AB450
00803404
07C12444
0BC02404
0BD03400
0BABFFAA
1E00FD00
3E007D00
7E107D10
7E10BD10
7E10BD10
7E10BD10
7E10BD10
7E10BD10
7E10BD10
7E006810
7E040010
7F015501
3F800004
2FFA55A0
0BFFFF80
01BFE900
ENDCHAR
STARTCHAR udieresisgrave
ENCODING 476
SWIDTH 846 0
DWIDTH 17 0
BBX 16 27 0 -2
BITMAP
00014000
00066900
002D1100
007D0100
007E0000
006AB450
00803404
07C12444
0BC02404
0BD03400
0BABFFAA
1E00FD00
3E007D00
7E107D10
7E10BD10
7E10BD10
7E10BD10
7E10BD10
7E10BD10
7E10BD10
7E006810
7E040010
7F015501
3F800004
2FFA55A0
0BFFFF80
01BFE900
ENDCHAR
STARTCHAR Gcaron
ENCODING 486
SWIDTH 808 0
DWIDTH 16 0
BBX 16 23 0 -2
BITMAP
00100050
00401410
01D00010
07D05400
0BE40000
0BFE4600
07E55550
00400004
02015504
1E000004
3D10BFD0
7D10FF40
7D109954
7D105801
7D10BC01
7D10FC11
7D106411
7E040011
7F015541
3F800001
2FF95554
1FFFFFF4
02FFFFD0
ENDCHAR
STARTCHAR gcaron
ENCODING 487
SWIDTH 808 0
DWIDTH 16 0
BBX 16 23 0 -2
BITMAP
00100050
00401410
01D00010
07D05400
0BE40000
0BFE4600
07E55550
00400004
02015504
1E000004
3D10BFD0
7D10FF40
7D109954
7D105801
7D10BC01
7D10FC11
7D106411
7E040011
7F015541
3F800001
2FF95554
1FFFFFF4
02FFFFD0
ENDCHAR
STARTCHAR Scommaaccent
ENCODING 536
SWIDTH 750 0
DWIDTH 15 0
BBX 15 24 0 -9
BITMAP
00155550
01055510
09100010
2D10BFD0
7D106B40
7D100050
7E054004
7F401504
7FE94004
3FFFF044
09000044
1D000004
7D155400
7D000050
7FFFFF40
7FF80100
7FF85100
00B80500
00F80500
00FE9100
00FC5000
00BD6400
00FFD000
00BE0000
ENDCHAR
STARTCHAR scommaaccent
ENCODING 537
SWIDTH 750 0
DWIDTH 15 0
BBX 15 24 0 -9
BITMAP
00155550
01055510
09100010
2D10BFD0
7D106B40
7D100050
7E054004
7F401504
7FE94004
3FFFF044
09000044
1D000004
7D155400
7D000050
7FFFFF40
7FF80100
7FF85100
00B80500
00F80500
00FE9100
00FC5000
00BD6400
00FFD000
00BE0000
ENDCHAR
STARTCHAR uni021A
ENCODING 538
SWIDTH 756 0
DWIDTH 15 0
BBX 15 24 0 -9
BITMAP
05555554
2C155540
BC004000
FD544154
FFF842E0
BFF84280
01F84100
01F84100
01F84100
01F84100
01F84100
01F84100
01F80100
01F80100
01FFF800
01F80100
00F85100
00B80100
01F80100
01FE9100
01F84000
00BD5000
00FF8000
00FE0000
ENDCHAR
STARTCHAR uni021B
ENCODING 539
SWIDTH 756 0
DWIDTH 15 0
BBX 15 24 0 -9
BITMAP
05555554
2C155540
BC004000
FD544154
FFF842E0
BFF84280
01F84100
01F84100
01F84100
01F84100
01F84100
01F84100
01F80100
01F80100
01FFF800
01F80100
00F85100
00B80100
01F80100
01FE9100
01F84000
00BD5000
00FF8000
00FE0000
ENDCHAR
STARTCHAR dotlessj
ENCODING 567
SWIDTH 788 0
DWIDTH 16 0
BBX 15 17 0 -2
BITMAP
00001554
00007404
0001F444
0002F444
0002F444
0002F444
0156F444
0802F444
7C02F444
BC12F444
BC109044
BD100104
BE015404
7F400010
7FF95680
1FFFFE00
06FFE400
ENDCHAR
STARTCHAR ascript
ENCODING 593
SWIDTH 846 0
DWIDTH 17 0
BBX 16 17 0 -2
BITMAP
00155550
00415504
06040041
1E100011
3D10BD11
7D10FD11
7D10FD11
7D10BD11
7D10BD11
7D10BD11
7D10BD11
7E040011
7E015550
7F800000
3FF95555
1FFFFFF8
06FFFFE0
ENDCHAR
STARTCHAR schwa
ENCODING 601
SWIDTH 815 0
DWIDTH 16 0
BBX 16 17 0 -2
BITMAP
00555550
02C15504
0BC00041
0FEAA810
0FFFFD11
09000011
0D000011
3D155551
7D100011
7D10FD11
7D10A811
7D100001
7F015501
7F800004
3FFA56A0
1FFFFF40
06BFE800
ENDCHAR
STARTCHAR gscript
ENCODING 609
SWIDTH 815 0
DWIDTH 16 0
BBX 16 19 0 -4
BITMAP
00155550
00400004
06015501
1D000001
3D10A811
7D11FC11
7D10FC11
7D100011
7E055551
7F000011
7FD00011
2FFFFC11
0BEAA411
01C00001
07C15540
0FC00014
0FFFFFC0
0BFFFE00
05555000
ENDCHAR
STARTCHAR commaturnedmod
ENCODING 699
SWIDTH 600 0
DWIDTH 12 0
BBX 8 9 2 6
BITMAP
0155
0511
2C69
7C41
BC51
BC01
BD55
BFF8
BFD0
ENDCHAR
STARTCHAR apostrophemod
ENCODING 700
SWIDTH 600 0
DWIDTH 12 0
BBX 8 10 2 6
BITMAP
0155
0801
3C51
BC05
BC05
BF94
BD50
7E54
BFD0
7E40
ENDCHAR
STARTCHAR ringhalfright
ENCODING 702
SWIDTH 412 0
DWIDTH 8 0
BBX 8 10 0 5
BITMAP
0555
2C11
BC04
BFC4
BF84
1C11
7C01
BFF4
BFD0
5500
ENDCHAR
STARTCHAR ringhalfleft
ENCODING 703
SWIDTH 412 0
DWIDTH 8 0
BBX 8 10 0 5
BITMAP
0155
0810
2C45
BC48
BC45
BC10
BE00
BFFD
7FF4
1540
ENDCHAR
STARTCHAR circumflex
ENCODING 710
SWIDTH 600 0
DWIDTH 12 0
BBX 12 8 0 12
BITMAP
000540
014014
080541
2C0001
BC1A51
BFFFFD
BFAFF0
500180
ENDCHAR
STARTCHAR caron
ENCODING 711
SWIDTH 600 0
DWIDTH 12 0
BBX 12 8 0 12
BITMAP
010005
0C0541
7C0001
BD0541
BFE068
BFFFD0
1BFE00
005000
ENDCHAR
STARTCHAR verticallinemod
ENCODING 712
SWIDTH 456 0
DWIDTH 9 0
BBX 9 10 0 5
BITMAP
015540
0E0040
3E1040
7E1040
7E1040
7E1040
7E0040
7E5500
7FFD00
7FE000
ENDCHAR
STARTCHAR firsttonechinese
ENCODING 713
SWIDTH 600 0
DWIDTH 12 0
BBX 12 7 0 12
BITMAP
015554
080001
3C1541
BD0001
BFFFF8
BFFFE0
155540
ENDCHAR
STARTCHAR secondtonechinese
ENCODING 714
SWIDTH 600 0
DWIDTH 12 0
BBX 12 8 0 12
BITMAP
000014
015501
080141
3C1001
BD16A8
BFFFE0
BFEA40
100000
ENDCHAR
STARTCHAR fourthtonechinese
ENCODING 715
SWIDTH 600 0
DWIDTH 12 0
BBX 12 8 0 12
BITMAP
015000
080154
2C1501
BD0001
BFE951
BFFFF8
1AFFE0
000140
ENDCHAR
STARTCHAR verticallinelowmod
ENCODING 716
SWIDTH 456 0
DWIDTH 9 0
BBX 9 10 0 -5
BITMAP
015540
0E0040
3E1040
7E1040
7E1040
7E1040
7E0040
7E5500
7FFD00
7FE000
ENDCHAR
STARTCHAR breve
ENCODING 728
SWIDTH 600 0
DWIDTH 12 0
BBX 12 8 0 12
BITMAP
015055
080641
7C4001
BD1541
BF4014
BFFFE0
3FFF40
055400
ENDCHAR
STARTCHAR dotaccent
ENCODING 729
SWIDTH 600 0
DWIDTH 12 0
BBX 8 8 2 12
BITMAP
0154
0801
3C11
BC01
BC01
BFF8
BFE0
1540
ENDCHAR
STARTCHAR ring
ENCODING 730
SWIDTH 600 0
DWIDTH 12 0
BBX 12 11 0 12
BITMAP
001550
011540
084011
3C4B41
BC4B41
BC4511
BD1541
BF4014
BFFFE0
3FFF40
055400
ENDCHAR
STARTCHAR ogonek
ENCODING 731
SWIDTH 600 0
DWIDTH 12 0
BBX 9 8 2 -6
BITMAP
015400
090400
3D4500
7C5040
BD0040
BF5500
BFF800
6FE000
ENDCHAR
STARTCHAR tilde
ENCODING 732
SWIDTH 600 0
DWIDTH 12 0
BBX 12 7 0 12
BITMAP
011554
081001
3C0141
BD5505
BFFFF8
BFFFD0
505500
ENDCHAR
STARTCHAR hungarumlaut
ENCODING 733
SWIDTH 600 0
DWIDTH 12 0
BBX 13 9 -1 12
BITMAP
00551540
02419000
0B02D040
1E12C440
2D038040
3D078000
7FFFFD00
7F9FF400
15054000
ENDCHAR
STARTCHAR gravecmb
ENCODING 768
SWIDTH 100 0
DWIDTH 2 0
BBX 12 8 -5 12
BITMAP
015000
080154
2C1501
BD0001
BFE951
BFFFF8
1AFFE0
000140
ENDCHAR
STARTCHAR acutecmb
ENCODING 769
SWIDTH 100 0
DWIDTH 2 0
BBX 12 8 -5 12
BITMAP
000014
015501
080141
3C1001
BD16A8
BFFFE0
BFEA40
100000
ENDCHAR
STARTCHAR circumflexcmb
ENCODING 770
SWIDTH 100 0
DWIDTH 2 0
BBX 12 8 -5 12
BITMAP
000540
014014
080541
2C0001
BC1A51
BFFFFD
BFAFF0
500180
ENDCHAR
STARTCHAR tildecmb
ENCODING 771
SWIDTH 100 0
DWIDTH 2 0
BBX 12 7 -5 12
BITMAP
011554
081001
3C0141
BD5505
BFFFF8
BFFFD0
505500
ENDCHAR
STARTCHAR uni0304
ENCODING 772
SWIDTH 600 0
DWIDTH 12 0
BBX 12 7 0 12
BITMAP
015554
080001
3C1541
BD0001
BFFFF8
BFFFE0
155540
ENDCHAR
STARTCHAR brevecmb
ENCODING 774
SWIDTH 100 0
DWIDTH 2 0
BBX 12 8 -5 12
BITMAP
015055
080641
7C4001
BD1541
BF4014
BFFFE0
3FFF40
055400
ENDCHAR
STARTCHAR dotaccentcmb
ENCODING 775
SWIDTH 100 0
DWIDTH 2 0
BBX 8 8 -3 12
BITMAP
0154
0801
3C11
BC01
BC01
BFF8
BFE0
1540
ENDCHAR
STARTCHAR dieresiscmb
ENCODING 776
SWIDTH 100 0
DWIDTH 2 0
BBX 12 7 -5 12
BITMAP
055455
180600
B84710
F80700
FFFFFD
FFFFF4
551540
ENDCHAR
STARTCHAR hookcmb
ENCODING 777
SWIDTH 100 0
DWIDTH 2 0
BBX 9 9 -3 12
BITMAP
015500
1C5440
7D5100
BF9100
BF1440
2F5640
3FFD00
2FE000
040000
ENDCHAR
STARTCHAR ringcmb
ENCODING 778
SWIDTH 100 0
DWIDTH 2 0
BBX 12 11 -5 12
BITMAP
001550
011540
084011
3C4B41
BC4B41
BC4511
BD1541
BF4014
BFFFE0
3FFF40
055400
ENDCHAR
STARTCHAR hungarumlautcmb
ENCODING 779
SWIDTH 100 0
DWIDTH 2 0
BBX 13 9 -5 12
BITMAP
00551540
02019040
1E02C040
2E138440
3D074000
7C0B4100
7FFFFD00
BFAFE000
15054000
ENDCHAR
STARTCHAR caroncmb
ENCODING 780
SWIDTH 100 0
DWIDTH 2 0
BBX 12 8 -5 12
BITMAP
010005
0C0541
7C0001
BD0541
BFE068
BFFFD0
1BFE00
005000
ENDCHAR
STARTCHAR horncmb
ENCODING 795
SWIDTH 100 0
DWIDTH 2 0
BBX 8 8 -3 9
BITMAP
0154
0A01
2C11
7844
FD64
FFD0
FE00
5400
ENDCHAR
STARTCHAR dotbelowcmb
ENCODING 803
SWIDTH 100 0
DWIDTH 2 0
BBX 8 8 -3 -8
BITMAP
0154
0801
3C11
BC01
BC01
BFF8
BFE0
1540
ENDCHAR
STARTCHAR dieresisbelowcmb
ENCODING 804
SWIDTH 100 0
DWIDTH 2 0
BBX 12 7 -5 -8
BITMAP
055455
180600
B84710
F80700
FFFFFD
FFFFF4
551540
ENDCHAR
STARTCHAR commaaccent
ENCODING 806
SWIDTH 600 0
DWIDTH 12 0
BBX 8 10 2 -9
BITMAP
0155
0801
3C51
BC05
BC05
BF94
BD50
7E54
BFD0
7E40
ENDCHAR
STARTCHAR cedillacmb
ENCODING 807
SWIDTH 100 0
DWIDTH 2 0
BBX 9 9 -4 -5
BITMAP
001000
008140
028040
0B4440
0F0440
1E0100
2E5500
3FF400
7FD000
ENDCHAR
STARTCHAR ogonekcmb
ENCODING 808
SWIDTH 100 0
DWIDTH 2 0
BBX 9 8 -3 -6
BITMAP
015500
061100
2E1140
3E1040
3E0040
7F9540
7FFD00
2FF400
ENDCHAR
STARTCHAR brevebelowcmb
ENCODING 814
SWIDTH 100 0
DWIDTH 2 0
BBX 12 8 -5 -8
BITMAP
015055
080641
7C4001
BD1541
BF4014
BFFFE0
3FFF40
055400
ENDCHAR
STARTCHAR macronbelowcmb
ENCODING 817
SWIDTH 100 0
DWIDTH 2 0
BBX 12 7 -5 -7
BITMAP
015554
080001
3C1541
BD0001
BFFFF8
BFFFE0
155540
ENDCHAR
STARTCHAR uni0394
ENCODING 916
SWIDTH 830 0
DWIDTH 17 0
BBX 16 18 0 -3
BITMAP
00055540
00200010
01D05410
03C10104
07C01004
0B843444
0F447444
0F04B841
1F00BC01
2E10FC11
3D11FD11
3D105411
7D100011
7D055541
7D000001
7FFFFFFD
7FFFFFF0
15555540
ENDCHAR
STARTCHAR uni03A9
ENCODING 937
SWIDTH 877 0
DWIDTH 18 0
BBX 18 18 0 -3
BITMAP
0005555000
0040000100
0141554000
0B04001040
1F04690040
2F04BE0040
3F04BE0040
3F047E0040
3F047E0040
3F047E0040
3F447E0000
3D042C1050
2C01184010
BC15181410
BC00280010
BFFFFFFF40
BFFEFFFD00
1554555000
ENDCHAR
STARTCHAR uni03BC
ENCODING 956
SWIDTH 813 0
DWIDTH 16 0
BBX 16 17 0 -4
BITMAP
01550154
06005C01
2E00BC01
7E10FC11
7E10FC11
7E10FC11
7E10FC11
7E10FC11
7E106401
7E140041
7E115501
7E100014
7E00AAD0
7E00FF40
7FFFE800
7FF40000
15500000
ENDCHAR
STARTCHAR pi
ENCODING 960
SWIDTH 821 0
DWIDTH 16 0
BBX 16 15 0 -3
BITMAP
01555554
06000001
2E055541
7E100011
7E10A811
7E10FC11
7E10FC11
7E10FC11
7E10FC11
7E10FC11
7E00FC01
7E00FC01
7FFDBFF8
7FF4BFE0
15401540
ENDCHAR
STARTCHAR Ddotbelow
ENCODING 7692
SWIDTH 846 0
DWIDTH 17 0
BBX 16 22 1 -7
BITMAP
05555540
28000004
B8155504
F8000041
F802A441
F802F841
F802F841
F801F841
F801F841
F801F841
F801A041
F8000041
F8155500
F8000000
F8000050
FFFEAF40
FFF80100
00B44100
01F40100
01F95400
01FFF000
01FF8000
ENDCHAR
STARTCHAR ddotbelow
ENCODING 7693
SWIDTH 846 0
DWIDTH 17 0
BBX 16 22 1 -7
BITMAP
05555540
28000004
B8155504
F8000041
F802A441
F802F841
F802F841
F801F841
F801F841
F801F841
F801A041
F8000041
F8155500
F8000000
F8000050
FFFEAF40
FFF80100
00B44100
01F40100
01F95400
01FFF000
01FF8000
ENDCHAR
STARTCHAR Dlinebelow
ENCODING 7694
SWIDTH 846 0
DWIDTH 17 0
BBX 16 22 1 -7
BITMAP
05555540
28000004
B8155504
F8000041
F802A441
F802F841
F802F841
F801F841
F801F841
F801F841
F801A041
F8000041
F8155500
F8000004
F8000050
FFFFFF40
FF800040
0B415400
1F800040
1FFFFF40
1FFFFD00
05555000
ENDCHAR
STARTCHAR dlinebelow
ENCODING 7695
SWIDTH 846 0
DWIDTH 17 0
BBX 16 22 1 -7
BITMAP
05555540
28000004
B8155504
F8000041
F802A441
F802F841
F802F841
F801F841
F801F841
F801F841
F801A041
F8000041
F8155500
F8000004
F8000050
FFFFFF40
FF800040
0B415400
1F800040
1FFFFF40
1FFFFD00
05555000
ENDCHAR
STARTCHAR Gmacron
ENCODING 7712
SWIDTH 808 0
DWIDTH 16 0
BBX 16 22 0 -2
BITMAP
00055550
00600004
01E05504
03E00004
03E00000
03FFAAA4
03D00004
02015504
0A000004
2D10BFD0
3D10FF40
7D109954
7D105801
7D10BC01
7D10FC11
7D106411
7E040011
7E015541
3F800001
2FF95554
1FFFFFF4
02FFFFD0
ENDCHAR
STARTCHAR gmacron
ENCODING 7713
SWIDTH 808 0
DWIDTH 16 0
BBX 16 22 0 -2
BITMAP
00055550
00600004
01E05504
03E00004
03E00000
03FFAAA4
03D00004
02015504
0A000004
2D10BFD0
3D10FF40
7D109954
7D105801
7D10BC01
7D10FC11
7D106411
7E040011
7E015541
3F800001
2FF95554
1FFFFFF4
02FFFFD0
ENDCHAR
STARTCHAR Hdotbelow
ENCODING 7716
SWIDTH 859 0
DWIDTH 17 0
BBX 16 22 1 -7
BITMAP
05550554
28012801
B801B841
F801F841
F801F841
F801A441
F8000041
F8155541
F8000041
F8015441
F802F841
F802F841
F801F841
F801F801
FD55F954
FFF5ABF0
FFA80280
00B84100
00F80100
01FD5400
01FFF000
00FF8000
ENDCHAR
STARTCHAR hdotbelow
ENCODING 7717
SWIDTH 859 0
DWIDTH 17 0
BBX 16 22 1 -7
BITMAP
05550554
28012801
B801B841
F801F841
F801F841
F801A441
F8000041
F8155541
F8000041
F8015441
F802F841
F802F841
F801F841
F801F801
FD55F954
FFF5ABF0
FFA80280
00B84100
00F80100
01FD5400
01FFF000
00FF8000
ENDCHAR
STARTCHAR Hbrevebelow
ENCODING 7722
SWIDTH 859 0
DWIDTH 17 0
BBX 16 22 1 -7
BITMAP
05550554
28017801
B801F841
F801F841
F801A441
F8000041
F8000041
F8155541
F8000041
F802F841
F802F841
F802F841
F801F841
F801F801
FD55F950
FFE5FAA0
FF80F010
0B840100
1FC15400
0FF95500
0FFFF800
02FF9000
ENDCHAR
STARTCHAR hbrevebelow
ENCODING 7723
SWIDTH 859 0
DWIDTH 17 0
BBX 16 22 1 -7
BITMAP
05550554
28017801
B801F841
F801F841
F801A441
F8000041
F8000041
F8155541
F8000041
F802F841
F802F841
F802F841
F801F841
F801F801
FD55F950
FFE5FAA0
FF80F010
0B840100
1FC15400
0FF95500
0FFFF800
02FF9000
ENDCHAR
STARTCHAR Ldotbelow
ENCODING 7734
SWIDTH 795 0
DWIDTH 16 0
BBX 15 22 1 -7
BITMAP
05550000
28010000
B8010000
F8010000
F8010000
F8010000
F8010550
F8013004
F801F004
F802F044
F801A044
F8000044
F8155504
F8000004
F8000000
FFFEAF80
FFF40600
00F44000
02F40000
02F95400
02FFE000
01FF8000
ENDCHAR
STARTCHAR ldotbelow
ENCODING 7735
SWIDTH 795 0
DWIDTH 16 0
BBX 15 22 1 -7
BITMAP
05550000
28010000
B8010000
F8010000
F8010000
F8010000
F8010550
F8013004
F801F004
F802F044
F801A044
F8000044
F8155504
F8000004
F8000000
FFFEAF80
FFF40600
00F44000
02F40000
02F95400
02FFE000
01FF8000
ENDCHAR
STARTCHAR Ldotbelowmacron
ENCODING 7736
SWIDTH 795 0
DWIDTH 16 0
BBX 15 27 1 -7
BITMAP
00555500
02000040
0F055040
2F000040
2F400000
2FAFFD00
7802F400
F8014000
F8010000
F8010000
F8010000
F8010550
F8013004
F801F004
F802F044
F801A044
F8000044
F8155504
F8000004
F8000000
FFFEAF80
FFF40600
00F44000
02F40000
02F95400
02FFE000
01FF8000
ENDCHAR
STARTCHAR ldotbelowmacron
ENCODING 7737
SWIDTH 795 0
DWIDTH 16 0
BBX 15 27 1 -7
BITMAP
00555500
02000040
0F055040
2F000040
2F400000
2FAFFD00
7802F400
F8014000
F8010000
F8010000
F8010000
F8010550
F8013004
F801F004
F802F044
F801A044
F8000044
F8155504
F8000004
F8000000
FFFEAF80
FFF40600
00F44000
02F40000
02F95400
02FFE000
01FF8000
ENDCHAR
STARTCHAR Llinebelow
ENCODING 7738
SWIDTH 795 0
DWIDTH 16 0
BBX 15 21 1 -6
BITMAP
05550000
28010000
B8010000
F8010000
F8010000
F8010000
F8010550
F8013004
F801F004
F802F044
F801A044
F8000044
F8155504
F8000004
FFEAAAE0
FF000040
FF055040
1F000040
2F955540
2FFFFD00
2FFFF400
ENDCHAR
STARTCHAR llinebelow
ENCODING 7739
SWIDTH 795 0
DWIDTH 16 0
BBX 15 21 1 -6
BITMAP
05550000
28010000
B8010000
F8010000
F8010000
F8010000
F8010550
F8013004
F801F004
F802F044
F801A044
F8000044
F8155504
F8000004
FFEAAAE0
FF000040
FF055040
1F000040
2F955540
2FFFFD00
2FFFF400
ENDCHAR
STARTCHAR Mdotbelow
ENCODING 7746
SWIDTH 949 0
DWIDTH 19 0
BBX 17 22 1 -7
BITMAP
0555015540
2800060000
B8101C1000
F844284400
F841110400
F840400400
F840100400
F842014400
F843424400
F843EB4400
F843FF4400
F8429F4400
F8011F4000
F8011F4000
FD541F9540
FFE15AFE00
FF8900F800
002D104000
007D004000
007E550000
007FF80000
007FE00000
ENDCHAR
STARTCHAR mdotbelow
ENCODING 7747
SWIDTH 949 0
DWIDTH 19 0
BBX 17 22 1 -7
BITMAP
0555015540
2800060000
B8101C1000
F844284400
F841110400
F840400400
F840100400
F842014400
F843424400
F843EB4400
F843FF4400
F8429F4400
F8011F4000
F8011F4000
FD541F9540
FFE15AFE00
FF8900F800
002D104000
007D004000
007E550000
007FF80000
007FE00000
ENDCHAR
STARTCHAR Ndotaccent
ENCODING 7748
SWIDTH 853 0
DWIDTH 17 0
BBX 16 22 1 -2
BITMAP
00055400
00280100
00B84100
01F80100
01F80100
055BF954
2802F801
B850F841
F8443841
F8410441
F8400041
F8400041
F8410041
F8420441
F843C141
F843E041
F843F441
F843F801
F802F801
FD55F954
FFF1FFE0
FF80FF80
ENDCHAR
STARTCHAR ndotaccent
ENCODING 7749
SWIDTH 853 0
DWIDTH 17 0
BBX 16 22 1 -2
BITMAP
00055400
00280100
00B84100
01F80100
01F80100
055BF954
2802F801
B850F841
F8443841
F8410441
F8400041
F8400041
F8410041
F8420441
F843C141
F843E041
F843F441
F843F801
F802F801
FD55F954
FFF1FFE0
FF80FF80
ENDCHAR
STARTCHAR Ndotbelow
ENCODING 7750
SWIDTH 853 0
DWIDTH 17 0
BBX 16 22 1 -7
BITMAP
05540554
28013801
B850B841
F8443841
F8410441
F8400041
F8400041
F8410041
F8420441
F843C141
F843E041
F843F441
F843F801
F802F801
FD55F954
FFF5ABE0
FFA80380
00B84100
01F80100
01FD5400
01FFF000
00FF8000
ENDCHAR
STARTCHAR ndotbelow
ENCODING 7751
SWIDTH 853 0
DWIDTH 17 0
BBX 16 22 1 -7
BITMAP
05540554
28013801
B850B841
F8443841
F8410441
F8400041
F8400041
F8410041
F8420441
F843C141
F843E041
F843F441
F843F801
F802F801
FD55F954
FFF5ABE0
FFA80380
00B84100
01F80100
01FD5400
01FFF000
00FF8000
ENDCHAR
STARTCHAR Nlinebelow
ENCODING 7752
SWIDTH 853 0
DWIDTH 17 0
BBX 16 21 1 -6
BITMAP
05540554
28013801
B850B841
F8443841
F8410441
F8400041
F8400041
F8410041
F8420441
F843C141
F843E041
F843F441
F843F801
F802F801
FD55F954
FFE5AAA0
FF815410
0B800010
0FD55540
0FFFFE00
0FFFF800
ENDCHAR
STARTCHAR nlinebelow
ENCODING 7753
SWIDTH 853 0
DWIDTH 17 0
BBX 16 21 1 -6
BITMAP
05540554
28013801
B850B841
F8443841
F8410441
F8400041
F8400041
F8410041
F8420441
F843C141
F843E041
F843F441
F843F801
F802F801
FD55F954
FFE5AAA0
FF815410
0B800010
0FD55540
0FFFFE00
0FFFF800
ENDCHAR
STARTCHAR Rdotbelow
ENCODING 7770
SWIDTH 843 0
DWIDTH 17 0
BBX 16 22 1 -7
BITMAP
05555540
28000010
B8155410
F8000100
F802D104
F802E100
F8019110
F8000114
F8155500
F8000041
F802F801
F802F801
F802F801
F801F801
FD55FD55
FFF5ABF4
FF9802C0
00780100
00F80100
00FD5400
00FFF400
00FFC000
ENDCHAR
STARTCHAR rdotbelow
ENCODING 7771
SWIDTH 843 0
DWIDTH 17 0
BBX 16 22 1 -7
BITMAP
05555540
28000010
B8155410
F8000100
F802D104
F802E100
F8019110
F8000114
F8155500
F8000041
F802F801
F802F801
F802F801
F801F801
FD55FD55
FFF5ABF4
FF9802C0
00780100
00F80100
00FD5400
00FFF400
00FFC000
ENDCHAR
STARTCHAR Rdotbelowmacron
ENCODING 7772
SWIDTH 843 0
DWIDTH 17 0
BBX 16 27 1 -7
BITMAP
00555500
06000040
1E055040
3E000040
3E000000
3FAAAE00
38000050
78155410
F8000100
F802D104
F802E100
F8019110
F8000114
F8155500
F8000041
F802F801
F802F801
F802F801
F801F801
FD55FD55
FFF5ABF4
FF9802C0
00780100
00F80100
00FD5400
00FFF400
00FFC000
ENDCHAR
STARTCHAR rdotbelowmacron
ENCODING 7773
SWIDTH 843 0
DWIDTH 17 0
BBX 16 27 1 -7
BITMAP
00555500
06000040
1E055040
3E000040
3E000000
3FAAAE00
38000050
78155410
F8000100
F802D104
F802E100
F8019110
F8000114
F8155500
F8000041
F802F801
F802F801
F802F801
F801F801
FD55FD55
FFF5ABF4
FF9802C0
00780100
00F80100
00FD5400
00FFF400
00FFC000
ENDCHAR
STARTCHAR Rlinebelow
ENCODING 7774
SWIDTH 843 0
DWIDTH 17 0
BBX 16 21 1 -6
BITMAP
05555540
28155410
B8000100
F8019104
F802E100
F802D110
F8000110
F8155504
F8000041
F8015001
F802F801
F802F801
F801F801
F801F801
FD55FD54
FFE5AAB4
FF815410
0B800000
1FD55540
1FFFFE00
0FFFF800
ENDCHAR
STARTCHAR rlinebelow
ENCODING 7775
SWIDTH 843 0
DWIDTH 17 0
BBX 16 21 1 -6
BITMAP
05555540
28155410
B8000100
F8019104
F802E100
F802D110
F8000110
F8155504
F8000041
F8015001
F802F801
F802F801
F801F801
F801F801
FD55FD54
FFE5AAB4
FF815410
0B800000
1FD55540
1FFFFE00
0FFFF800
ENDCHAR
STARTCHAR Sdotaccent
ENCODING 7776
SWIDTH 750 0
DWIDTH 15 0
BBX 15 22 0 -2
BITMAP
00055400
00180100
00B84100
00F80100
00F80000
00E55550
01000010
05055510
2D100010
7D10FFD0
7D105A40
7D100010
7E015404
7F800104
7FFE9044
1FFFE044
09000004
2D155404
7D000010
7E555680
7FFFFE00
7FFFE400
ENDCHAR
STARTCHAR sdotaccent
ENCODING 7777
SWIDTH 750 0
DWIDTH 15 0
BBX 15 22 0 -2
BITMAP
00055400
00180100
00B84100
00F80100
00F80000
00E55550
01000010
05055510
2D100010
7D10FFD0
7D105A40
7D100010
7E015404
7F800104
7FFE9044
1FFFE044
09000004
2D155404
7D000010
7E555680
7FFFFE00
7FFFE400
ENDCHAR
STARTCHAR Sdotbelow
ENCODING 7778
SWIDTH 750 0
DWIDTH 15 0
BBX 15 22 0 -7
BITMAP
00155550
01000010
0A055510
2D100010
7D10FFD0
7D105A40
7D100010
7E015404
7F800104
7FFE9044
1FFFE044
09000004
2D155400
7D000000
7D000000
7FFEAE00
7FF80100
00B80100
00F80100
00FD5400
00FFF400
00FF8000
ENDCHAR
STARTCHAR sdotbelow
ENCODING 7779
SWIDTH 750 0
DWIDTH 15 0
BBX 15 22 0 -7
BITMAP
00155550
01000010
0A055510
2D100010
7D10FFD0
7D105A40
7D100010
7E015404
7F800104
7FFE9044
1FFFE044
09000004
2D155400
7D000000
7D000000
7FFEAE00
7FF80100
00B80100
00F80100
00FD5400
00FFF400
00FF8000
ENDCHAR
STARTCHAR Tdotbelow
ENCODING 7788
SWIDTH 756 0
DWIDTH 15 0
BBX 15 22 0 -7
BITMAP
05555554
2C000000
BC155540
FC004004
FFF842F4
FFF842D0
56F84100
01F84100
01F84100
01F84100
01F84100
01F84100
01F84100
01F80100
01F80100
01FEA800
00F80100
00B84100
01F80100
01FD5500
01FFF400
00FF8000
ENDCHAR
STARTCHAR tdotbelow
ENCODING 7789
SWIDTH 756 0
DWIDTH 15 0
BBX 15 22 0 -7
BITMAP
05555554
2C000000
BC155540
FC004004
FFF842F4
FFF842D0
56F84100
01F84100
01F84100
01F84100
01F84100
01F84100
01F84100
01F80100
01F80100
01FEA800
00F80100
00B84100
01F80100
01FD5500
01FFF400
00FF8000
ENDCHAR
STARTCHAR Tlinebelow
ENCODING 7790
SWIDTH 756 0
DWIDTH 15 0
BBX 15 21 0 -6
BITMAP
05555554
2C155540
BC004000
FC004004
FFF842F4
FFF842D0
56F84100
01F84100
01F84100
01F84100
01F84100
01F84100
01F84100
01F80100
01F95500
01EAA540
02815410
0B800010
0FD55540
0FFFFF40
0FFFF800
ENDCHAR
STARTCHAR tlinebelow
ENCODING 7791
SWIDTH 756 0
DWIDTH 15 0
BBX 15 21 0 -6
BITMAP
05555554
2C155540
BC004000
FC004004
FFF842F4
FFF842D0
56F84100
01F84100
01F84100
01F84100
01F84100
01F84100
01F84100
01F80100
01F95500
01EAA540
02815410
0B800010
0FD55540
0FFFFF40
0FFFF800
ENDCHAR
STARTCHAR Wgrave
ENCODING 7808
SWIDTH 931 0
DWIDTH 19 0
BBX 18 22 0 -2
BITMAP
000AA50000
0074056400
01F4550400
02F4000400
02FFA54000
0155FFE550
0E00BFD010
3E0047D010
7E1047D110
7E1047D110
7E1056D110
7E10809110
7E10441110
7E10110110
7E10004110
7E00484110
7F040D1010
3F411E0400
3F802F0040
2FD57F9500
0FFF7FFD00
0BF82FE000
ENDCHAR
STARTCHAR wgrave
ENCODING 7809
SWIDTH 931 0
DWIDTH 19 0
BBX 18 22 0 -2
BITMAP
000AA50000
0074056400
01F4550400
02F4000400
02FFA54000
0155FFE550
0E00BFD010
3E0047D010
7E1047D110
7E1047D110
7E1056D110
7E10809110
7E10441110
7E10110110
7E10004110
7E00484110
7F040D1010
3F411E0400
3F802F0040
2FD57F9500
0FFF7FFD00
0BF82FE000
ENDCHAR
STARTCHAR Wacute
ENCODING 7810
SWIDTH 931 0
DWIDTH 19 0
BBX 18 22 0 -2
BITMAP
000015A800
000A540100
0028154100
00F8000000
01F856A000
0155FF9550
0E0095D010
3E0043D010
7E1047D110
7E1047D110
7E1056D110
7E10809110
7E10441110
7E10110110
7E10004110
7E00484110
7F040D1010
3F411E0400
3F802F0040
2FD57F9500
0FFF7FFD00
0BF82FE000
ENDCHAR
STARTCHAR wacute
ENCODING 7811
SWIDTH 931 0
DWIDTH 19 0
BBX 18 22 0 -2
BITMAP
000015A800
000A540100
0028154100
00F8000000
01F856A000
0155FF9550
0E0095D010
3E0043D010
7E1047D110
7E1047D110
7E1056D110
7E10809110
7E10441110
7E10110110
7E10004110
7E00484110
7F040D1010
3F411E0400
3F802F0040
2FD57F9500
0FFF7FFD00
0BF82FE000
ENDCHAR
STARTCHAR Wdieresis
ENCODING 7812
SWIDTH 931 0
DWIDTH 19 0
BBX 18 22 0 -2
BITMAP
0005515400
00200C0100
00F00C1100
02F00C0100
03F00D0000
03ABFFFAA0
0600FFD010
1E0057D010
7E1047D110
7E1047D110
7E1056D110
7E10809110
7E10441110
7E10110110
7E10004110
7E00484100
7F040D1000
3F411E0400
3F802F0040
2FD57F9500
0FFF7FFD00
0BF82FE000
ENDCHAR
STARTCHAR wdieresis
ENCODING 7813
SWIDTH 931 0
DWIDTH 19 0
BBX 18 22 0 -2
BITMAP
0005515400
00200C0100
00F00C1100
02F00C0100
03F00D0000
03ABFFFAA0
0600FFD010
1E0057D010
7E1047D110
7E1047D110
7E1056D110
7E10809110
7E10441110
7E10110110
7E10004110
7E00484100
7F040D1000
3F411E0400
3F802F0040
2FD57F9500
0FFF7FFD00
0BF82FE000
ENDCHAR
STARTCHAR Ydotaccent
ENCODING 7822
SWIDTH 805 0
DWIDTH 16 0
BBX 16 22 0 -2
BITMAP
00015500
000C0100
007C1100
00BC0100
00BD0100
0556FD55
1D01FC01
7D01BC01
BD11BC11
BD11BC11
BD10B811
BD007441
BF040004
7F810100
2FE05010
0FF41040
07FC1100
02FC0100
00FC0100
00BE5500
00BFF800
00BFD000
ENDCHAR
STARTCHAR ydotaccent
ENCODING 7823
SWIDTH 805 0
DWIDTH 16 0
BBX 16 22 0 -2
BITMAP
00015500
000C0100
007C1100
00BC0100
00BD0100
0556FD55
1D01FC01
7D01BC01
BD11BC11
BD11BC11
BD10B811
BD007441
BF040004
7F810100
2FE05010
0FF41040
07FC1100
02FC0100
00FC0100
00BE5500
00BFF800
00BFD000
ENDCHAR
STARTCHAR Zdotbelow
ENCODING 7826
SWIDTH 760 0
DWIDTH 15 0
BBX 15 22 0 -7
BITMAP
01555554
0A000004
3E055504
7E000004
7FFF4104
7FFD0410
15681040
00604100
01C00000
03400000
0A041554
2D100004
7D055504
BD000004
BD000000
BFFFABD0
7FFC0240
00B81100
00F80100
00FD5400
00FFF400
00FFD000
ENDCHAR
STARTCHAR zdotbelow
ENCODING 7827
SWIDTH 760 0
DWIDTH 15 0
BBX 15 22 0 -7
BITMAP
01555554
0A000004
3E055504
7E000004
7FFF4104
7FFD0410
15681040
00604100
01C00000
03400000
0A041554
2D100004
7D055504
BD000004
BD000000
BFFFABD0
7FFC0240
00B81100
00F80100
00FD5400
00FFF400
00FFD000
ENDCHAR
STARTCHAR tdieresis
ENCODING 7831
SWIDTH 756 0
DWIDTH 15 0
BBX 15 22 0 -2
BITMAP
00551540
02409010
0F449110
2F409010
2F40A000
2D555554
2C000000
BC155540
FC004004
FFF842F4
FFF842D0
56F84100
01F84100
01F84100
01F84100
01F84100
01F84100
01F80100
01F80100
01F95400
01FFF400
00FF8000
ENDCHAR
STARTCHAR Germandbls
ENCODING 7838
SWIDTH 859 0
DWIDTH 17 0
BBX 16 17 1 -2
BITMAP
05555540
28000010
B8155410
F8000110
F8028110
F802C010
F8028404
F8028541
F8028011
F802FD11
F802FC11
F8024011
F8024141
F8024001
FD579564
FFFFFFC0
FF9FFE00
ENDCHAR
STARTCHAR Adotbelow
ENCODING 7840
SWIDTH 830 0
DWIDTH 17 0
BBX 16 22 0 -7
BITMAP
00155540
00600010
01D05400
03C10104
07803444
0B047841
0E00B811
2E105411
3D100011
7D155551
7D100011
7D11FD11
7D01FD01
7D01BD01
7E557E55
7FF96AF8
7FD900D0
002D1000
007D0000
007E5500
007FF800
007FE000
ENDCHAR
STARTCHAR adotbelow
ENCODING 7841
SWIDTH 830 0
DWIDTH 17 0
BBX 16 22 0 -7
BITMAP
00155540
00600010
01D05400
03C10104
07803444
0B047841
0E00B811
2E105411
3D100011
7D155551
7D100011
7D11FD11
7D01FD01
7D01BD01
7E557E55
7FF96AF8
7FD900D0
002D1000
007D0000
007E5500
007FF800
007FE000
ENDCHAR
STARTCHAR Ahookabove
ENCODING 7842
SWIDTH 830 0
DWIDTH 17 0
BBX 16 24 0 -2
BITMAP
00055500
00180040
00785440
00FD5140
00FF5100
00BE1400
003F5900
00355540
00600010
01D05400
03C10104
07803444
0B047841
0E00B811
2E105411
3D100011
7D155551
7D100011
7D11FD11
7D01FD01
7D01BD01
7E557E55
7FF87FF8
7FD07FD0
ENDCHAR
STARTCHAR ahookabove
ENCODING 7843
SWIDTH 830 0
DWIDTH 17 0
BBX 16 24 0 -2
BITMAP
00055500
00180040
00785440
00FD5140
00FF5100
00BE1400
003F5900
00355540
00600010
01D05400
03C10104
07803444
0B047841
0E00B811
2E105411
3D100011
7D155551
7D100011
7D11FD11
7D01FD01
7D01BD01
7E557E55
7FF87FF8
7FD07FD0
ENDCHAR
STARTCHAR Acircumflexacute
ENCODING 7844
SWIDTH 830 0
DWIDTH 17 0
BBX 16 27 0 -2
BITMAP
00000064
00000A44
00007444
0001F400
0001F450
00014280
00105410
00900010
03D06410
07FFFFD0
07F00010
07E00010
01D05400
03810104
07403444
0B047841
0E00B811
2E105411
3D100011
7D155551
7D100011
7D11FD11
7D01FD01
7D01BD01
7E557E55
7FF87FF8
7FD07FD0
ENDCHAR
STARTCHAR acircumflexacute
ENCODING 7845
SWIDTH 830 0
DWIDTH 17 0
BBX 16 27 0 -2
BITMAP
00000064
00000A44
00007444
0001F400
0001F450
00014280
00105410
00900010
03D06410
07FFFFD0
07F00010
07E00010
01D05400
03810104
07403444
0B047841
0E00B811
2E105411
3D100011
7D155551
7D100011
7D11FD11
7D01FD01
7D01BD01
7E557E55
7FF87FF8
7FD07FD0
ENDCHAR
STARTCHAR Acircumflexgrave
ENCODING 7846
SWIDTH 830 0
DWIDTH 17 0
BBX 16 27 0 -2
BITMAP
00000400
00002AA0
0000B004
0002F044
0002F400
00054580
00105410
00900010
03D06410
07FFFFD0
07F00010
07E00010
01D05400
03810104
07403444
0B047841
0E00B811
2E105411
3D100011
7D155551
7D100011
7D11FD11
7D01FD01
7D01BD01
7E557E55
7FF87FF8
7FD07FD0
ENDCHAR
STARTCHAR acircumflexgrave
ENCODING 7847
SWIDTH 830 0
DWIDTH 17 0
BBX 16 27 0 -2
BITMAP
00000400
00002AA0
0000B004
0002F044
0002F400
00054580
00105410
00900010
03D06410
07FFFFD0
07F00010
07E00010
01D05400
03810104
07403444
0B047841
0E00B811
2E105411
3D100011
7D155551
7D100011
7D11FD11
7D01FD01
7D01BD01
7E557E55
7FF87FF8
7FD07FD0
ENDCHAR
STARTCHAR Acircumflexhookabove
ENCODING 7848
SWIDTH 830 0
DWIDTH 17 0
BBX 17 28 0 -2
BITMAP
0000055400
0000245400
0000F95040
0001FE4040
0001FD1440
00006E5900
000001B400
0010541000
00D0001000
03D0641000
07FFFFD000
07F0001000
07E0001000
01D0540000
0381010400
0740344400
0B04784100
0E00B81100
2E10541100
3D10001100
7D15555100
7D10001100
7D11FD1100
7D01FD0100
7D01BD0100
7E557E5500
7FF87FF800
7FD07FD000
ENDCHAR
STARTCHAR acircumflexhookabove
ENCODING 7849
SWIDTH 830 0
DWIDTH 17 0
BBX 17 28 0 -2
BITMAP
0000055400
0000245400
0000F95040
0001FE4040
0001FD1440
00006E5900
000001B400
0010541000
00D0001000
03D0641000
07FFFFD000
07F0001000
07E0001000
01D0540000
0381010400
0740344400
0B04784100
0E00B81100
2E10541100
3D10001100
7D15555100
7D10001100
7D11FD1100
7D01FD0100
7D01BD0100
7E557E5500
7FF87FF800
7FD07FD000
ENDCHAR
STARTCHAR Acircumflextilde
ENCODING 7850
SWIDTH 830 0
DWIDTH 17 0
BBX 16 27 0 -2
BITMAP
00055550
00500010
01D15510
07D00010
07FFEA80
07F90140
01605410
01D00010
03D06410
07FFFFD0
07F00010
07E00010
01D05400
03810104
07403444
0B047841
0E00B811
2E105411
3D100011
7D155551
7D100011
7D11FD11
7D01FD01
7D01BD01
7E557E55
7FF87FF8
7FD07FD0
ENDCHAR
STARTCHAR acircumflextilde
ENCODING 7851
SWIDTH 830 0
DWIDTH 17 0
BBX 16 27 0 -2
BITMAP
00055550
00500010
01D15510
07D00010
07FFEA80
07F90140
01605410
01D00010
03D06410
07FFFFD0
07F00010
07E00010
01D05400
03810104
07403444
0B047841
0E00B811
2E105411
3D100011
7D155551
7D100011
7D11FD11
7D01FD01
7D01BD01
7E557E55
7FF87FF8
7FD07FD0
ENDCHAR
STARTCHAR Acircumflexdotbelow
ENCODING 7852
SWIDTH 830 0
DWIDTH 17 0
BBX 16 28 0 -7
BITMAP
00005400
00040040
00105410
01D00010
03D06410
07FFFFD0
07F00010
07E00010
01D05400
03810104
07403444
0B047841
0E00B811
2E105411
3D100011
7D155551
7D100011
7D11FD11
7D01FD01
7D01BD01
7E557E55
7FF96AF8
7FD900D0
002D1000
007D0000
007E5500
007FF800
007FE000
ENDCHAR
STARTCHAR acircumflexdotbelow
ENCODING 7853
SWIDTH 830 0
DWIDTH 17 0
BBX 16 28 0 -7
BITMAP
00005400
00040040
00105410
01D00010
03D06410
07FFFFD0
07F00010
07E00010
01D05400
03810104
07403444
0B047841
0E00B811
2E105411
3D100011
7D155551
7D100011
7D11FD11
7D01FD01
7D01BD01
7E557E55
7FF96AF8
7FD900D0
002D1000
007D0000
007E5500
007FF800
007FE000
ENDCHAR
STARTCHAR Abreveacute
ENCODING 7854
SWIDTH 830 0
DWIDTH 17 0
BBX 16 27 0 -2
BITMAP
00001B80
0001E440
00078440
000F8000
001A8010
0090B800
02D06400
07D10040
0BE05400
07F90100
07FAAA90
01F00010
01D05410
03C10104
07803444
0B447841
0F00B811
2E105411
3D100011
7D155551
7D100011
7D11FD11
7D01FD01
7D01BD01
7E557E55
7FF87FF8
7FD07FD0
ENDCHAR
STARTCHAR abreveacute
ENCODING 7855
SWIDTH 830 0
DWIDTH 17 0
BBX 16 27 0 -2
BITMAP
00001B80
0001E440
00078440
000F8000
001A8010
0090B800
02D06400
07D10040
0BE05400
07F90100
07FAAA90
01F00010
01D05410
03C10104
07803444
0B447841
0F00B811
2E105411
3D100011
7D155551
7D100011
7D11FD11
7D01FD01
7D01BD01
7E557E55
7FF87FF8
7FD07FD0
ENDCHAR
STARTCHAR Abrevegrave
ENCODING 7856
SWIDTH 830 0
DWIDTH 17 0
BBX 16 27 0 -2
BITMAP
000BA400
00786800
00F84400
01F80000
01E40150
01D0A800
02D06400
07D10040
0BE05400
07F90100
07FAAA90
01F00010
01D05410
03C10104
07803444
0B447841
0F00B811
2E105411
3D100011
7D155551
7D100011
7D11FD11
7D01FD01
7D01BD01
7E557E55
7FF87FF8
7FD07FD0
ENDCHAR
STARTCHAR abrevegrave
ENCODING 7857
SWIDTH 830 0
DWIDTH 17 0
BBX 16 27 0 -2
BITMAP
000BA400
00786800
00F84400
01F80000
01E40150
01D0A800
02D06400
07D10040
0BE05400
07F90100
07FAAA90
01F00010
01D05410
03C10104
07803444
0B447841
0F00B811
2E105411
3D100011
7D155551
7D100011
7D11FD11
7D01FD01
7D01BD01
7E557E55
7FF87FF8
7FD07FD0
ENDCHAR
STARTCHAR Abrevehookabove
ENCODING 7858
SWIDTH 830 0
DWIDTH 17 0
BBX 16 29 0 -2
BITMAP
00015540
00090000
002D5510
007FE410
007F4110
001F4140
001ABE50
0050B800
02D06400
07D10040
0BE05400
07F90100
07FAAA90
01F00010
01D05410
03C10104
07803444
0B447841
0F00B811
2E105411
3D100011
7D155551
7D100011
7D11FD11
7D01FD01
7D01BD01
7E557E55
7FF87FF8
7FD07FD0
ENDCHAR
STARTCHAR abrevehookabove
ENCODING 7859
SWIDTH 830 0
DWIDTH 17 0
BBX 16 29 0 -2
BITMAP
00015540
00090000
002D5510
007FE410
007F4110
001F4140
001ABE50
0050B800
02D06400
07D10040
0BE05400
07F90100
07FAAA90
01F00010
01D05410
03C10104
07803444
0B447841
0F00B811
2E105411
3D100011
7D155551
7D100011
7D11FD11
7D01FD01
7D01BD01
7E557E55
7FF87FF8
7FD07FD0
ENDCHAR
STARTCHAR Abrevetilde
ENCODING 7860
SWIDTH 830 0
DWIDTH 17 0
BBX 16 27 0 -2
BITMAP
00055550
00500010
01D00410
07E55450
07EAFE90
07D0B800
03D06400
07D10040
0BE05400
07F90100
07FAAA90
01F00010
01D05410
03C10104
07803444
0B447841
0F00B811
2E105411
3D100011
7D155551
7D100011
7D11FD11
7D01FD01
7D01BD01
7E557E55
7FF87FF8
7FD07FD0
ENDCHAR
STARTCHAR abrevetilde
ENCODING 7861
SWIDTH 830 0
DWIDTH 17 0
BBX 16 27 0 -2
BITMAP
00055550
00500010
01D00410
07E55450
07EAFE90
07D0B800
03D06400
07D10040
0BE05400
07F90100
07FAAA90
01F00010
01D05410
03C10104
07803444
0B447841
0F00B811
2E105411
3D100011
7D155551
7D100011
7D11FD11
7D01FD01
7D01BD01
7E557E55
7FF87FF8
7FD07FD0
ENDCHAR
STARTCHAR Abrevedotbelow
ENCODING 7862
SWIDTH 830 0
DWIDTH 17 0
BBX 16 28 0 -7
BITMAP
00154550
00905800
02D06400
07D10040
0BE05400
07F90100
07FAAA90
01F00010
01D05410
03C10104
07803444
0B447841
0F00B811
2E105411
3D100011
7D155551
7D100011
7D11FD11
7D01FD01
7D01BD01
7E557E55
7FF96AF8
7FD900D0
002D1000
007D0000
007E5500
007FF800
007FE000
ENDCHAR
STARTCHAR abrevedotbelow
ENCODING 7863
SWIDTH 830 0
DWIDTH 17 0
BBX 16 28 0 -7
BITMAP
00154550
00905800
02D06400
07D10040
0BE05400
07F90100
07FAAA90
01F00010
01D05410
03C10104
07803444
0B447841
0F00B811
2E105411
3D100011
7D155551
7D100011
7D11FD11
7D01FD01
7D01BD01
7E557E55
7FF96AF8
7FD900D0
002D1000
007D0000
007E5500
007FF800
007FE000
ENDCHAR
STARTCHAR Edotbelow
ENCODING 7864
SWIDTH 754 0
DWIDTH 15 0
BBX 14 22 1 -7
BITMAP
05555550
28000010
B8155410
F8000010
F803FF80
F801AA00
F8000100
F8155100
F8000100
F802F800
F802A540
F8000010
F8155410
F8000010
F8000000
FFFEAF40
FFF00900
02E04400
03E00400
03F55400
03FFD000
03FF4000
ENDCHAR
STARTCHAR edotbelow
ENCODING 7865
SWIDTH 754 0
DWIDTH 15 0
BBX 14 22 1 -7
BITMAP
05555550
28000010
B8155410
F8000010
F803FF80
F801AA00
F8000100
F8155100
F8000100
F802F800
F802A540
F8000010
F8155410
F8000010
F8000000
FFFEAF40
FFF00900
02E04400
03E00400
03F55400
03FFD000
03FF4000
ENDCHAR
STARTCHAR Ehookabove
ENCODING 7866
SWIDTH 754 0
DWIDTH 15 0
BBX 14 24 1 -2
BITMAP
00155000
00900400
02D15100
0BE55100
0BF51100
07F04000
02F56000
05555550
28000010
B8155410
F8000010
F803FF80
F801AA00
F8000100
F8155100
F8000100
F802F800
F802A540
F8000010
F8155410
F8000010
FD555540
FFFFFF40
FFFFFD00
ENDCHAR
STARTCHAR ehookabove
ENCODING 7867
SWIDTH 754 0
DWIDTH 15 0
BBX 14 24 1 -2
BITMAP
00155000
00900400
02D15100
0BE55100
0BF51100
07F04000
02F56000
05555550
28000010
B8155410
F8000010
F803FF80
F801AA00
F8000100
F8155100
F8000100
F802F800
F802A540
F8000010
F8155410
F8000010
FD555540
FFFFFF40
FFFFFD00
ENDCHAR
STARTCHAR Etilde
ENCODING 7868
SWIDTH 754 0
DWIDTH 15 0
BBX 14 22 1 -2
BITMAP
00555500
02000040
0B054040
2F000000
3F554000
3D555550
38000010
F8155410
F8000010
F803FF80
F801AA00
F8000100
F8155100
F8000100
F802F800
F802A540
F8000010
F8155410
F8000010
FD555540
FFFFFF40
FFFFFD00
ENDCHAR
STARTCHAR etilde
ENCODING 7869
SWIDTH 754 0
DWIDTH 15 0
BBX 14 22 1 -2
BITMAP
00555500
02000040
0B054040
2F000000
3F554000
3D555550
38000010
F8155410
F8000010
F803FF80
F801AA00
F8000100
F8155100
F8000100
F802F800
F802A540
F8000010
F8155410
F8000010
FD555540
FFFFFF40
FFFFFD00
ENDCHAR
STARTCHAR Ecircumflexacute
ENCODING 7870
SWIDTH 754 0
DWIDTH 15 0
BBX 14 27 1 -2
BITMAP
00000680
00006410
0002C410
000BC000
000FC100
00141900
01014040
0B000040
2F055040
3FBFFE40
3D555550
38000010
F8155410
F8000010
F803FF80
F801AA00
F8000100
F8155100
F8000100
F802F800
F802A540
F8000010
F8155410
F8000010
FD555540
FFFFFF40
FFFFFD00
ENDCHAR
STARTCHAR ecircumflexacute
ENCODING 7871
SWIDTH 754 0
DWIDTH 15 0
BBX 14 27 1 -2
BITMAP
00000680
00006410
0002C410
000BC000
000FC100
00141900
01014040
0B000040
2F055040
3FBFFE40
3D555550
38000010
F8155410
F8000010
F803FF80
F801AA00
F8000100
F8155100
F8000100
F802F800
F802A540
F8000010
F8155410
F8000010
FD555540
FFFFFF40
FFFFFD00
ENDCHAR
STARTCHAR Ecircumflexgrave
ENCODING 7872
SWIDTH 754 0
DWIDTH 15 0
BBX 14 27 1 -2
BITMAP
00001000
0001AA40
00074040
001F4040
001F8000
00141500
01014040
0B000040
2F055040
3FBFFE40
3D555550
38000010
F8155410
F8000010
F803FF80
F801AA00
F8000100
F8155100
F8000100
F802F800
F802A540
F8000010
F8155410
F8000010
FD555540
FFFFFF40
FFFFFD00
ENDCHAR
STARTCHAR ecircumflexgrave
ENCODING 7873
SWIDTH 754 0
DWIDTH 15 0
BBX 14 27 1 -2
BITMAP
00001000
0001AA40
00074040
001F4040
001F8000
00141500
01014040
0B000040
2F055040
3FBFFE40
3D555550
38000010
F8155410
F8000010
F803FF80
F801AA00
F8000100
F8155100
F8000100
F802F800
F802A540
F8000010
F8155410
F8000010
FD555540
FFFFFF40
FFFFFD00
ENDCHAR
STARTCHAR Ecircumflexhookabove
ENCODING 7874
SWIDTH 754 0
DWIDTH 15 0
BBX 15 28 1 -2
BITMAP
00005550
00018544
000BD514
000FF514
000FE144
0002B560
00500B80
02014040
0B000040
2F055040
3FBFFE40
3D555550
78000010
F8155410
F8000010
F803FF80
F801AA00
F8000100
F8155100
F8000100
F802F800
F802A540
F8000010
F8155410
F8000010
FD555540
FFFFFF40
FFFFFD00
ENDCHAR
STARTCHAR ecircumflexhookabove
ENCODING 7875
SWIDTH 754 0
DWIDTH 15 0
BBX 15 28 1 -2
BITMAP
00005550
00018544
000BD514
000FF514
000FE144
0002B560
00500B80
02014040
0B000040
2F055040
3FBFFE40
3D555550
78000010
F8155410
F8000010
F803FF80
F801AA00
F8000100
F8155100
F8000100
F802F800
F802A540
F8000010
F8155410
F8000010
FD555540
FFFFFF40
FFFFFD00
ENDCHAR
STARTCHAR Ecircumflextilde
ENCODING 7876
SWIDTH 754 0
DWIDTH 15 0
BBX 14 27 1 -2
BITMAP
00555500
02000040
0B055040
3F000040
3FFFA900
3FE41500
16014040
0B000040
2F055040
3FBFFE40
3D555550
78000010
F8155410
F8000010
F803FF80
F801AA00
F8000100
F8155100
F8000100
F802F800
F802A540
F8000010
F8155410
F8000010
FD555540
FFFFFF40
FFFFFD00
ENDCHAR
STARTCHAR ecircumflextilde
ENCODING 7877
SWIDTH 754 0
DWIDTH 15 0
BBX 14 27 1 -2
BITMAP
00555500
02000040
0B055040
3F000040
3FFFA900
3FE41500
16014040
0B000040
2F055040
3FBFFE40
3D555550
78000010
F8155410
F8000010
F803FF80
F801AA00
F8000100
F8155100
F8000100
F802F800
F802A540
F8000010
F8155410
F8000010
FD555540
FFFFFF40
FFFFFD00
ENDCHAR
STARTCHAR Ecircumflexdotbelow
ENCODING 7878
SWIDTH 754 0
DWIDTH 15 0
BBX 14 28 1 -7
BITMAP
00014000
00500500
02014040
0B000040
2F055040
3FBFFE40
3D555550
78000010
F8155410
F8000010
F803FF80
F801AA00
F8000100
F8155100
F8000100
F802F800
F802A540
F8000010
F8155410
F8000010
F8000000
FFFABF40
FFE00900
02E10400
07E00400
07E55000
07FFC000
03FE0000
ENDCHAR
STARTCHAR ecircumflexdotbelow
ENCODING 7879
SWIDTH 754 0
DWIDTH 15 0
BBX 14 28 1 -7
BITMAP
00014000
00500500
02014040
0B000040
2F055040
3FBFFE40
3D555550
78000010
F8155410
F8000010
F803FF80
F801AA00
F8000100
F8155100
F8000100
F802F800
F802A540
F8000010
F8155410
F8000010
F8000000
FFFABF40
FFE00900
02E10400
07E00400
07E55000
07FFC000
03FE0000
ENDCHAR
STARTCHAR Ihookabove
ENCODING 7880
SWIDTH 705 0
DWIDTH 14 0
BBX 14 24 0 -2
BITMAP
00155000
00900400
02D15100
07E54100
07F90100
07F44000
01F96000
06555550
1D000010
7D055410
7E504150
7FF04780
7FF04500
16F04400
02F04400
02F04400
02F04400
02A04140
09004010
2D155410
7D000010
7E555540
7FFFFF40
7FFFF800
ENDCHAR
STARTCHAR ihookabove
ENCODING 7881
SWIDTH 705 0
DWIDTH 14 0
BBX 14 24 0 -2
BITMAP
00155000
00900400
02D15100
07E54100
07F90100
07F44000
01F96000
06555550
1D000010
7D055410
7E504150
7FF04780
7FF04500
16F04400
02F04400
02F04400
02F04400
02A04140
09004010
2D155410
7D000010
7E555540
7FFFFF40
7FFFF800
ENDCHAR
STARTCHAR Idotbelow
ENCODING 7882
SWIDTH 705 0
DWIDTH 14 0
BBX 14 22 0 -7
BITMAP
01555550
1D000010
7D055410
7E504150
7FF04780
7FF04500
16F04400
02F04400
02F04400
02F04400
02A04140
09004010
2D155410
7D000010
7D000000
7FFEAF40
7FF00500
01F04400
02F00400
02F95400
02FFE000
02FF4000
ENDCHAR
STARTCHAR idotbelow
ENCODING 7883
SWIDTH 705 0
DWIDTH 14 0
BBX 14 22 0 -7
BITMAP
01555550
1D000010
7D055410
7E504150
7FF04780
7FF04500
16F04400
02F04400
02F04400
02F04400
02A04140
09004010
2D155410
7D000010
7D000000
7FFEAF40
7FF00500
01F04400
02F00400
02F95400
02FFE000
02FF4000
ENDCHAR
STARTCHAR Odotbelow
ENCODING 7884
SWIDTH 837 0
DWIDTH 17 0
BBX 16 23 0 -8
BITMAP
00155550
00400004
02015501
1E040041
3D10BD10
7D10FD10
7D10FD10
7D10BD10
7D10BD10
7D10BD10
7D10BD10
7D101410
7E040001
7F415501
3FD00014
2FFFAAD0
0BFD0040
007D1040
007D0040
007E0000
007FFD00
007FF400
00154000
ENDCHAR
STARTCHAR odotbelow
ENCODING 7885
SWIDTH 837 0
DWIDTH 17 0
BBX 16 23 0 -8
BITMAP
00155550
00400004
02015501
1E040041
3D10BD10
7D10FD10
7D10FD10
7D10BD10
7D10BD10
7D10BD10
7D10BD10
7D101410
7E040001
7F415501
3FD00014
2FFFAAD0
0BFD0040
007D1040
007D0040
007E0000
007FFD00
007FF400
00154000
ENDCHAR
STARTCHAR Ohookabove
ENCODING 7886
SWIDTH 837 0
DWIDTH 17 0
BBX 16 24 0 -2
BITMAP
00055500
00185440
00780140
00FFA140
00FE1440
006E0140
003E5940
00500004
02015501
0A040041
2D101410
3D10FD10
7D10FD10
7D10BD10
7D10BD10
7D10BD10
7D10BD10
7D10BD10
7E040001
7F015501
3F800004
2FFA56A0
0FFFFF80
01BFE900
ENDCHAR
STARTCHAR ohookabove
ENCODING 7887
SWIDTH 837 0
DWIDTH 17 0
BBX 16 24 0 -2
BITMAP
00055500
00185440
00780140
00FFA140
00FE1440
006E0140
003E5940
00500004
02015501
0A040041
2D101410
3D10FD10
7D10FD10
7D10BD10
7D10BD10
7D10BD10
7D10BD10
7D10BD10
7E040001
7F015501
3F800004
2FFA56A0
0FFFFF80
01BFE900
ENDCHAR
STARTCHAR Ocircumflexacute
ENCODING 7888
SWIDTH 837 0
DWIDTH 17 0
BBX 16 27 0 -2
BITMAP
000002B8
00001E44
00007804
0001F800
0001A444
00000040
00505400
01D00000
07E6FE50
07F955A0
07800004
02015501
0A040041
2D101410
3D10FD10
7D10FD10
7D10BD10
7D10BD10
7D10BD10
7D10BD10
7D10BD10
7E040001
7F015501
3F800004
2FFA56A0
0FFFFF80
01BFE900
ENDCHAR
STARTCHAR ocircumflexacute
ENCODING 7889
SWIDTH 837 0
DWIDTH 17 0
BBX 16 27 0 -2
BITMAP
000002B8
00001E44
00007804
0001F800
0001A444
00000040
00505400
01D00000
07E6FE50
07F955A0
07800004
02015501
0A040041
2D101410
3D10FD10
7D10FD10
7D10BD10
7D10BD10
7D10BD10
7D10BD10
7D10BD10
7E040001
7F015501
3F800004
2FFA56A0
0FFFFF80
01BFE900
ENDCHAR
STARTCHAR Ocircumflexgrave
ENCODING 7890
SWIDTH 837 0
DWIDTH 17 0
BBX 16 27 0 -2
BITMAP
00000940
00003AF4
0001F044
0002F004
0002A000
00000010
00505400
01D00000
07E6FE50
07F955A0
07800004
02015501
0A040041
2D101410
3D10FD10
7D10FD10
7D10BD10
7D10BD10
7D10BD10
7D10BD10
7D10BD10
7E040001
7F015501
3F800004
2FFA56A0
0FFFFF80
01BFE900
ENDCHAR
STARTCHAR ocircumflexgrave
ENCODING 7891
SWIDTH 837 0
DWIDTH 17 0
BBX 16 27 0 -2
BITMAP
00000940
00003AF4
0001F044
0002F004
0002A000
00000010
00505400
01D00000
07E6FE50
07F955A0
07800004
02015501
0A040041
2D101410
3D10FD10
7D10FD10
7D10BD10
7D10BD10
7D10BD10
7D10BD10
7D10BD10
7E040001
7F015501
3F800004
2FFA56A0
0FFFFF80
01BFE900
ENDCHAR
STARTCHAR Ocircumflexhookabove
ENCODING 7892
SWIDTH 837 0
DWIDTH 17 0
BBX 17 28 0 -2
BITMAP
0000055500
0000245400
0000F95040
0001FE5040
0001FD1440
00006E5900
000001B400
0050540000
01D0000000
07E6FE5000
07F955A000
0780000400
0201550100
0A04004100
2D10141000
3D10FD1000
7D10FD1000
7D10BD1000
7D10BD1000
7D10BD1000
7D10BD1000
7D10BD1000
7E04000100
7F01550100
3F80000400
2FFA56A000
0FFFFF8000
01BFE90000
ENDCHAR
STARTCHAR ocircumflexhookabove
ENCODING 7893
SWIDTH 837 0
DWIDTH 17 0
BBX 17 28 0 -2
BITMAP
0000055500
0000245400
0000F95040
0001FE5040
0001FD1440
00006E5900
000001B400
0050540000
01D0000000
07E6FE5000
07F955A000
0780000400
0201550100
0A04004100
2D10141000
3D10FD1000
7D10FD1000
7D10BD1000
7D10BD1000
7D10BD1000
7D10BD1000
7D10BD1000
7E04000100
7F01550100
3F80000400
2FFA56A000
0FFFFF8000
01BFE90000
ENDCHAR
STARTCHAR Ocircumflextilde
ENCODING 7894
SWIDTH 837 0
DWIDTH 17 0
BBX 16 27 0 -2
BITMAP
00055550
00500010
01D05510
07D00010
07FFEA80
07F90100
02505410
01D00000
07E6FE50
07F955A0
07800004
02015501
0A040041
2D101410
3D10FD10
7D10FD10
7D10BD10
7D10BD10
7D10BD10
7D10BD10
7D10BD10
7E040001
7F015501
3F800004
2FFA56A0
0FFFFF80
01BFE900
ENDCHAR
STARTCHAR ocircumflextilde
ENCODING 7895
SWIDTH 837 0
DWIDTH 17 0
BBX 16 27 0 -2
BITMAP
00055550
00500010
01D05510
07D00010
07FFEA80
07F90100
02505410
01D00000
07E6FE50
07F955A0
07800004
02015501
0A040041
2D101410
3D10FD10
7D10FD10
7D10BD10
7D10BD10
7D10BD10
7D10BD10
7D10BD10
7E040001
7F015501
3F800004
2FFA56A0
0FFFFF80
01BFE900
ENDCHAR
STARTCHAR Ocircumflexdotbelow
ENCODING 7896
SWIDTH 837 0
DWIDTH 17 0
BBX 16 28 0 -7
BITMAP
00005400
00050140
00605410
01D10100
07D00000
07E6FE50
07F95590
03815505
0A040041
2E100011
3D10BD10
7D10FD10
7D10FD10
7D10BD10
7D10BD10
7D10BD10
7D10BD10
7D101410
7E040041
7F415501
3FD00014
2FFFAAD0
0BFD0040
007D1040
007D0040
007E5500
007FF800
007FE000
ENDCHAR
STARTCHAR ocircumflexdotbelow
ENCODING 7897
SWIDTH 837 0
DWIDTH 17 0
BBX 16 28 0 -7
BITMAP
00005400
00050140
00605410
01D10100
07D00000
07E6FE50
07F95590
03815505
0A040041
2E100011
3D10BD10
7D10FD10
7D10FD10
7D10BD10
7D10BD10
7D10BD10
7D10BD10
7D101410
7E040041
7F415501
3FD00014
2FFFAAD0
0BFD0040
007D1040
007D0040
007E5500
007FF800
007FE000
ENDCHAR
STARTCHAR Ohornacute
ENCODING 7898
SWIDTH 847 0
DWIDTH 17 0
BBX 18 22 0 -2
BITMAP
0000154000
0055401000
0181541000
0B80001540
0F856A9010
0FE4000000
0740015040
0A00001100
2D10141000
3D10FD1000
7D10FD1000
7D10BD1000
7D10BD1000
7D10BD1000
7D10BD1000
7D10BD1000
7E04000100
7F01550100
7F80000400
3FFA56A000
1FFFFF8000
02BFE90000
ENDCHAR
STARTCHAR ohornacute
ENCODING 7899
SWIDTH 847 0
DWIDTH 17 0
BBX 18 22 0 -2
BITMAP
0000154000
0055401000
0181541000
0B80001540
0F856A9010
0FE4000000
0740015040
0A00001100
2D10141000
3D10FD1000
7D10FD1000
7D10BD1000
7D10BD1000
7D10BD1000
7D10BD1000
7D10BD1000
7E04000100
7F01550100
7F80000400
3FFA56A000
1FFFFF8000
02BFE90000
ENDCHAR
STARTCHAR Ohorngrave
ENCODING 7900
SWIDTH 847 0
DWIDTH 17 0
BBX 18 22 0 -2
BITMAP
00AA950000
0380058000
0F81540000
1F80001540
1FFFA55010
0AE4000000
0140015040
0A00001100
2D10141000
3D10FD1000
7D10FD1000
7D10BD1000
7D10BD1000
7D10BD1000
7D10BD1000
7D10BD1000
7E04000100
7F01550100
7F80000400
3FFA56A000
1FFFFF8000
02BFE90000
ENDCHAR
STARTCHAR ohorngrave
ENCODING 7901
SWIDTH 847 0
DWIDTH 17 0
BBX 18 22 0 -2
BITMAP
00AA950000
0380058000
0F81540000
1F80001540
1FFFA55010
0AE4000000
0140015040
0A00001100
2D10141000
3D10FD1000
7D10FD1000
7D10BD1000
7D10BD1000
7D10BD1000
7D10BD1000
7D10BD1000
7E04000100
7F01550100
7F80000400
3FFA56A000
1FFFFF8000
02BFE90000
ENDCHAR
STARTCHAR Ohornhookabove
ENCODING 7902
SWIDTH 847 0
DWIDTH 17 0
BBX 18 24 0 -2
BITMAP
0005550000
0018544000
0078014000
00FFA14000
00FE014000
00BE155540
003E5A9010
0010000000
0100015040
0A00001100
2D10141000
3D10FD1000
7D10FD1000
7D10BD1000
7D10BD1000
7D10BD1000
7D10BD1000
7D10BD1000
7E04000100
7F01550100
7F80000400
3FFA56A000
1FFFFF8000
02BFE90000
ENDCHAR
STARTCHAR ohornhookabove
ENCODING 7903
SWIDTH 847 0
DWIDTH 17 0
BBX 18 24 0 -2
BITMAP
0005550000
0018544000
0078014000
00FFA14000
00FE014000
00BE155540
003E5A9010
0010000000
0100015040
0A00001100
2D10141000
3D10FD1000
7D10FD1000
7D10BD1000
7D10BD1000
7D10BD1000
7D10BD1000
7D10BD1000
7E04000100
7F01550100
7F80000400
3FFA56A000
1FFFFF8000
02BFE90000
ENDCHAR
STARTCHAR Ohorntilde
ENCODING 7904
SWIDTH 847 0
DWIDTH 17 0
BBX 18 22 0 -2
BITMAP
0015514000
0080001000
0781541000
0F80001540
0FC5505010
0FE4000000
0640015040
0A00001100
2D10141000
3D10FD1000
7D10FD1000
7D10BD1000
7D10BD1000
7D10BD1000
7D10BD1000
7D10BD1000
7E04000100
7F01550100
7F80000400
3FFA56A000
1FFFFF8000
02BFE90000
ENDCHAR
STARTCHAR ohorntilde
ENCODING 7905
SWIDTH 847 0
DWIDTH 17 0
BBX 18 22 0 -2
BITMAP
0015514000
0080001000
0781541000
0F80001540
0FC5505010
0FE4000000
0640015040
0A00001100
2D10141000
3D10FD1000
7D10FD1000
7D10BD1000
7D10BD1000
7D10BD1000
7D10BD1000
7D10BD1000
7E04000100
7F01550100
7F80000400
3FFA56A000
1FFFFF8000
02BFE90000
ENDCHAR
STARTCHAR Ohorndotbelow
ENCODING 7906
SWIDTH 847 0
DWIDTH 17 0
BBX 18 24 0 -7
BITMAP
0000001540
0000005010
0015544110
0041540400
0204001040
1E10000100
3D10BD1000
7D10FD1000
7D10FD1000
7D10BD1000
7D10BD1000
7D10BD1000
7D10BD1000
7D10141000
7E04004100
7F41550100
3FD0001400
2FFFAAD000
0BFD004000
007D104000
007D004000
007E550000
007FF80000
007FE00000
ENDCHAR
STARTCHAR ohorndotbelow
ENCODING 7907
SWIDTH 847 0
DWIDTH 17 0
BBX 18 24 0 -7
BITMAP
0000001540
0000005010
0015544110
0041540400
0204001040
1E10000100
3D10BD1000
7D10FD1000
7D10FD1000
7D10BD1000
7D10BD1000
7D10BD1000
7D10BD1000
7D10141000
7E04004100
7F41550100
3FD0001400
2FFFAAD000
0BFD004000
007D104000
007D004000
007E550000
007FF80000
007FE00000
ENDCHAR
STARTCHAR Udotbelow
ENCODING 7908
SWIDTH 846 0
DWIDTH 17 0
BBX 16 22 0 -7
BITMAP
01554155
0A004900
3E107D10
7E10BD10
7E10BD10
7E10BD10
7E10BD10
7E10BD10
7E10BD10
7E10BD10
7E10BD10
7E001410
7E040001
7F415501
3FE00014
1FFFAAD0
07FD0040
007D1040
007D0040
007E5500
007FF800
007FE000
ENDCHAR
STARTCHAR udotbelow
ENCODING 7909
SWIDTH 846 0
DWIDTH 17 0
BBX 16 22 0 -7
BITMAP
01554155
0A004900
3E107D10
7E10BD10
7E10BD10
7E10BD10
7E10BD10
7E10BD10
7E10BD10
7E10BD10
7E10BD10
7E001410
7E040001
7F415501
3FE00014
1FFFAAD0
07FD0040
007D1040
007D0040
007E5500
007FF800
007FE000
ENDCHAR
STARTCHAR Uhookabove
ENCODING 7910
SWIDTH 846 0
DWIDTH 17 0
BBX 16 24 0 -2
BITMAP
00015500
00091500
002E5010
007FA410
007F4510
002F5590
001FFF40
0155FE55
0A00AD00
3E107D10
7E10BD10
7E10BD10
7E10BD10
7E10BD10
7E10BD10
7E10BD10
7E10BD10
7E006810
7E040000
7F015501
3F800004
2FFA55A0
0BFFFF80
01BFE900
ENDCHAR
STARTCHAR uhookabove
ENCODING 7911
SWIDTH 846 0
DWIDTH 17 0
BBX 16 24 0 -2
BITMAP
00015500
00091500
002E5010
007FA410
007F4510
002F5590
001FFF40
0155FE55
0A00AD00
3E107D10
7E10BD10
7E10BD10
7E10BD10
7E10BD10
7E10BD10
7E10BD10
7E10BD10
7E006810
7E040000
7F015501
3F800004
2FFA55A0
0BFFFF80
01BFE900
ENDCHAR
STARTCHAR Uhornacute
ENCODING 7912
SWIDTH 856 0
DWIDTH 17 0
BBX 18 22 0 -2
BITMAP
00015A8000
0069401000
0281541000
0B80001540
0F856AA010
0E55FA4110
0E005D0400
3E107D1040
7E10BD1000
7E10BD1000
7E10BD1000
7E10BD1000
7E10BD1000
7E10BD1000
7E10BD1000
7E00681000
7E04000000
7F01550100
3F80000400
3FFA55A000
1FFFFF8000
01BFE90000
ENDCHAR
STARTCHAR uhornacute
ENCODING 7913
SWIDTH 856 0
DWIDTH 17 0
BBX 18 22 0 -2
BITMAP
00015A8000
0069401000
0281541000
0B80001540
0F856AA010
0E55FA4110
0E005D0400
3E107D1040
7E10BD1000
7E10BD1000
7E10BD1000
7E10BD1000
7E10BD1000
7E10BD1000
7E10BD1000
7E00681000
7E04000000
7F01550100
3F80000400
3FFA55A000
1FFFFF8000
01BFE90000
ENDCHAR
STARTCHAR Uhorngrave
ENCODING 7914
SWIDTH 856 0
DWIDTH 17 0
BBX 18 22 0 -2
BITMAP
00AA500000
0280568000
0F81540000
1F80001540
1FFA946010
0E55FE4110
0A00BD0400
3E107D1040
7E10BD1000
7E10BD1000
7E10BD1000
7E10BD1000
7E10BD1000
7E10BD1000
7E10BD1000
7E00681000
7E04000000
7F01550100
3F80000400
3FFA55A000
1FFFFF8000
01BFE90000
ENDCHAR
STARTCHAR uhorngrave
ENCODING 7915
SWIDTH 856 0
DWIDTH 17 0
BBX 18 22 0 -2
BITMAP
00AA500000
0280568000
0F81540000
1F80001540
1FFA946010
0E55FE4110
0A00BD0400
3E107D1040
7E10BD1000
7E10BD1000
7E10BD1000
7E10BD1000
7E10BD1000
7E10BD1000
7E10BD1000
7E00681000
7E04000000
7F01550100
3F80000400
3FFA55A000
1FFFFF8000
01BFE90000
ENDCHAR
STARTCHAR Uhornhookabove
ENCODING 7916
SWIDTH 856 0
DWIDTH 17 0
BBX 18 24 0 -2
BITMAP
0001550000
0009154000
002D011000
00BFA51000
00BF011000
006F555540
002FFEA010
0155F94110
0A00AD0400
3E107D1040
7E10BD1000
7E10BD1000
7E10BD1000
7E10BD1000
7E10BD1000
7E10BD1000
7E10BD1000
7E00681000
7E04001000
7F01550100
3F80000400
3FFA55A000
1FFFFF8000
01BFE90000
ENDCHAR
STARTCHAR uhornhookabove
ENCODING 7917
SWIDTH 856 0
DWIDTH 17 0
BBX 18 24 0 -2
BITMAP
0001550000
0009154000
002D011000
00BFA51000
00BF011000
006F555540
002FFEA010
0155F94110
0A00AD0400
3E107D1040
7E10BD1000
7E10BD1000
7E10BD1000
7E10BD1000
7E10BD1000
7E10BD1000
7E10BD1000
7E00681000
7E04001000
7F01550100
3F80000400
3FFA55A000
1FFFFF8000
01BFE90000
ENDCHAR
STARTCHAR Uhorntilde
ENCODING 7918
SWIDTH 856 0
DWIDTH 17 0
BBX 18 22 0 -2
BITMAP
0015514000
0080001000
0381541000
0F80001540
0F95506010
0E55FE4110
1E00BD0400
3E107D1040
7E10BD1000
7E10BD1000
7E10BD1000
7E10BD1000
7E10BD1000
7E10BD1000
7E10BD1000
7E00681000
7E04000000
7F01550100
3F80000400
3FFA55A000
1FFFFF8000
01BFE90000
ENDCHAR
STARTCHAR uhorntilde
ENCODING 7919
SWIDTH 856 0
DWIDTH 17 0
BBX 18 22 0 -2
BITMAP
0015514000
0080001000
0381541000
0F80001540
0F95506010
0E55FE4110
1E00BD0400
3E107D1040
7E10BD1000
7E10BD1000
7E10BD1000
7E10BD1000
7E10BD1000
7E10BD1000
7E10BD1000
7E00681000
7E04000000
7F01550100
3F80000400
3FFA55A000
1FFFFF8000
01BFE90000
ENDCHAR
STARTCHAR Uhorndotbelow
ENCODING 7920
SWIDTH 856 0
DWIDTH 17 0
BBX 18 24 0 -7
BITMAP
0000001540
0000006010
0155414110
0A00490400
3E107D1040
7E10BD1000
7E10BD1000
7E10BD1000
7E10BD1000
7E10BD1000
7E10BD1000
7E10BD1000
7E10BD1000
7E00141000
7E04000100
7F41550100
3FE0001400
1FFFAAD000
07FD004000
007D104000
007D004000
007E550000
007FF80000
007FE00000
ENDCHAR
STARTCHAR uhorndotbelow
ENCODING 7921
SWIDTH 856 0
DWIDTH 17 0
BBX 18 24 0 -7
BITMAP
0000001540
0000006010
0155414110
0A00490400
3E107D1040
7E10BD1000
7E10BD1000
7E10BD1000
7E10BD1000
7E10BD1000
7E10BD1000
7E10BD1000
7E10BD1000
7E00141000
7E04000100
7F41550100
3FE0001400
1FFFAAD000
07FD004000
007D104000
007D004000
007E550000
007FF80000
007FE00000
ENDCHAR
STARTCHAR Ygrave
ENCODING 7922
SWIDTH 805 0
DWIDTH 16 0
BBX 16 22 0 -2
BITMAP
006A5400
01C01690
07C15410
0FC00010
0FFA9500
0956FD55
1D01BC01
7D117C11
BD11BC11
BD11BC11
BD10B811
BD047041
BF040004
7F810000
2FE05010
0FF41040
07FC1100
02FC0100
00FC0100
00BE5500
00BFF800
00BFD000
ENDCHAR
STARTCHAR ygrave
ENCODING 7923
SWIDTH 805 0
DWIDTH 16 0
BBX 16 22 0 -2
BITMAP
006A5400
01C01690
07C15410
0FC00010
0FFA9500
0956FD55
1D01BC01
7D117C11
BD11BC11
BD11BC11
BD10B811
BD047041
BF040004
7F810000
2FE05010
0FF41040
07FC1100
02FC0100
00FC0100
00BE5500
00BFF800
00BFD000
ENDCHAR
STARTCHAR Ydotbelow
ENCODING 7924
SWIDTH 805 0
DWIDTH 16 0
BBX 16 22 0 -7
BITMAP
05550555
1D011C01
7D117C11
BD11BC11
BD11BC11
BD10B811
BD047041
BF040004
7F810004
3FD05010
1FF41040
0BFC1000
02FC1100
01FC0100
00BC0100
00BFA900
00BC0100
007C1100
00BC0100
00BE5500
00BFF800
00BFD000
ENDCHAR
STARTCHAR ydotbelow
ENCODING 7925
SWIDTH 805 0
DWIDTH 16 0
BBX 16 22 0 -7
BITMAP
05550555
1D011C01
7D117C11
BD11BC11
BD11BC11
BD10B811
BD047041
BF040004
7F810004
3FD05010
1FF41040
0BFC1000
02FC1100
01FC0100
00BC0100
00BFA900
00BC0100
007C1100
00BC0100
00BE5500
00BFF800
00BFD000
ENDCHAR
STARTCHAR Yhookabove
ENCODING 7926
SWIDTH 805 0
DWIDTH 16 0
BBX 16 24 0 -2
BITMAP
00055500
00180040
00785440
00F95140
01FE5100
00BE1000
007E5800
0556F955
1D01AC01
7D117C11
BD11BC11
BD11BC11
BD10B811
BD047041
BF040004
7F810000
2FE05010
0FF41040
07FC1100
02FC0100
00FC0100
00BE5500
00BFF800
00BFD000
ENDCHAR
STARTCHAR yhookabove
ENCODING 7927
SWIDTH 805 0
DWIDTH 16 0
BBX 16 24 0 -2
BITMAP
00055500
00180040
00785440
00F95140
01FE5100
00BE1000
007E5800
0556F955
1D01AC01
7D117C11
BD11BC11
BD11BC11
BD10B811
BD047041
BF040004
7F810000
2FE05010
0FF41040
07FC1100
02FC0100
00FC0100
00BE5500
00BFF800
00BFD000
ENDCHAR
STARTCHAR Ytilde
ENCODING 7928
SWIDTH 805 0
DWIDTH 16 0
BBX 16 22 0 -2
BITMAP
00055550
00500010
01C15010
07C00010
0BD55000
0956FD55
1D01FC01
7D117C11
BD11BC11
BD11BC11
BD10B811
BD047041
BF040004
7F810000
2FE05010
0FF41040
07FC1100
02FC0100
00FC0100
00BE5500
00BFF800
00BFD000
ENDCHAR
STARTCHAR ytilde
ENCODING 7929
SWIDTH 805 0
DWIDTH 16 0
BBX 16 22 0 -2
BITMAP
00055550
00500010
01C15010
07C00010
0BD55000
0956FD55
1D01FC01
7D117C11
BD11BC11
BD11BC11
BD10B811
BD047041
BF040004
7F810000
2FE05010
0FF41040
07FC1100
02FC0100
00FC0100
00BE5500
00BFF800
00BFD000
ENDCHAR
STARTCHAR enspace
ENCODING 8192
SWIDTH 500 0
DWIDTH 10 0
BBX 1 1 0 0
BITMAP
00
ENDCHAR
STARTCHAR emspace
ENCODING 8193
SWIDTH 1000 0
DWIDTH 20 0
BBX 1 1 0 0
BITMAP
00
ENDCHAR
STARTCHAR uni2002
ENCODING 8194
SWIDTH 500 0
DWIDTH 10 0
BBX 1 1 0 0
BITMAP
00
ENDCHAR
STARTCHAR uni2003
ENCODING 8195
SWIDTH 1000 0
DWIDTH 20 0
BBX 1 1 0 0
BITMAP
00
ENDCHAR
STARTCHAR space.tab_en
ENCODING 8199
SWIDTH 1100 0
DWIDTH 22 0
BBX 1 1 0 0
BITMAP
00
ENDCHAR
STARTCHAR uni2010
ENCODING 8208
SWIDTH 520 0
DWIDTH 10 0
BBX 10 7 0 3
BITMAP
015550
080000
7C1500
BC0000
BE5550
BFFF80
BFFE00
ENDCHAR
STARTCHAR figuredash
ENCODING 8210
SWIDTH 834 0
DWIDTH 17 0
BBX 15 7 1 3
BITMAP
05555554
18000004
B8155504
F8000004
FD555554
FFFFFFE0
FFFFFF40
ENDCHAR
STARTCHAR endash
ENCODING 8211
SWIDTH 834 0
DWIDTH 17 0
BBX 15 7 1 3
BITMAP
05555554
18000004
B8155504
F8000004
FD555554
FFFFFFE0
FFFFFF40
ENDCHAR
STARTCHAR emdash
ENCODING 8212
SWIDTH 1234 0
DWIDTH 25 0
BBX 23 7 1 3
BITMAP
055555555554
180000000004
B81555555504
F80000000004
FD5555555554
FFFFFFFFFFE0
FFFFFFFFFF40
ENDCHAR
STARTCHAR horizontalbar
ENCODING 8213
SWIDTH 1234 0
DWIDTH 25 0
BBX 23 7 1 3
BITMAP
055555555554
180000000004
B81555555504
F80000000004
FD5555555554
FFFFFFFFFFE0
FFFFFFFFFF40
ENDCHAR
STARTCHAR quoteleft
ENCODING 8216
SWIDTH 484 0
DWIDTH 10 0
BBX 9 10 0 5
BITMAP
005540
021440
0E0B40
3D4040
7D4000
7D1400
7D0000
7E5540
7FFE00
7FF800
ENDCHAR
STARTCHAR quoteright
ENCODING 8217
SWIDTH 484 0
DWIDTH 10 0
BBX 9 11 0 4
BITMAP
015540
1D0000
7D1500
7D0100
7D0100
7FF540
7E1440
2E5500
3FF800
3FD000
040000
ENDCHAR
STARTCHAR quotesinglbase
ENCODING 8218
SWIDTH 484 0
DWIDTH 10 0
BBX 9 10 0 -4
BITMAP
015540
090000
2D1500
7D0100
7D0100
7FF540
7E1440
2E5500
3FF800
3FD000
ENDCHAR
STARTCHAR quotedblleft
ENCODING 8220
SWIDTH 784 0
DWIDTH 16 0
BBX 16 10 0 5
BITMAP
00554554
01146044
1D4FE1B8
3D406101
7D406101
BD146141
BD006001
BE55B554
BFFFFFE0
7FF7FF80
ENDCHAR
STARTCHAR quotedblright
ENCODING 8221
SWIDTH 784 0
DWIDTH 16 0
BBX 16 11 0 4
BITMAP
05555554
1D006001
7D146151
BD016011
BD016011
BFE07F51
7E14B144
2E56F550
7FF7FF80
7FD3FE00
04004000
ENDCHAR
STARTCHAR quotedblbase
ENCODING 8222
SWIDTH 784 0
DWIDTH 16 0
BBX 16 10 0 -4
BITMAP
01555554
09006001
7D146151
BD016011
BD016011
BFE07F51
7E14B144
2E56F550
7FF7FF80
7F93FE00
ENDCHAR
STARTCHAR dagger
ENCODING 8224
SWIDTH 818 0
DWIDTH 16 0
BBX 16 17 0 -2
BITMAP
00055500
001D0100
007D1100
01591155
1D001001
7D155541
7D001001
7E551155
7FFE12F8
7FFE12E0
007D1100
007D1100
007D0100
007D0100
007E5500
007FF800
007FD000
ENDCHAR
STARTCHAR daggerdbl
ENCODING 8225
SWIDTH 818 0
DWIDTH 16 0
BBX 16 17 0 -2
BITMAP
00055500
002D0100
05001001
2D155541
7D001001
7E591195
7FFD11F8
7FFD11E0
15591155
1D001001
7D155551
7D001001
7E590195
7FFD01F8
6ABE5590
007FF800
007FD000
ENDCHAR
STARTCHAR bullet
ENCODING 8226
SWIDTH 543 0
DWIDTH 11 0
BBX 11 10 0 1
BITMAP
015550
090004
3D1544
BD1044
BD1044
BD1504
BD0004
BE5554
BFFFD0
7FFE00
ENDCHAR
STARTCHAR ellipsis
ENCODING 8230
SWIDTH 1210 0
DWIDTH 24 0
BBX 24 9 0 -2
BITMAP
015541550554
090018006001
2D003800B001
7D043810F041
7D043810F041
7D003800F001
7E55BD55F554
7FFEFFFFFFF4
7FF8FFE2FFC0
ENDCHAR
STARTCHAR perthousand
ENCODING 8240
SWIDTH 1517 0
DWIDTH 30 0
BBX 31 17 0 -2
BITMAP
0055505540000000
0515064000000000
1D444B0100000000
7C4D4B1100000000
BC4D4A1100000000
BC49491015401540
BD40480400010010
BE150C4515081504
BF95B84844484444
7FFFF44C4D484D44
1BF8F01C4D484D44
0001F12C4D484D44
0002E12C404C4044
0002D03E151D1500
0003E5BF95BF9540
0007FE7FFFBFFE00
0007F42FF82FF800
ENDCHAR
STARTCHAR minute
ENCODING 8242
SWIDTH 456 0
DWIDTH 9 0
BBX 9 10 0 5
BITMAP
015540
0A0040
3E0040
3E1040
7D1040
7D1040
7D0040
7E5500
7FF800
7FE000
ENDCHAR
STARTCHAR second
ENCODING 8243
SWIDTH 766 0
DWIDTH 15 0
BBX 15 10 0 5
BITMAP
01555554
0A00A004
3E00A044
3E10A044
7D10A004
7D10E004
7D00E004
7E56F550
7FFFFFD0
7FE3FE00
ENDCHAR
STARTCHAR guilsinglleft
ENCODING 8249
SWIDTH 663 0
DWIDTH 13 0
BBX 12 13 0 -1
BITMAP
000155
005000
020150
0A1400
2E1069
7E10A4
7E1400
7F0150
7F9000
3FFF95
1FFFFD
016FF4
000040
ENDCHAR
STARTCHAR guilsinglright
ENCODING 8250
SWIDTH 663 0
DWIDTH 13 0
BBX 12 13 1 -1
BITMAP
095500
2C0014
BC1500
FC0051
FFA411
FFA411
6C0051
2C1500
BC0014
FC5BD0
FFFE00
FE9400
500000
ENDCHAR
STARTCHAR fraction
ENCODING 8260
SWIDTH 417 0
DWIDTH 8 0
BBX 10 17 -1 -2
BITMAP
001550
00A010
02E110
03D110
03D000
07C440
0B8440
0B8440
0F4440
0F4440
1F0000
1F1100
2E1100
3E0100
3E5400
7FF400
7F8000
ENDCHAR
STARTCHAR zero.sups
ENCODING 8304
SWIDTH 656 0
DWIDTH 13 0
BBX 12 12 0 2
BITMAP
051040
1C4001
380B41
380F41
780B41
780B41
780B41
7C4101
3C1540
3F4014
1FFFD0
02A900
ENDCHAR
STARTCHAR foursuperior
ENCODING 8308
SWIDTH 608 0
DWIDTH 12 0
BBX 12 14 0 1
BITMAP
055555
1C4B51
7C4B51
BC4B51
BC4B51
BC4011
BD1551
BE4011
BFFF51
3FFF41
056FA9
002FF8
002FD0
000100
ENDCHAR
STARTCHAR five.sups
ENCODING 8309
SWIDTH 593 0
DWIDTH 12 0
BBX 12 13 0 2
BITMAP
015554
0E1004
3E0004
7E07F4
7E0004
7E1001
7E0001
7FFF01
7E5511
2D1540
7E5564
7FFFD0
7FFE00
ENDCHAR
STARTCHAR six.sups
ENCODING 8310
SWIDTH 628 0
DWIDTH 13 0
BBX 12 13 0 2
BITMAP
005554
020544
0A1004
2D07F4
7D0005
7D1501
7D1744
7D0780
7E0000
7F0001
7FD554
3FFFE0
0BFF40
ENDCHAR
STARTCHAR seven.sups
ENCODING 8311
SWIDTH 577 0
DWIDTH 12 0
BBX 11 13 0 2
BITMAP
055554
2C0004
BC0014
BFFE14
BFF914
558044
024400
0F1190
1F1100
2F0100
2F9500
2FF400
2FD000
ENDCHAR
STARTCHAR eight.sups
ENCODING 8312
SWIDTH 638 0
DWIDTH 13 0
BBX 13 14 0 1
BITMAP
00155400
01400100
07000100
1F034100
2F524100
3E155100
2D000400
2D478040
7D068440
BD045040
BF901500
7FFFF400
2FFFD000
06A90000
ENDCHAR
STARTCHAR nine.sups
ENCODING 8313
SWIDTH 628 0
DWIDTH 13 0
BBX 12 14 0 1
BITMAP
005554
010041
0D0001
3D0741
7D0741
BD0051
BF4001
7FFF41
3F4001
0B4001
1F4004
1FFFE0
1FFF40
055400
ENDCHAR
STARTCHAR parenleft.sups
ENCODING 8317
SWIDTH 434 0
DWIDTH 9 0
BBX 7 14 0 2
BITMAP
0100
1800
3804
7804
7800
7800
7800
7800
7800
7800
7800
7D00
3FE8
1BE0
ENDCHAR
STARTCHAR parenright.sups
ENCODING 8318
SWIDTH 435 0
DWIDTH 9 0
BBX 8 15 0 2
BITMAP
0400
1800
7810
7910
7F10
2F50
0B50
0B50
0B50
0B50
0B10
0811
7804
7EA0
7F40
ENDCHAR
STARTCHAR n.sups
ENCODING 8319
SWIDTH 673 0
DWIDTH 13 0
BBX 11 13 1 2
BITMAP
010010
040004
700000
F02D10
F03E10
F02E10
F02E10
F02E10
F02E10
F02E00
F02E04
FF9FF4
A91A80
ENDCHAR
STARTCHAR zero.sinf
ENCODING 8320
SWIDTH 656 0
DWIDTH 13 0
BBX 12 12 0 -2
BITMAP
051040
1C4001
380B41
380F41
780B41
780B41
780B41
7C4101
3C1540
3F4014
1FFFD0
02A900
ENDCHAR
STARTCHAR one.sinf
ENCODING 8321
SWIDTH 557 0
DWIDTH 11 0
BBX 11 13 0 -2
BITMAP
015540
1E1440
3E4040
7FD040
7FD040
07D040
07D040
069014
090004
2D1544
7E5554
BFFFE0
7FFF40
ENDCHAR
STARTCHAR two.sinf
ENCODING 8322
SWIDTH 585 0
DWIDTH 12 0
BBX 12 13 0 -2
BITMAP
015550
0E1544
3E5410
3FFD10
3F9014
060504
1D0190
7C4654
BC4001
BC1541
BE5554
BFFFE0
BFFF80
ENDCHAR
STARTCHAR three.sinf
ENCODING 8323
SWIDTH 584 0
DWIDTH 12 0
BBX 12 13 0 -2
BITMAP
055550
1D1500
7D0044
BFFC44
7F8050
1B4544
1F8011
1FFF11
1D5411
1D1544
7E5564
BFFFC0
7FFE00
ENDCHAR
STARTCHAR four.sinf
ENCODING 8324
SWIDTH 620 0
DWIDTH 12 0
BBX 12 14 0 -3
BITMAP
055655
2C4B11
BC4B11
BC4B11
BC4B11
BC4011
BC1551
BE4011
BFFF11
7FFF01
056FA9
002FF4
002FD0
000500
ENDCHAR
STARTCHAR five.sinf
ENCODING 8325
SWIDTH 593 0
DWIDTH 12 0
BBX 12 13 0 -2
BITMAP
015554
0E1004
3E0004
7E07F4
7E0004
7E1001
7E0001
7FFF01
7E5511
2D1540
7E5564
7FFFD0
7FFE00
ENDCHAR
STARTCHAR six.sinf
ENCODING 8326
SWIDTH 628 0
DWIDTH 13 0
BBX 12 13 0 -2
BITMAP
005554
020544
0A1004
2D07F4
7D0005
7D1501
7D1744
7D0780
7E0000
7F0001
7FD554
3FFFE0
0BFF40
ENDCHAR
STARTCHAR seven.sinf
ENCODING 8327
SWIDTH 577 0
DWIDTH 12 0
BBX 11 13 0 -2
BITMAP
055554
2C0004
BC0014
BFFE14
BFF914
558044
024400
0F1190
1F1100
2F0100
2F9500
2FF400
2FD000
ENDCHAR
STARTCHAR eight.sinf
ENCODING 8328
SWIDTH 638 0
DWIDTH 13 0
BBX 13 14 0 -3
BITMAP
00155400
01400100
07000100
1F034100
2F524100
3E155100
2D000400
2D478040
7D068440
BD045040
BF901500
7FFFF400
2FFFD000
06A90000
ENDCHAR
STARTCHAR nine.sinf
ENCODING 8329
SWIDTH 628 0
DWIDTH 13 0
BBX 12 14 0 -3
BITMAP
005554
010041
0D0001
3D0741
7D0741
BD0051
BF4001
7FFF41
3F4001
0B4001
1F4004
1FFFE0
1FFF40
055400
ENDCHAR
STARTCHAR parenleft.sinf
ENCODING 8333
SWIDTH 434 0
DWIDTH 9 0
BBX 7 14 0 -2
BITMAP
0100
1800
3804
7804
7800
7800
7800
7800
7800
7800
7800
7D00
3FE8
1BE0
ENDCHAR
STARTCHAR parenright.sinf
ENCODING 8334
SWIDTH 435 0
DWIDTH 9 0
BBX 8 15 0 -2
BITMAP
0400
1800
7810
7910
7F10
2F50
0B50
0B50
0B50
0B50
0B10
0811
7804
7EA0
7F40
ENDCHAR
STARTCHAR colonsign
ENCODING 8353
SWIDTH 728 0
DWIDTH 15 0
BBX 15 19 0 -3
BITMAP
00015500
00051450
00404104
00015504
06040004
1D100000
3D10BFD0
7D10FF00
7D109400
7D104000
7D105550
7E040004
7F015504
7F804104
3FF81050
1FFD2480
07FE7900
007FFD00
0079E000
ENDCHAR
STARTCHAR lira
ENCODING 8356
SWIDTH 795 0
DWIDTH 16 0
BBX 16 17 0 -2
BITMAP
00155540
00400010
02015410
0E040000
2E00BF40
3C001D00
38150000
BD005154
F8150C01
B8001C01
FE00BC11
FE000011
3E055541
3E000001
3F555554
3FFFFFF4
3FFFFF80
ENDCHAR
STARTCHAR naira
ENCODING 8358
SWIDTH 853 0
DWIDTH 17 0
BBX 17 17 0 -2
BITMAP
0155015500
0A004E0040
2E142E1040
3E110A1040
3D10411040
3810101000
3810041400
BE10401080
F810901400
BD10F05040
FE10F81040
FE10FE1040
7E10FE1040
3E00BE0040
3F557E5500
3FFD7FF800
3FE03FE000
ENDCHAR
STARTCHAR peseta
ENCODING 8359
SWIDTH 812 0
DWIDTH 16 0
BBX 17 17 0 -2
BITMAP
0155555000
0A00000400
2E05550100
3D00004100
3800B81040
3810BC1040
FC00B81000
FE00004100
FE05550000
3E00000000
3E00559000
3E00BF4000
3E00B80000
3E00400000
3F55000000
3FFD000000
3FE0000000
ENDCHAR
STARTCHAR dong
ENCODING 8363
SWIDTH 782 0
DWIDTH 16 0
BBX 16 21 0 -6
BITMAP
00001550
00016004
00091551
002E0001
007FF008
00555000
01055500
09100000
3C12F000
7C03F000
BC03F000
BD104100
BD100110
BF055400
7FE55640
3FAAA940
0B055400
1F400040
2FFFFF40
2FFFFD00
05555000
ENDCHAR
STARTCHAR Euro
ENCODING 8364
SWIDTH 748 0
DWIDTH 15 0
BBX 15 17 0 -2
BITMAP
00155554
00400004
02415504
0F040000
2E006AD0
3C155440
7C000040
BE00AA00
BC000040
7D155540
BF006A50
BF040004
7F415504
2FD00004
2FF95550
0FFFFFD0
02FFFF00
ENDCHAR
STARTCHAR peso
ENCODING 8369
SWIDTH 812 0
DWIDTH 16 0
BBX 17 17 0 -2
BITMAP
0155555000
0A00000400
3E05550000
3D00004100
3810B81040
BE00BC1200
F800B81040
B810005040
BE05554200
FE00000400
7E00559000
3E00BF4000
3E00B80000
3E00400000
3F55000000
3FFD000000
3FE0000000
ENDCHAR
STARTCHAR guarani
ENCODING 8370
SWIDTH 788 0
DWIDTH 16 0
BBX 16 20 0 -4
BITMAP
00015500
00090100
00280000
00401004
02015504
0E000004
2D10AA90
3D11FF80
7D115900
7D112801
7D11B801
7D10A441
7E040041
7F015541
3F801001
2FF901A4
0BFD01E0
01BFAA40
007FF400
006A9000
ENDCHAR
STARTCHAR cedi
ENCODING 8373
SWIDTH 728 0
DWIDTH 15 0
BBX 15 19 0 -3
BITMAP
00015500
00050050
00401004
00015504
06040004
1D100000
3D10BFD0
7D10FF00
7D109400
7D104000
7D105550
7E000004
7F015504
7F801004
3FF80050
1FFD0180
07FE5500
007FF800
007FD000
ENDCHAR
STARTCHAR indianrupee
ENCODING 8377
SWIDTH 713 0
DWIDTH 14 0
BBX 14 17 0 -2
BITMAP
01555550
1D155510
7E541050
7FA91090
7D001010
2D155510
7D001000
7FFD1180
7D001140
2D055410
7E554110
BFFFC110
7FFFC010
000BC010
000BE550
000BFF80
0007FD00
ENDCHAR
STARTCHAR turkishlira
ENCODING 8378
SWIDTH 795 0
DWIDTH 16 0
BBX 17 17 -1 -2
BITMAP
0055400000
0740100000
0F44100000
1F44040000
1E15440000
1E04240000
7F44045540
7E14164040
2E442F0040
7F442F0440
7F44290040
1F44001000
1F41554100
1F40000400
1F9555A000
1FFFFF8000
1FFFF90000
ENDCHAR
STARTCHAR ruble
ENCODING 8381
SWIDTH 782 0
DWIDTH 16 0
BBX 16 17 0 -2
BITMAP
01555550
0A000004
3E055500
3E005441
3E00BC01
3E00B801
3E000041
3E055504
3E000014
3E00BFD0
38001F40
38150400
BC001000
FE009000
FF550000
7FFD0000
3FE00000
ENDCHAR
STARTCHAR liter
ENCODING 8467
SWIDTH 749 0
DWIDTH 15 0
BBX 15 18 0 -3
BITMAP
00155500
00400010
06055410
1E004104
3D10E104
7D11E104
7D10D104
7D100100
7D155410
7D100140
7D10FE00
7D101540
7E040040
7F405040
3FD40040
2FFFFE00
0BFFF800
00555000
ENDCHAR
STARTCHAR uni2117
ENCODING 8471
SWIDTH 967 0
DWIDTH 19 0
BBX 19 22 0 -5
BITMAP
0000555000
0014555140
0045154510
0207FFFD40
0E5E55AF14
2E5C150754
3E6C401354
7E6C4A1254
7E6C4B1254
7E6C451254
7E6C554354
7E6C401B54
7E6C4BEF54
7E6C0A1F54
7E5D541F54
7E4FD01F14
7F51555440
3FD5555440
2FFA555A40
0BFFFFF800
01BFFF9000
0000400000
ENDCHAR
STARTCHAR uni2120
ENCODING 8480
SWIDTH 1003 0
DWIDTH 20 0
BBX 20 12 0 3
BITMAP
0055415054
0115180601
1C40285651
7C4AF84011
BC50284511
BE01185051
BFE8585A51
7C00585F51
2C14281F41
BEAAFEAFE8
BFFDFF5FE0
6AA0680A80
ENDCHAR
STARTCHAR trademark
ENCODING 8482
SWIDTH 1003 0
DWIDTH 20 0
BBX 20 12 0 3
BITMAP
0555515054
1855480601
B804085651
FF85F84011
FF85F84511
5F85F85051
0F85F85A51
0F85F85F51
0F81F81F41
0FE9FEAFE8
0FF4FF5FE0
0A90A80A80
ENDCHAR
STARTCHAR Omega
ENCODING 8486
SWIDTH 877 0
DWIDTH 18 0
BBX 18 18 0 -3
BITMAP
0005555000
0040000100
0141554000
0B04001040
1F04690040
2F04BE0040
3F04BE0040
3F047E0040
3F047E0040
3F047E0040
3F447E0000
3D042C1050
2C01184010
BC15181410
BC00280010
BFFFFFFF40
BFFEFFFD00
1554555000
ENDCHAR
STARTCHAR estimated
ENCODING 8494
SWIDTH 815 0
DWIDTH 16 0
BBX 16 18 0 -3
BITMAP
00155550
00400004
06015501
1D100001
3D10A811
7D11FC11
7D100011
7D155551
7D100001
7D10AAA9
7D11FFF4
7D101550
7E050004
7F400004
3FD00004
2FFFFFD0
0BFFFF40
00555400
ENDCHAR
STARTCHAR onethird
ENCODING 8531
SWIDTH 1269 0
DWIDTH 25 0
BBX 25 17 0 -2
BITMAP
01554055400000
1E1441C0400000
3E4047C4400000
7FD04B84400000
7FD04F84555400
1BD04F44C15100
07D05F00C00400
06901B11FF8400
09000611F40500
2D154611F05440
7E555912F40040
BFFFFD12FFE100
7FFFBC06D54140
00007C06C15440
0000BD5BD55500
0000FFDBFFF800
0000FF4BFFD000
ENDCHAR
STARTCHAR twothirds
ENCODING 8532
SWIDTH 1269 0
DWIDTH 25 0
BBX 25 17 0 -2
BITMAP
01555055400000
0A1545C0400000
3E0013C4400000
3FFE1384400000
3FE41784555400
16050B44C15100
0D51AF00C00400
3C465B11FF8400
BC400211F40500
BC000211F05440
BE555512F40040
BFFFFD12FFE100
BFFFFC06D54140
0000BC06C15440
0000BD5BD55500
0000FFDBFFF800
0000BF4BFFD000
ENDCHAR
STARTCHAR oneeighth
ENCODING 8539
SWIDTH 1283 0
DWIDTH 26 0
BBX 26 17 0 -2
BITMAP
01554055400000
0E1441C0000000
3E4047C4400000
7FD04B84415400
7FD04F84500100
1BD04F44800040
07D05F00809440
06901B11C1D440
09000611D40440
2D154612855440
BE55591241A110
BFFFFD1302E010
7FFFBC07400100
0000BC07455400
0000BD5BE55500
0000FFEFFFF800
0000BF46FF9000
ENDCHAR
STARTCHAR threeeighths
ENCODING 8540
SWIDTH 1293 0
DWIDTH 26 0
BBX 26 17 0 -2
BITMAP
05555015400000
1D1505D0100000
7E5447C0000000
BFE84BC4415400
7F405B84400040
1B854384815440
1FFF1344C49040
1E541340D0E140
1D154311D00440
7D000611895910
7E556E1245A110
BFFFBD1241F010
7FFE7D03400010
00007C07815400
0000BD5BE55500
0000BFEFFFF800
0000BF46FF9000
ENDCHAR
STARTCHAR fiveeighths
ENCODING 8541
SWIDTH 1303 0
DWIDTH 26 0
BBX 26 17 0 -2
BITMAP
01555415500000
1E100490100000
3E0007D1100000
7E02ABC0015500
7E1007C4400040
7E000284510440
7FFF028494A140
7E551244D0E040
2D154240D10440
3D000711865910
7E556E1184A110
7FFFBE1281F110
7FFE3D02800010
00003D03C15400
00007E5BF55500
00007FEFFFF800
00007F86FF9000
ENDCHAR
STARTCHAR seveneighths
ENCODING 8542
SWIDTH 1241 0
DWIDTH 25 0
BBX 25 17 0 -2
BITMAP
05555455000000
2C000740400000
BD551711000000
BFFE1711055000
BFE41611400500
01404612000100
07441D13124100
0F11FC03138100
2F11BC47500100
2F01B846155100
2F95B849068440
2FF4F44D07C040
2FD1F40D000440
0001F01E055000
0002F56F955400
0002FFBFFFE000
0002FD1BFE4000
ENDCHAR
STARTCHAR arrowleft
ENCODING 8592
SWIDTH 1100 0
DWIDTH 22 0
BBX 16 14 3 -1
BITMAP
00001100
00004100
00040100
00101154
01011001
08041541
2D041001
FF805155
BFE402F8
2FFD02E0
07FF8100
00BFF900
001FF400
00028000
ENDCHAR
STARTCHAR arrowup
ENCODING 8593
SWIDTH 1100 0
DWIDTH 22 0
BBX 15 16 4 -2
BITMAP
00014000
00091000
00280400
00A04100
01D11100
02400040
0A040410
1C004010
38004004
BFF84BE0
FFF84B40
55F80500
01F40400
01FEA000
01FF8000
00AA0000
ENDCHAR
STARTCHAR arrowright
ENCODING 8594
SWIDTH 1100 0
DWIDTH 22 0
BBX 16 14 3 -1
BITMAP
00054000
001D0400
007D0100
01BD1010
08001104
3C155041
BC001141
BD541404
BFFD1050
BFFD0240
00BD1800
00BE9000
00BE0000
00740000
ENDCHAR
STARTCHAR arrowdown
ENCODING 8595
SWIDTH 1100 0
DWIDTH 22 0
BBX 15 16 4 -2
BITMAP
00055000
00240400
00F40400
01F84400
05A44550
18004004
BD055410
FF040440
BF801040
3FD10100
1FF04400
0BF80400
03FD1000
01FF8000
00BE0000
00140000
ENDCHAR
STARTCHAR arrowupleft
ENCODING 8598
SWIDTH 1100 0
DWIDTH 22 0
BBX 14 14 4 -1
BITMAP
01540000
08005500
3D100010
BD115000
BE100000
7E104100
7F040100
3F400040
3F414010
2F87D000
1FDFF500
1F8BF800
0E02E000
00004000
ENDCHAR
STARTCHAR arrowupright
ENCODING 8599
SWIDTH 1100 0
DWIDTH 22 0
BBX 14 14 4 -1
BITMAP
00000540
00154010
01000010
1E015110
3F810010
7FE04440
1FC11440
06040040
08008040
2E02E040
BF8BF900
7FE7F800
1F41E000
05000000
ENDCHAR
STARTCHAR arrowdownright
ENCODING 8600
SWIDTH 1100 0
DWIDTH 22 0
BBX 14 14 4 -1
BITMAP
00100000
00440400
05015040
1D004040
7F400440
BFD05440
2FD04400
0B410010
06005510
1F500010
7FFFA410
2FFFFF80
016BFE00
00005400
ENDCHAR
STARTCHAR arrowdownleft
ENCODING 8601
SWIDTH 1100 0
DWIDTH 22 0
BBX 14 14 4 -1
BITMAP
00000500
00841040
07418010
0F400410
1F041040
1F054100
2E004100
3E101040
3D154010
7C000140
7D16BE00
BFFFF800
BFE90000
14000000
ENDCHAR
STARTCHAR uni21AA
ENCODING 8618
SWIDTH 1100 0
DWIDTH 22 0
BBX 17 19 3 -3
BITMAP
0015555000
0140000400
0505550400
2C00000400
7C47FFE400
BC4BFF8000
FC4A990000
FC47810000
FC4BC05000
FC46800400
FC00014100
FD05551040
BF40014100
BFFFC00800
2FFFC06000
05AB824000
000F980000
000FD00000
001E000000
ENDCHAR
STARTCHAR uni21AB
ENCODING 8619
SWIDTH 1100 0
DWIDTH 22 0
BBX 18 19 2 -3
BITMAP
0005555400
0050000140
02D0555040
07D0000010
07FFFFD110
07FFFFE110
01AAA6E110
000042E110
000503E110
0010029110
0041400010
0604555040
2F41400100
7FE003F800
2FFD03E000
07FF810000
00BFF50000
001FF80000
0002E00000
ENDCHAR
STARTCHAR uni21B0
ENCODING 8624
SWIDTH 1100 0
DWIDTH 22 0
BBX 17 17 2 -3
BITMAP
0000110000
0000410000
0004000000
0010055000
0101400100
0904555040
2F41400440
7FE007C440
2FFD03D440
07FF82D440
00BFF6D440
001FFBD440
0002DBD040
00000BD040
00000BFE00
00000BF800
0000015000
ENDCHAR
STARTCHAR uni21B1
ENCODING 8625
SWIDTH 1100 0
DWIDTH 22 0
BBX 17 17 3 -3
BITMAP
0001540000
000B410000
001F805000
001A800400
0140050100
0505544040
2D10050100
7C47C01400
BC4B809000
BC4B460000
BC4BA40000
BC4B800000
BC09000000
BC04000000
BFE0000000
BF80000000
1500000000
ENDCHAR
STARTCHAR uni21B2
ENCODING 8626
SWIDTH 1100 0
DWIDTH 22 0
BBX 17 18 2 -3
BITMAP
0000000500
0000005040
000002D040
000007D440
000006D440
000042D440
000103D440
001007C440
0041400440
0504555040
2E01400100
7FD006A800
7FF803D000
0BFF420000
01FFE10000
002FF80000
0007E00000
0000400000
ENDCHAR
STARTCHAR uni21B3
ENCODING 8627
SWIDTH 1100 0
DWIDTH 22 0
BBX 16 18 3 -3
BITMAP
01400000
08000000
78040000
F8440000
F8455000
F84B0400
F84F4040
F84B8010
F8400501
FC155440
FE000501
FFEA4014
7FFF4090
0AAF0600
001F2400
002F9000
003D0000
00100000
ENDCHAR
STARTCHAR partialdiff
ENCODING 8706
SWIDTH 792 0
DWIDTH 16 0
BBX 16 18 0 -3
BITMAP
00155540
01800010
07815504
0F800044
0FEAA040
0FFEB441
0B800041
02055141
1D100041
3D10F441
7D11F441
BD10A441
BD000044
BE015404
7F900010
3FFEAB80
1FFFFD00
01AA9000
ENDCHAR
STARTCHAR Delta
ENCODING 8710
SWIDTH 830 0
DWIDTH 17 0
BBX 16 18 0 -3
BITMAP
00055540
00200010
01D05410
03C10104
07C01004
0B843444
0F447444
0F04B841
1F00BC01
2E10FC11
3D11FD11
3D105411
7D100011
7D055541
7D000001
7FFFFFFD
7FFFFFF0
15555540
ENDCHAR
STARTCHAR product
ENCODING 8719
SWIDTH 859 0
DWIDTH 17 0
BBX 16 18 1 -3
BITMAP
05555554
18000001
78155541
F8000041
F801A441
F802F841
F802F841
F801F841
F801F841
F801F841
F801F841
F801F841
F801F841
F801F801
F801F801
FFF9FFF4
FFD1FFD0
55405500
ENDCHAR
STARTCHAR summation
ENCODING 8721
SWIDTH 750 0
DWIDTH 15 0
BBX 15 20 0 -5
BITMAP
01555550
06000004
2E055504
7E100004
7E041A90
7F010B80
7FC04200
3FF41000
1FFC1040
03F80000
00A04100
01410400
06041550
1D100004
3D155504
BD000004
BE555554
BFFFFFD0
7FFFFF40
15555400
ENDCHAR
STARTCHAR minus
ENCODING 8722
SWIDTH 834 0
DWIDTH 17 0
BBX 15 7 1 3
BITMAP
01555550
08000004
78155504
F8000004
FD555554
FFFFFFE0
FFFFFF40
ENDCHAR
STARTCHAR uni2215
ENCODING 8725
SWIDTH 417 0
DWIDTH 8 0
BBX 10 17 -1 -2
BITMAP
001550
00A010
02E110
03D110
03D000
07C440
0B8440
0B8440
0F4440
0F4440
1F0000
1F1100
2E1100
3E0100
3E5400
7FF400
7F8000
ENDCHAR
STARTCHAR uni2219
ENCODING 8729
SWIDTH 464 0
DWIDTH 9 0
BBX 9 9 0 2
BITMAP
015540
090040
2D0040
BD0040
BD0040
BD0040
BE5540
BFFD00
7FF400
ENDCHAR
STARTCHAR radical
ENCODING 8730
SWIDTH 841 0
DWIDTH 17 0
BBX 17 20 0 -3
BITMAP
0000001540
0000008000
0000074040
00000F4440
00001F0040
00002E1000
00002E1100
08013D1100
2C007C1100
BC047C4000
FC04384400
FFC1244400
FFD1004400
5FE0000400
07F4411000
03F8141000
02FC001000
01FFFF4000
00FFFD0000
0015500000
ENDCHAR
STARTCHAR infinity
ENCODING 8734
SWIDTH 978 0
DWIDTH 20 0
BBX 19 14 0 -1
BITMAP
0055545550
0100000404
0914104044
2D11451400
7D13C57D10
BD13D13D10
BD13D13D10
BD12852800
BD10044040
BE05401504
7F901A4050
7FFFFFFF80
1FFEBFFD00
0150055000
ENDCHAR
STARTCHAR integral
ENCODING 8747
SWIDTH 574 0
DWIDTH 11 0
BBX 13 22 -1 -5
BITMAP
00001500
00010040
00140040
00704040
01E04140
02E00900
03E00400
03E00400
03E00400
03E00400
03E00400
03E00400
03E00400
03E00400
03E00400
02010400
1E050400
3E001000
7E554000
7FFD0000
3FE40000
04000000
ENDCHAR
STARTCHAR approxequal
ENCODING 8776
SWIDTH 834 0
DWIDTH 17 0
BBX 15 13 1 0
BITMAP
00555054
04000004
28155004
B8000004
FD6A5450
FFFFFF80
FA96AE54
08000004
38155504
F8000004
FDBEA560
FFFFFF80
E9ABF900
ENDCHAR
STARTCHAR notequal
ENCODING 8800
SWIDTH 834 0
DWIDTH 17 0
BBX 15 16 1 -2
BITMAP
00015500
015A0150
08001004
78155504
F8000004
FD544154
FFF847E0
FFF84790
08004004
78155504
F8000004
FD500554
FFE01FE0
FFFABF40
03FF4000
02A90000
ENDCHAR
STARTCHAR lessequal
ENCODING 8804
SWIDTH 814 0
DWIDTH 16 0
BBX 14 18 1 -3
BITMAP
00000150
00015010
00540110
01005410
08140050
3C006B40
BC42FD00
FC001500
FC150050
FE005410
BFE50010
7D550010
2C000010
BC155510
FC000010
FFFFFFD0
FFFFFE00
55555400
ENDCHAR
STARTCHAR greaterequal
ENCODING 8805
SWIDTH 814 0
DWIDTH 16 0
BBX 15 18 1 -3
BITMAP
01500000
1C014000
7C000500
BC054010
BE400510
BFFA4100
7FFFE004
05B90100
01001410
1C054050
7C001640
BC005550
BC000004
BC155504
BD000000
BFFFFFD0
BFFFFF40
15555400
ENDCHAR
STARTCHAR block
ENCODING 9608
SWIDTH 1000 0
DWIDTH 20 0
BBX 22 22 -1 -4
BITMAP
AAAAAAAAAAA0
BFFFFFFFFFE0
BFFFFFFFFFE0
BFFFFFFFFFE0
BFFFFFFFFFE0
BFFFFFFFFFE0
BFFFFFFFFFE0
BFFFFFFFFFE0
BFFFFFFFFFE0
BFFFFFFFFFE0
BFFFFFFFFFE0
BFFFFFFFFFE0
BFFFFFFFFFE0
BFFFFFFFFFE0
BFFFFFFFFFE0
BFFFFFFFFFE0
BFFFFFFFFFE0
BFFFFFFFFFE0
BFFFFFFFFFE0
BFFFFFFFFFE0
BFFFFFFFFFE0
555555555550
ENDCHAR
STARTCHAR blacksquare
ENCODING 9632
SWIDTH 1100 0
DWIDTH 22 0
BBX 12 12 5 0
BITMAP
055555
1C0001
7C0001
FC1541
FC1001
FC1001
FC0541
FC0001
FC0001
FFAAA9
FFFFF4
6AAA80
ENDCHAR
STARTCHAR blackuppointingtriangle
ENCODING 9650
SWIDTH 1100 0
DWIDTH 22 0
BBX 14 12 4 0
BITMAP
00015000
00080000
00340400
00B00000
01D04100
02811040
07015000
0D000010
2C000000
7FAAAA90
BFFFFF40
6AAAA900
ENDCHAR
STARTCHAR whiteuppointingtriangle
ENCODING 9651
SWIDTH 1100 0
DWIDTH 22 0
BBX 12 10 6 2
BITMAP
001500
005100
004040
010040
010010
040004
100004
100001
400001
155555
ENDCHAR
STARTCHAR blackrightpointingtriangle
ENCODING 9654
SWIDTH 1100 0
DWIDTH 22 0
BBX 12 14 5 -1
BITMAP
054000
281400
B80100
F80010
F81404
F81101
F81401
F81014
F80090
F80600
F86400
FE8000
F90000
500000
ENDCHAR
STARTCHAR whiterightpointingtriangle
ENCODING 9655
SWIDTH 1100 0
DWIDTH 22 0
BBX 10 12 7 1
BITMAP
540000
414000
405000
400500
400050
400010
400050
400140
401400
405000
450000
100000
ENDCHAR
STARTCHAR blackdownpointingtriangle
ENCODING 9660
SWIDTH 1100 0
DWIDTH 22 0
BBX 14 12 4 0
BITMAP
05555550
2C000010
BE015000
BF411040
7FC04000
2FE00100
0FF40400
07F80000
02FD1000
00FF8000
00BD0000
00140000
ENDCHAR
STARTCHAR whitedownpointingtriangle
ENCODING 9661
SWIDTH 1100 0
DWIDTH 22 0
BBX 12 10 6 2
BITMAP
555556
500001
100005
040004
040010
010010
014040
004100
001100
000400
ENDCHAR
STARTCHAR blackleftpointingtriangle
ENCODING 9664
SWIDTH 1100 0
DWIDTH 22 0
BBX 12 14 5 -1
BITMAP
000005
000041
000501
001001
010051
080111
3D0151
FF8001
BFF401
1FFF41
02FFE1
007FFD
000BF4
000090
ENDCHAR
STARTCHAR whiteleftpointingtriangle
ENCODING 9665
SWIDTH 1100 0
DWIDTH 22 0
BBX 10 12 7 1
BITMAP
000160
000510
005010
014010
140010
400010
100010
050010
014010
001410
000150
000050
ENDCHAR
STARTCHAR blackdiamond
ENCODING 9670
SWIDTH 1100 0
DWIDTH 22 0
BBX 15 15 4 -1
BITMAP
00004000
00011000
00040400
00100100
00404040
01011010
04040404
38041000
FE014000
FF800000
7FE00000
1FF80000
07FE4000
01FE0000
00780000
ENDCHAR
STARTCHAR lozenge
ENCODING 9674
SWIDTH 831 0
DWIDTH 17 0
BBX 15 18 1 -3
BITMAP
00155500
00900000
02815040
0B440400
0E044010
1D10D100
3C11E004
7843F044
B802F044
FC11E104
FE108110
BF040010
7F440440
3FC00040
1FD00100
0FFFFD00
0BFFE000
01554000
ENDCHAR
STARTCHAR uni25D6
ENCODING 9686
SWIDTH 546 0
DWIDTH 11 0
BBX 12 22 0 -4
BITMAP
0005AA
006BFE
01BFFE
06FFFE
1BFFFE
2FFFFE
6FFFFE
7FFFFE
BFFFFE
BFFFFE
BFFFFE
BFFFFE
BFFFFE
7FFFFE
6FFFFE
2FFFFE
1FFFFE
0BFFFE
02FFFE
00AFFE
001ABE
000055
ENDCHAR
STARTCHAR uni25D7
ENCODING 9687
SWIDTH 546 0
DWIDTH 11 0
BBX 12 22 -1 -4
BITMAP
AA5000
BFE800
BFFE40
BFFF90
BFFFE0
BFFFF4
BFFFF8
BFFFF9
BFFFFD
BFFFFE
BFFFFE
BFFFFE
BFFFFE
BFFFFD
BFFFF9
BFFFF8
BFFFE4
BFFFE0
BFFF80
BFFA00
BEA400
550000
ENDCHAR
STARTCHAR uni25DC
ENCODING 9692
SWIDTH 1280 0
DWIDTH 26 0
BBX 22 22 2 -4
BITMAP
0000015AAA90
00001AFFFFD0
0001BFFFFFD0
001BFFFFFFD0
006FFFFFFFD0
01BFFFFFFFD0
02FFFFFFFFD0
07FFFFFFFFD0
0BFFFFFFFFD0
1FFFFFFFFFD0
2FFFFFFFFFD0
6FFFFFFFFFD0
7FFFFFFFFFD0
7FFFFFFFFFD0
BFFFFFFFFFD0
BFFFFFFFFFD0
BFFFFFFFFFD0
BFFFFFFFFFD0
BFFFFFFFFFD0
BFFFFFFFFFD0
BFFFFFFFFFD0
555555555550
ENDCHAR
STARTCHAR uni25DD
ENCODING 9693
SWIDTH 1280 0
DWIDTH 26 0
BBX 22 22 2 -4
BITMAP
AAAA50000000
BFFFEA400000
BFFFFFA40000
BFFFFFFA0000
BFFFFFFF8000
BFFFFFFFE000
BFFFFFFFF400
BFFFFFFFF900
BFFFFFFFFE00
BFFFFFFFFE00
BFFFFFFFFF40
BFFFFFFFFF80
BFFFFFFFFF80
BFFFFFFFFF90
BFFFFFFFFF90
BFFFFFFFFFD0
BFFFFFFFFFD0
BFFFFFFFFFD0
BFFFFFFFFFD0
BFFFFFFFFFD0
BFFFFFFFFFD0
555555555550
ENDCHAR
STARTCHAR uni25DE
ENCODING 9694
SWIDTH 1280 0
DWIDTH 26 0
BBX 22 22 2 -4
BITMAP
AAAAAAAAAA90
BFFFFFFFFFD0
BFFFFFFFFFD0
BFFFFFFFFFD0
BFFFFFFFFFD0
BFFFFFFFFFD0
BFFFFFFFFF90
BFFFFFFFFF90
BFFFFFFFFF80
BFFFFFFFFF80
BFFFFFFFFF40
BFFFFFFFFE40
BFFFFFFFFE00
BFFFFFFFFD00
BFFFFFFFF800
BFFFFFFFE400
BFFFFFFF9000
BFFFFFFE4000
BFFFFFF90000
BFFFFE900000
BFFEA5000000
555500000000
ENDCHAR
STARTCHAR uni25DF
ENCODING 9695
SWIDTH 1280 0
DWIDTH 26 0
BBX 22 22 2 -4
BITMAP
AAAAAAAAAA90
BFFFFFFFFFD0
BFFFFFFFFFD0
BFFFFFFFFFD0
BFFFFFFFFFD0
BFFFFFFFFFD0
BFFFFFFFFFD0
BFFFFFFFFFD0
7FFFFFFFFFD0
6FFFFFFFFFD0
2FFFFFFFFFD0
2FFFFFFFFFD0
1BFFFFFFFFD0
0BFFFFFFFFD0
06FFFFFFFFD0
02FFFFFFFFD0
00BFFFFFFFD0
002FFFFFFFD0
0006FFFFFFD0
0001AFFFFFD0
000006ABFFD0
000000155550
ENDCHAR
STARTCHAR uni261A
ENCODING 9754
SWIDTH 1100 0
DWIDTH 22 0
BBX 18 14 2 -1
BITMAP
0000000540
0155555810
0800000410
3D55400410
FFF8000410
BFFD400410
01FC000410
00FE400410
00BE000410
007F555810
007FFFF810
002FFEFF80
000000FD00
0000005400
ENDCHAR
STARTCHAR uni261B
ENCODING 9755
SWIDTH 1100 0
DWIDTH 22 0
BBX 18 14 2 -1
BITMAP
0150000000
0905555540
2D04000010
7D04005550
7D04000F80
7D04005E00
7D04001000
7D04015000
7D04001000
7D09554000
7D0FFE0000
7FFFF80000
7F40000000
1400000000
ENDCHAR
STARTCHAR uni261C
ENCODING 9756
SWIDTH 1100 0
DWIDTH 22 0
BBX 16 11 4 2
BITMAP
00000014
15555449
50000189
15540049
00400049
00640049
00100049
00250049
00100049
00155589
0000005D
ENDCHAR
STARTCHAR uni261D
ENCODING 9757
SWIDTH 1100 0
DWIDTH 22 0
BBX 11 16 7 -1
BITMAP
140000
110000
110000
110000
125400
111640
511150
500010
100010
100010
100010
100050
555554
400004
FFFFF8
155550
ENDCHAR
STARTCHAR uni261E
ENCODING 9758
SWIDTH 1100 0
DWIDTH 22 0
BBX 15 11 5 2
BITMAP
54000000
D5555550
D6400004
D5001554
D5000400
D5005800
D5000400
D5006400
D5001400
D6555000
A4000000
ENDCHAR
STARTCHAR uni261F
ENCODING 9759
SWIDTH 1100 0
DWIDTH 22 0
BBX 11 15 7 0
BITMAP
6AAAA4
EAAAA8
400004
655590
100010
100010
100010
100010
111010
111110
066110
000510
000110
000110
000150
ENDCHAR
STARTCHAR uni27A1
ENCODING 10145
SWIDTH 650 0
DWIDTH 13 0
BBX 14 30 -1 -8
BITMAP
1A000000
2F800000
2F900000
2FE40000
AFF80000
BFFE0000
BFFE4000
BFFF9000
BFFFE000
BFFFF800
BFFFF900
BFFFFE40
BFFFFF80
BFFFFFD0
BFFFFFE0
BFFFFFD0
BFFFFF90
BFFFFF80
BFFFFE00
BFFFF900
BFFFE400
BFFFE000
BFFF8000
BFFE4000
BFF90000
6FF80000
2FE00000
2F900000
2E400000
15000000
ENDCHAR
STARTCHAR uni2B1B
ENCODING 11035
SWIDTH 1280 0
DWIDTH 26 0
BBX 22 22 2 -4
BITMAP
AAAAAAAAAA90
BFFFFFFFFFD0
BFFFFFFFFFD0
BFFFFFFFFFD0
BFFFFFFFFFD0
BFFFFFFFFFD0
BFFFFFFFFFD0
BFFFFFFFFFD0
BFFFFFFFFFD0
BFFFFFFFFFD0
BFFFFFFFFFD0
BFFFFFFFFFD0
BFFFFFFFFFD0
BFFFFFFFFFD0
BFFFFFFFFFD0
BFFFFFFFFFD0
BFFFFFFFFFD0
BFFFFFFFFFD0
BFFFFFFFFFD0
BFFFFFFFFFD0
BFFFFFFFFFD0
555555555550
ENDCHAR
STARTCHAR uni2B24
ENCODING 11044
SWIDTH 1280 0
DWIDTH 26 0
BBX 23 24 1 -5
BITMAP
000015500000
0005AAAA4000
002BFFFFE400
01BFFFFFFA00
02FFFFFFFF40
0BFFFFFFFF90
1BFFFFFFFFE0
2FFFFFFFFFE4
2FFFFFFFFFF4
6FFFFFFFFFF8
7FFFFFFFFFF8
7FFFFFFFFFF8
7FFFFFFFFFF8
7FFFFFFFFFF8
6FFFFFFFFFF8
2FFFFFFFFFF4
2FFFFFFFFFE4
1BFFFFFFFFE0
0BFFFFFFFF90
02FFFFFFFE40
01BFFFFFF900
002BFFFFE400
0005AAAA4000
000015500000
ENDCHAR
STARTCHAR A.salt
ENCODING 57600
SWIDTH 836 0
DWIDTH 17 0
BBX 16 18 0 -3
BITMAP
00055550
00400004
02015541
0E040011
2E00B811
3E10FD11
7E10FD11
7E10A911
7E100011
7E155551
7E100011
7E10A911
7E10FD11
7E00FD01
7E00BD01
7FFDBFFD
7FF47FE0
15401540
ENDCHAR
STARTCHAR Agrave.salt
ENCODING 57601
SWIDTH 836 0
DWIDTH 17 0
BBX 16 23 0 -3
BITMAP
00050000
00501550
02D05010
07E00100
07FEA510
07F95590
01800004
02015541
0E040011
2E00B811
3E10FD11
7E10FD11
7E10A911
7E100011
7E155551
7E100011
7E10A911
7E10FD11
7E00FD01
7E00BD01
7FFDBFFD
7FF47FE0
15401540
ENDCHAR
STARTCHAR Aacute.salt
ENCODING 57602
SWIDTH 836 0
DWIDTH 17 0
BBX 16 23 0 -3
BITMAP
00000150
00055004
00601504
01E00000
03E15A90
03F95550
03800004
02015541
0E040011
2E00B811
3E10FD11
7E10FD11
7E10A911
7E100011
7E155551
7E100011
7E10A911
7E10FD11
7E00FD01
7E00BD01
7FFDBFFD
7FF47FE0
15401540
ENDCHAR
STARTCHAR Acircumflex.salt
ENCODING 57603
SWIDTH 836 0
DWIDTH 17 0
BBX 16 23 0 -3
BITMAP
00005400
00040050
00505510
02D00000
07E5BE50
07F955A0
07800004
03015541
0E040011
2E00B811
3E10FD11
7E10FD11
7E10A911
7E100011
7E155551
7E100011
7E10A911
7E10FD11
7E00FD01
7E00BD01
7FFDBFFD
7FF47FE0
15401540
ENDCHAR
STARTCHAR Atilde.salt
ENCODING 57604
SWIDTH 836 0
DWIDTH 17 0
BBX 16 22 0 -3
BITMAP
00155550
00900010
02D00510
07E55050
07F95590
07800004
02015541
0E040011
2E00B811
3E10FD11
7E10FD11
7E10A911
7E100011
7E155551
7E100011
7E10A911
7E10FD11
7E00FD01
7E00BD01
7FFDBFFD
7FF47FE0
15401540
ENDCHAR
STARTCHAR Adieresis.salt
ENCODING 57605
SWIDTH 836 0
DWIDTH 17 0
BBX 16 22 0 -3
BITMAP
00401404
02C03004
0BC03004
0BD57554
0BF955A0
0B800004
02015541
0E040011
2E00B811
3E10FD11
7E10FD11
7E10A911
7E100011
7E155551
7E100011
7E10A911
7E10FD11
7E00FD01
7E00BD01
7FFDBFFD
7FF47FE0
15401540
ENDCHAR
STARTCHAR Aring.salt
ENCODING 57606
SWIDTH 836 0
DWIDTH 17 0
BBX 16 23 0 -3
BITMAP
00015500
00100010
00910110
02D06440
07D4B840
07D02450
0B805504
07015541
0E040011
2E00B811
3E10FD11
7E10FD11
7E10A911
7E100011
7E155551
7E100011
7E10A911
7E10FD11
7E00FD01
7E00BD01
7FFDBFFD
7FF47FE0
15401540
ENDCHAR
STARTCHAR Amacron.salt
ENCODING 57607
SWIDTH 836 0
DWIDTH 17 0
BBX 16 22 0 -3
BITMAP
00155550
00900000
02D05500
07E55550
07F95590
07800004
02015541
0E040011
2E00B811
3E10FD11
7E10FD11
7E10A911
7E100011
7E155551
7E100011
7E10A911
7E10FD11
7E00FD01
7E00BD01
7FFDBFFD
7FF47FE0
15401540
ENDCHAR
STARTCHAR Abreve.salt
ENCODING 57608
SWIDTH 836 0
DWIDTH 17 0
BBX 16 23 0 -3
BITMAP
00154550
00905804
03D10040
07E05510
07F90140
07F95550
01800004
02015541
0E040011
2E00B811
3E10FD11
7E10FD11
7E10A911
7E100011
7E155551
7E100011
7E10A911
7E10FD11
7E00FD01
7E00BD01
7FFDBFFD
7FF47FE0
15401540
ENDCHAR
STARTCHAR Aogonek.salt
ENCODING 57609
SWIDTH 836 0
DWIDTH 17 0
BBX 16 21 0 -6
BITMAP
00055550
00400004
02015541
0E040011
2E00B811
3E10FD11
7E10FD11
7E10A911
7E100011
7E155551
7E100011
7E10A911
7E10FD11
7E00FD01
7E00BC41
7FFDBC49
7FF4B841
1540BC11
0000FE55
0000FFF8
00007FE0
ENDCHAR
STARTCHAR E.salt
ENCODING 57610
SWIDTH 743 0
DWIDTH 15 0
BBX 15 18 0 -3
BITMAP
00055550
00400004
02015504
0A000004
2D10AAA0
3D10FF80
7D100040
7D155440
7D100040
7D10AA40
7D10FD00
7D101554
7E040004
7F405504
3FD40004
2FFFFFE0
07FFFF40
00555500
ENDCHAR
STARTCHAR Egrave.salt
ENCODING 57611
SWIDTH 743 0
DWIDTH 15 0
BBX 15 23 0 -3
BITMAP
00150000
00801540
07C15010
0FC00010
0FFA9510
0FFAAA90
06800004
02015504
0A000004
2D10AAA0
3D10FF80
7D100040
7D155440
7D100040
7D10AA40
7D10FD00
7D101554
7E040004
7F405504
3FD40004
2FFFFFE0
07FFFF40
00555500
ENDCHAR
STARTCHAR Eacute.salt
ENCODING 57612
SWIDTH 743 0
DWIDTH 15 0
BBX 15 23 0 -3
BITMAP
00000140
00155010
00901410
02D10010
0BD16A80
0BFAAA50
07800004
02015504
0A000004
2D10AAA0
3D10FF80
7D100040
7D155440
7D100040
7D10AA40
7D10FD00
7D101554
7E040004
7F405504
3FD40004
2FFFFFE0
07FFFF40
00555500
ENDCHAR
STARTCHAR Ecircumflex.salt
ENCODING 57613
SWIDTH 743 0
DWIDTH 15 0
BBX 15 23 0 -3
BITMAP
00015400
00140040
00815410
03C00010
0BD6F950
0BFAAA90
0B800004
06015504
0A000004
2D10AAA0
3D10FF80
7D100040
7D155440
7D100040
7D10AA40
7D10FD00
7D101554
7E040004
7F405504
3FD40004
2FFFFFE0
07FFFF40
00555500
ENDCHAR
STARTCHAR Edieresis.salt
ENCODING 57614
SWIDTH 743 0
DWIDTH 15 0
BBX 15 22 0 -3
BITMAP
00806000
02803004
0F803004
0FD57550
0FFAAA90
0F800004
02015504
0A000004
2D10AAA0
3D10FF80
7D100040
7D155440
7D100040
7D10AA40
7D10FD00
7D101554
7E040004
7F405504
3FD40004
2FFFFFE0
07FFFF40
00555500
ENDCHAR
STARTCHAR Emacron.salt
ENCODING 57615
SWIDTH 743 0
DWIDTH 15 0
BBX 15 22 0 -3
BITMAP
00155550
00900010
03D15410
0BE55550
0BFAAA90
07800004
02015504
0A000004
2D10AAA0
3D10FF80
7D100040
7D155440
7D100040
7D10AA40
7D10FD00
7D101554
7E040004
7F405504
3FD40004
2FFFFFE0
07FFFF40
00555500
ENDCHAR
STARTCHAR Ebreve.salt
ENCODING 57616
SWIDTH 743 0
DWIDTH 15 0
BBX 15 23 0 -3
BITMAP
00150550
01C06810
07C40010
0BD15510
0BF90140
07FAAA50
02800004
02015504
0A000004
2D10AAA0
3D10FF80
7D100040
7D155440
7D100040
7D10AA40
7D10FD00
7D101554
7E040004
7F405504
3FD40004
2FFFFFE0
07FFFF40
00555500
ENDCHAR
STARTCHAR Edotaccent.salt
ENCODING 57617
SWIDTH 743 0
DWIDTH 15 0
BBX 15 23 0 -3
BITMAP
00015400
00090100
002C0100
00BC0100
00BD5500
00BAA950
00400004
02015504
0A000004
2D10AAA0
3D10FF80
7D100040
7D155440
7D100040
7D10AA40
7D10FD00
7D101554
7E040004
7F405504
3FD40004
2FFFFFE0
07FFFF40
00555500
ENDCHAR
STARTCHAR Eogonek.salt
ENCODING 57618
SWIDTH 743 0
DWIDTH 15 0
BBX 15 21 0 -6
BITMAP
00055550
00400004
02015504
0A000004
2D10AA90
3D10FF80
7D100040
7D155440
7D100040
7D10A940
7D10FD00
7D101554
7E040004
7F405504
3FD40104
2FFFD060
07FFD004
005BD004
000BF550
0007FFD0
0002FF40
ENDCHAR
STARTCHAR Ecaron.salt
ENCODING 57619
SWIDTH 743 0
DWIDTH 15 0
BBX 15 23 0 -3
BITMAP
00150150
01D05410
07D10010
0BD01010
0BFE4640
07FAA950
01800004
02015504
0A000004
2D10AAA0
3D10FF80
7D100040
7D155440
7D100040
7D10AA40
7D10FD00
7D101554
7E040004
7F405504
3FD40004
2FFFFFE0
07FFFF40
00555500
ENDCHAR
STARTCHAR I.salt
ENCODING 57620
SWIDTH 471 0
DWIDTH 9 0
BBX 8 18 1 -3
BITMAP
0554
1801
7801
F801
F801
F801
F801
F801
F801
F801
F801
F801
F801
F801
F801
FFF8
FFD0
5540
ENDCHAR
STARTCHAR Igrave.salt
ENCODING 57621
SWIDTH 471 0
DWIDTH 9 0
BBX 10 23 0 -3
BITMAP
014000
080510
2C5400
BC0000
BFA550
BFAAD0
6E0040
1E0040
3E0040
3E0040
3E0040
3E0040
3E0040
3E0040
3E0040
3E0040
3E0040
3E0040
3E0040
3E0040
3FFE00
3FF400
155000
ENDCHAR
STARTCHAR Iacute.salt
ENCODING 57622
SWIDTH 471 0
DWIDTH 9 0
BBX 10 23 0 -3
BITMAP
000150
015000
081500
7C0000
BD5A90
BFAA40
BE0040
2E0040
3E0040
3E0040
3E0040
3E0040
3E0040
3E0040
3E0040
3E0040
3E0040
3E0040
3E0040
3E0040
3FFE00
3FF400
155000
ENDCHAR
STARTCHAR Icircumflex.salt
ENCODING 57623
SWIDTH 471 0
DWIDTH 9 0
BBX 10 23 0 -3
BITMAP
005500
050050
245510
B40010
F9BE50
FFAA80
AA0040
1E0040
3E0040
3E0040
3E0040
3E0040
3E0040
3E0040
3E0040
3E0040
3E0040
3E0040
3E0040
3E0040
3FFE00
3FF400
155000
ENDCHAR
STARTCHAR Idieresis.salt
ENCODING 57624
SWIDTH 471 0
DWIDTH 9 0
BBX 11 22 0 -3
BITMAP
141804
B01C04
F01C04
F55D54
FFAAE0
6E0040
1E0040
3E0040
3E0040
3E0040
3E0040
3E0040
3E0040
3E0040
3E0040
3E0040
3E0040
3E0040
3E0040
3FFE00
3FF400
155000
ENDCHAR
STARTCHAR Itilde.salt
ENCODING 57625
SWIDTH 471 0
DWIDTH 9 0
BBX 10 22 0 -3
BITMAP
055550
244010
B40510
B55450
BFAA80
5A0040
1E0040
3E0040
3E0040
3E0040
3E0040
3E0040
3E0040
3E0040
3E0040
3E0040
3E0040
3E0040
3E0040
3FFE00
3FF400
155000
ENDCHAR
STARTCHAR Imacron.salt
ENCODING 57626
SWIDTH 471 0
DWIDTH 9 0
BBX 10 22 0 -3
BITMAP
055540
180010
781410
FD5550
FFAA40
FE0040
2E0040
3E0040
3E0040
3E0040
3E0040
3E0040
3E0040
3E0040
3E0040
3E0040
3E0040
3E0040
3E0040
3FFE00
3FF400
155000
ENDCHAR
STARTCHAR Ibreve.salt
ENCODING 57627
SWIDTH 471 0
DWIDTH 9 0
BBX 11 23 -1 -3
BITMAP
015554
090604
3D0004
BE1544
7F9050
7FEA80
2F8010
0B8010
0F8010
0F8010
0F8010
0F8010
0F8010
0F8010
0F8010
0F8010
0F8010
0F8010
0F8010
0F8010
0FFF80
0FFD00
055400
ENDCHAR
STARTCHAR Iogonek.salt
ENCODING 57628
SWIDTH 471 0
DWIDTH 9 0
BBX 9 21 0 -6
BITMAP
005500
060040
1F0040
3F0440
3F0440
3F0440
3F0440
3F0440
3F0440
3F0440
3F0440
3F0440
3F0440
3F1040
3E1040
3E1300
3D1040
3E0040
7F5540
7FFD00
2FF400
ENDCHAR
STARTCHAR Idotaccent.salt
ENCODING 57629
SWIDTH 471 0
DWIDTH 9 0
BBX 8 23 1 -3
BITMAP
0154
1801
7801
F801
FD55
FEA8
F801
B801
F801
F801
F801
F801
F801
F801
F801
F801
F801
F801
F801
F801
FFF8
FFD0
5540
ENDCHAR
STARTCHAR L.salt
ENCODING 57630
SWIDTH 715 0
DWIDTH 14 0
BBX 14 18 1 -3
BITMAP
05540000
18010000
78010000
F8010000
F8010000
F8010000
F8010000
F8010000
F8010000
F8010000
F8010000
F8000040
F8000010
F8155410
F8000000
FFFFFF40
FFFFFD00
55555000
ENDCHAR
STARTCHAR Lacute.salt
ENCODING 57631
SWIDTH 715 0
DWIDTH 14 0
BBX 14 23 1 -3
BITMAP
00005400
01540100
18054100
78000100
F856A400
FEABD000
F8014000
B8010000
F8010000
F8010000
F8010000
F8010000
F8010000
F8010000
F8010000
F8010000
F8000040
F8000010
F8155410
F8000000
FFFFFF40
FFFFFD00
55555000
ENDCHAR
STARTCHAR Lcommaaccent.salt
ENCODING 57632
SWIDTH 715 0
DWIDTH 14 0
BBX 14 25 1 -10
BITMAP
05540000
18010000
78010000
F8010000
F8010000
F8010000
F8010000
F8010000
F8010000
F8010000
F8010000
F8000040
F8000010
F8155410
F8000000
FFFFFF40
FFE00900
56E14400
03E00400
03F50400
03F54400
03F11000
02FA8000
03FE0000
01A40000
ENDCHAR
STARTCHAR Lcaron.salt
ENCODING 57633
SWIDTH 715 0
DWIDTH 14 0
BBX 14 18 1 -3
BITMAP
05541550
18019010
7802C010
F802C010
F8028040
F8028040
F802FE00
F802F800
F8015000
F8010000
F8010000
F8000040
F8000010
F8155410
F8000000
FFFFFF40
FFFFFD00
55555000
ENDCHAR
STARTCHAR Ldot.salt
ENCODING 57634
SWIDTH 715 0
DWIDTH 14 0
BBX 14 18 1 -3
BITMAP
05540000
18010000
78010000
F8010000
F8015550
F8028010
F8028110
F8028010
F802EA90
F802FF40
F802F800
F8000040
F8000010
F8155410
F8000000
FFFFFF40
FFFFFD00
55555000
ENDCHAR
STARTCHAR Lslash.salt
ENCODING 57635
SWIDTH 725 0
DWIDTH 15 0
BBX 15 18 0 -3
BITMAP
00550000
06004000
1F004000
3F044000
3F045000
3E040400
38050400
78140400
F8046000
FE044000
FF044000
BF040014
3F040004
3F055504
3F000004
3FFFFFE0
3FFFFF40
15555500
ENDCHAR
STARTCHAR M.salt
ENCODING 57636
SWIDTH 1170 0
DWIDTH 23 0
BBX 23 18 0 -3
BITMAP
001555055540
004000000010
020155055404
1E0400500104
2E1064019044
3E10F802F044
7E10F802F044
7E10F802F044
7E10F802F044
7E10F802F044
7E10F802F044
7E10F802F044
7E10F802F044
7E00F802F004
7E00FC03F004
7FFDFFFBFFE0
7FF4FFD2FF80
154055415500
ENDCHAR
STARTCHAR N.salt
ENCODING 57637
SWIDTH 846 0
DWIDTH 17 0
BBX 16 18 0 -3
BITMAP
00055550
00400004
02015541
0E040010
2E106810
3E10FD10
7E10FD10
7E10BD10
7E10BD10
7E10BD10
7E10BD10
7E10BD10
7E10BD10
7E00BD00
7E00BD01
7FFD7FFD
7FF47FF4
15401540
ENDCHAR
STARTCHAR Ntilde.salt
ENCODING 57638
SWIDTH 846 0
DWIDTH 17 0
BBX 16 22 0 -3
BITMAP
00155550
00600000
02E00500
07E55410
07F95590
07800004
02015541
0E040010
2E106810
3E10FD10
7E10FD10
7E10BD10
7E10BD10
7E10BD10
7E10BD10
7E10BD10
7E10BD10
7E00BD00
7E00BD01
7FFD7FFD
7FF47FF4
15401540
ENDCHAR
STARTCHAR Nacute.salt
ENCODING 57639
SWIDTH 846 0
DWIDTH 17 0
BBX 16 23 0 -3
BITMAP
00000150
00055004
00601504
01E00004
03F15A90
03F95550
03800004
02015541
0E040010
2E106810
3E10FD10
7E10FD10
7E10BD10
7E10BD10
7E10BD10
7E10BD10
7E10BD10
7E10BD10
7E00BD00
7E00BD01
7FFD7FFD
7FF47FF4
15401540
ENDCHAR
STARTCHAR Ncommaaccent.salt
ENCODING 57640
SWIDTH 846 0
DWIDTH 17 0
BBX 16 25 0 -10
BITMAP
00055550
00400004
02015541
0E040010
2E106810
3E10FD10
7E10FD10
7E10BD10
7E10BD10
7E10BD10
7E10BD10
7E10BD10
7E10BD10
7E00BD00
7E00BD01
7FFE7FFD
7FF900F4
156D1440
007D0440
007E5440
007F5400
007E1100
002FA800
003FD000
002A4000
ENDCHAR
STARTCHAR Ncaron.salt
ENCODING 57641
SWIDTH 846 0
DWIDTH 17 0
BBX 16 23 0 -3
BITMAP
00150050
00A01400
02E04100
07E01010
07FE4680
03F95550
00800004
02015541
0E040010
2E106810
3E10FD10
7E10FD10
7E10BD10
7E10BD10
7E10BD10
7E10BD10
7E10BD10
7E10BD10
7E00BD00
7E00BD01
7FFD7FFD
7FF47FF4
15401540
ENDCHAR
STARTCHAR W.salt
ENCODING 57642
SWIDTH 1170 0
DWIDTH 23 0
BBX 23 18 0 -3
BITMAP
015501540550
060058017004
2E00B801F004
7E10F802F044
7E10F802F044
7E10F802F044
7E10F802F044
7E10F802F044
7E10F802F044
7E10F802F044
7E10F802F044
7E1050505044
7E0400500104
3F0154015400
3FD000500050
2FFEABFEAB40
0BFFFFFFF800
01AA51AA9000
ENDCHAR
STARTCHAR Wcircumflex.salt
ENCODING 57643
SWIDTH 1170 0
DWIDTH 23 0
BBX 23 23 0 -3
BITMAP
000001540000
000014014000
000181541000
000780001000
000FC6F91000
015AFEAB8550
0600A8017004
2E00B801F004
7E10F802F044
7E10F802F044
7E10F802F044
7E10F802F044
7E10F802F044
7E10F802F044
7E10F802F044
7E10F802F044
7E1050505044
7E0400500104
3F0154015400
3FD000500050
2FFEABFEAB40
0BFFFFFFF800
01AA51AA9000
ENDCHAR
STARTCHAR Wgrave.salt
ENCODING 57644
SWIDTH 1170 0
DWIDTH 23 0
BBX 23 23 0 -3
BITMAP
000014000000
000180554000
000781400000
000F80041000
001FFA944000
015AFEAB4550
0600B8017004
2E00B801F004
7E10F802F044
7E10F802F044
7E10F802F044
7E10F802F044
7E10F802F044
7E10F802F044
7E10F802F044
7E10F802F044
7E1050505044
7E0400500104
3F0154015400
3FD000500050
2FFEABFEAB40
0BFFFFFFF800
01AA51AA9000
ENDCHAR
STARTCHAR Wacute.salt
ENCODING 57645
SWIDTH 1170 0
DWIDTH 23 0
BBX 23 23 0 -3
BITMAP
000000014000
000015501000
000080141000
0007C1001000
000BC16A8000
015AFEAA0550
0600F8017004
2E00B801F004
7E10F802F044
7E10F802F044
7E10F802F044
7E10F802F044
7E10F802F044
7E10F802F044
7E10F802F044
7E10F802F044
7E1050505044
7E0400500104
3F0154015400
3FD000500050
2FFEABFEAB40
0BFFFFFFF800
01AA51AA9000
ENDCHAR
STARTCHAR Wdieresis.salt
ENCODING 57646
SWIDTH 1170 0
DWIDTH 23 0
BBX 23 22 0 -3
BITMAP
000140501000
000740A01000
001F40A01000
001F95A55000
015AFEAB8550
0600F8017004
2E00B801F004
7E10F802F044
7E10F802F044
7E10F802F044
7E10F802F044
7E10F802F044
7E10F802F044
7E10F802F044
7E10F802F044
7E1050505044
7E0400500104
3F0154015400
3FD000500050
2FFEABFEAB40
0BFFFFFFF800
01AA51AA9000
ENDCHAR
STARTCHAR X.salt
ENCODING 57647
SWIDTH 837 0
DWIDTH 17 0
BBX 16 18 0 -3
BITMAP
00550155
07004801
1F407801
2F843840
2FC03444
1FC12004
0F810104
0A015501
1E040011
3E105410
7E10FD10
7E10FD10
7E10BD10
7E00BD00
7E00BD01
7FFD7FFD
7FF47FF0
15401540
ENDCHAR
STARTCHAR Y.salt
ENCODING 57648
SWIDTH 806 0
DWIDTH 16 0
BBX 16 18 0 -3
BITMAP
01550154
09010801
2D017C01
BD11BC11
BD11BC11
BD11BC11
BD10F811
BD100001
BE050141
7F001004
7FE41050
2FFC1180
0BFC1100
00BC0100
00BC0100
00BFFD00
00BFE000
00154000
ENDCHAR
STARTCHAR Yacute.salt
ENCODING 57649
SWIDTH 806 0
DWIDTH 16 0
BBX 16 23 0 -3
BITMAP
00000150
00155010
00901510
02D00010
07D15A90
06AAFE54
0901AC01
2D017C01
BD11BC11
BD11BC11
BD11BC11
BD10F811
BD100001
BE050141
7F001004
7FE41050
2FFC1180
0BFC1100
00BC0100
00BC0100
00BFFD00
00BFE000
00154000
ENDCHAR
STARTCHAR Ycircumflex.salt
ENCODING 57650
SWIDTH 806 0
DWIDTH 16 0
BBX 16 23 0 -3
BITMAP
00005400
00140040
00915410
02C00010
0BD6F950
0AAAFE94
0901BC01
2D017C01
BD11BC11
BD11BC11
BD11BC11
BD10F811
BD100001
BE050141
7F001004
7FE41050
2FFC1180
0BFC1100
00BC0100
00BC0100
00BFFD00
00BFE000
00154000
ENDCHAR
STARTCHAR Ydieresis.salt
ENCODING 57651
SWIDTH 806 0
DWIDTH 16 0
BBX 16 22 0 -3
BITMAP
00806010
03807000
0F807000
0FD57550
0EAAFE94
0D01FC01
2D017C01
BD11BC11
BD11BC11
BD11BC11
BD10F811
BD100001
BE050141
7F001004
7FE41050
2FFC1180
0BFC1100
00BC0100
00BC0100
00BFFD00
00BFE000
00154000
ENDCHAR
STARTCHAR Ygrave.salt
ENCODING 57652
SWIDTH 806 0
DWIDTH 16 0
BBX 16 23 0 -3
BITMAP
00150000
00801540
07C15010
0BC00010
0BFA9510
0AAAFE94
0901FC01
2D017C01
BD11BC11
BD11BC11
BD11BC11
BD10F811
BD100001
BE050141
7F001004
7FE41050
2FFC1180
0BFC1100
00BC0100
00BC0100
00BFFD00
00BFE000
00154000
ENDCHAR
STARTCHAR AE.salt
ENCODING 57653
SWIDTH 1113 0
DWIDTH 22 0
BBX 22 18 0 -3
BITMAP
000555555550
005000000010
010155555410
0A0400100010
2E10A910AA90
3E10FD11FF40
3E10FD100000
7E1069155000
7E1000100000
7E155550A900
7E100011F800
7E10A9105550
7E10FD100010
7E00FD055410
7E00BD000010
7FFDBFFFFF80
7FF47FFFFE00
154015555400
ENDCHAR
STARTCHAR IJ.salt
ENCODING 57654
SWIDTH 1133 0
DWIDTH 23 0
BBX 21 18 1 -3
BITMAP
055400005540
180100020040
7801001F0040
F801002F0440
F801002F0440
F801002F0440
F801002F0440
F801556F0440
F802C02F0440
F802C12F0440
F802C12F0440
F802C1050440
F802D1001040
F802E0154040
F802F8000500
FFFBFFEAB400
FFD1FFFF9000
55401AA90000
ENDCHAR
STARTCHAR IJ.stack
ENCODING 57655
SWIDTH 1363 0
DWIDTH 27 0
BBX 27 18 0 -3
BITMAP
01555540001550
09000010006004
2D05541001E004
7D00401003E004
7EA0468003E004
7FF0470003E004
6FF0440003E004
02F0440557E004
02F0442803E004
02F044F843E004
02F044F843E004
01504178014104
1D004028100104
7D15542D015010
7D00002F400040
7FFFFFFFFEAE00
7FFFFD2FFFF800
15555406AA4000
ENDCHAR
STARTCHAR quoteleft.salt
ENCODING 57656
SWIDTH 407 0
DWIDTH 8 0
BBX 8 9 0 6
BITMAP
0054
0111
0D58
3D41
7D51
7D01
7FF8
7FE0
1540
ENDCHAR
STARTCHAR quoteright.salt
ENCODING 57657
SWIDTH 407 0
DWIDTH 8 0
BBX 8 9 0 6
BITMAP
0154
0901
2D15
7E45
7E55
7E14
3FE0
7F80
1500
ENDCHAR
STARTCHAR ampersand.salt
ENCODING 57658
SWIDTH 732 0
DWIDTH 15 0
BBX 14 22 0 -5
BITMAP
00005400
00050100
002D0050
00501000
01805500
07440000
0F442A90
1F843F80
1FC40040
1F055040
0D100040
2C116940
7C12FD00
BC105550
BC100000
BE015500
BF901000
7FFD01D0
1FFE5540
01BFF800
007FE000
00150000
ENDCHAR
STARTCHAR caron.2
ENCODING 57659
SWIDTH 600 0
DWIDTH 12 0
BBX 8 9 2 6
BITMAP
0155
0901
2D01
7C01
BC00
B804
FFE0
FF80
5500
ENDCHAR
STARTCHAR indexup
ENCODING 57660
SWIDTH 1100 0
DWIDTH 22 0
BBX 14 18 4 -3
BITMAP
00500000
02440000
0B440000
1F440000
1F055000
2F044500
2F004440
2F000040
2F000040
2F400040
2F400040
2F800000
1E555550
1D000010
7D000010
BFFFFF80
BFFFFE00
15555400
ENDCHAR
STARTCHAR indexdown
ENCODING 57661
SWIDTH 1100 0
DWIDTH 22 0
BBX 14 18 4 -3
BITMAP
01555540
09000010
7D000010
BF955580
BF800040
6F400040
1F400040
1F000040
2F000440
2F044440
2F045900
2F4BF800
2F4A9000
2F440000
2F440000
1FE00000
1F400000
05000000
ENDCHAR
STARTCHAR indexupleft
ENCODING 57662
SWIDTH 1100 0
DWIDTH 22 0
BBX 16 19 3 -3
BITMAP
00400000
01000000
0B410000
2FD04000
2FF41000
0BD00400
03900100
07040000
0A400054
2C000041
7F000101
BF800404
3FE01010
1FF94040
07FD0100
01FC0400
007F5000
00BF4000
003D0000
ENDCHAR
STARTCHAR indexupright
ENCODING 57663
SWIDTH 1100 0
DWIDTH 22 0
BBX 16 19 3 -3
BITMAP
00000010
00000044
00000104
00000410
00005040
00014110
00060010
001C0044
01640005
05040001
2E010004
BF804010
7FE01000
2FF80500
0BFE0100
02FF8100
00BFE400
002FE000
000B8000
ENDCHAR
STARTCHAR indexdownleft
ENCODING 57664
SWIDTH 1100 0
DWIDTH 22 0
BBX 20 16 1 -2
BITMAP
0000014000
0000051000
00002C0400
0000BD0100
0000E04040
0000401010
0005000404
0014000101
0060000084
01810001E0
060A100780
0D2FD11500
3FBFFC4000
7E1BFE0000
2401F80000
0000500000
ENDCHAR
STARTCHAR indexdownright
ENCODING 57665
SWIDTH 1100 0
DWIDTH 22 0
BBX 20 16 1 -2
BITMAP
0000140000
0000410000
0001410000
0005050000
0014104000
0050400400
0141000100
0904000040
2F14000010
7FF8000004
3FFE001240
04FF812FD1
007FF1EFF4
001FFD0BD0
0007E40240
0000400000
ENDCHAR
STARTCHAR indexdownleft.outline
ENCODING 57666
SWIDTH 1100 0
DWIDTH 22 0
BBX 17 14 4 0
BITMAP
0000600000
0000780000
00014E0000
0001938000
000514E000
0010053800
0040014E00
0200005340
0810002600
1084004400
4254414000
8815440000
1001600000
0000400000
ENDCHAR
STARTCHAR indexdownright.outline
ENCODING 57667
SWIDTH 1100 0
DWIDTH 22 0
BBX 17 13 4 1
BITMAP
0006000000
001E400000
0078400000
01E1800000
0785140000
1E14050000
7850004000
E140001000
5600011400
1100114500
0050095100
0014541440
0005500500
ENDCHAR
STARTCHAR indexupleft.outline
ENCODING 57668
SWIDTH 1100 0
DWIDTH 22 0
BBX 13 17 6 -1
BITMAP
10000000
55000000
51400000
14500000
05040000
05410000
18014000
11004000
90002500
44001180
50004740
14011D00
04087400
0161D000
00874000
005D0000
00740000
ENDCHAR
STARTCHAR indexupright.outline
ENCODING 57669
SWIDTH 1100 0
DWIDTH 22 0
BBX 13 17 6 -1
BITMAP
00000400
00001600
00008200
00020800
00042000
00108400
00401800
01001100
55000540
C5000440
B1400100
2C500400
0B141000
02C65000
00B14000
002C4000
000A0000
ENDCHAR
STARTCHAR uni261A.salt
ENCODING 57670
SWIDTH 1100 0
DWIDTH 22 0
BBX 18 14 2 -1
BITMAP
0000000140
0155415810
0800001410
7D40000410
FFFF500410
FFFF040410
157F040410
002F941810
002FF07810
001FE0FE80
0002E1FF40
0003F8A800
0007D00000
0001400000
ENDCHAR
STARTCHAR uni261B.salt
ENCODING 57671
SWIDTH 1100 0
DWIDTH 22 0
BBX 18 14 2 -1
BITMAP
0050000000
0504405540
2D04000010
7D04000050
7D0405BF80
7D04047E00
7D04005000
7D08050000
7D0E040000
7EAF800000
7FBFD40000
6A1FF40000
000B800000
0001000000
ENDCHAR
STARTCHAR indexdown.salt
ENCODING 57672
SWIDTH 1100 0
DWIDTH 22 0
BBX 14 18 4 -3
BITMAP
00155540
01800010
07C00010
0FE95580
0FF40040
06D00040
01000010
09055010
2FB80410
7FFD0410
25FFF400
00BFF440
0016F440
0001F840
0001F840
0001FE00
0001F800
00005000
ENDCHAR
STARTCHAR indexdownleft.salt
ENCODING 57673
SWIDTH 1100 0
DWIDTH 22 0
BBX 18 14 2 -1
BITMAP
0000050000
0000140000
0000BD0000
0001D10000
0001000000
0014000010
0060000910
01C0540B40
0342050900
090B810400
1C2FEB8400
7E5FFFD400
FD069FE000
74000F4000
ENDCHAR
STARTCHAR indexdownright.salt
ENCODING 57674
SWIDTH 1100 0
DWIDTH 22 0
BBX 18 15 2 -1
BITMAP
0000400000
0001100000
0004040000
0020100000
0080450000
0201001000
0804000400
3D24000000
BFB4050100
BFF4105040
25F441F410
01F0FBFD10
01F5E2FF90
02FA80BF40
02E0002C00
ENDCHAR
STARTCHAR indexup.salt
ENCODING 57675
SWIDTH 1100 0
DWIDTH 22 0
BBX 14 18 4 -3
BITMAP
00500000
02440000
0F040000
2F040000
2E040000
3E054000
3E041000
3D040540
7D005010
7E000040
7F400500
3F800400
2E555500
1D000100
7D000100
BFFFFD00
BFFFF000
15554000
ENDCHAR
STARTCHAR indexupleft.salt
ENCODING 57676
SWIDTH 1100 0
DWIDTH 22 0
BBX 16 18 3 -3
BITMAP
01500000
06040000
2F410000
7FD01000
2FF40400
0BF40100
02D10100
01810010
07C50044
0FD00101
0E000404
0D055010
7FFF8040
7FFF0100
141F4400
002FD000
002F8000
00090000
ENDCHAR
STARTCHAR indexupright.salt
ENCODING 57677
SWIDTH 1100 0
DWIDTH 22 0
BBX 16 18 3 -3
BITMAP
00000014
00000041
00000404
00001010
00004040
00060140
001D0410
00380110
01540110
05000050
2F400000
7FD01541
2FF41FF8
0BFD07E0
02FF4540
00BFD000
002F4000
00090000
ENDCHAR
STARTCHAR uni261C.salt
ENCODING 57678
SWIDTH 1100 0
DWIDTH 22 0
BBX 16 12 4 1
BITMAP
00004014
1555544D
50000189
55540049
00154049
00148049
00044049
00054189
00014549
00011458
00015000
00004000
ENDCHAR
STARTCHAR uni261D.salt
ENCODING 57679
SWIDTH 1100 0
DWIDTH 22 0
BBX 11 16 7 -1
BITMAP
140000
150000
110000
410000
410000
425400
410400
410250
405404
400050
100140
100500
955540
400080
FFFFC0
155500
ENDCHAR
STARTCHAR uni261E.salt
ENCODING 57680
SWIDTH 1100 0
DWIDTH 22 0
BBX 15 11 5 2
BITMAP
14000000
A4555550
D6400008
D5005558
D5015000
D5011000
D5041000
D6415000
D5420000
64110000
00050000
ENDCHAR
STARTCHAR uni261F.salt
ENCODING 57681
SWIDTH 1100 0
DWIDTH 22 0
BBX 11 16 7 -1
BITMAP
0AAAA4
1AAAA8
100004
069590
010010
140010
500004
466404
510104
009504
000110
000110
000110
000110
000150
000040
ENDCHAR
STARTCHAR indexdownleft.salt_outline
ENCODING 57682
SWIDTH 1100 0
DWIDTH 22 0
BBX 16 13 4 1
BITMAP
00000400
00006D00
00008B40
000062D0
000554B4
0010052D
0040014B
01000095
05094044
04241040
10451440
55015440
14000540
ENDCHAR
STARTCHAR indexdownright.salt_outline
ENCODING 57683
SWIDTH 1100 0
DWIDTH 22 0
BBX 16 13 4 1
BITMAP
00040000
002E0000
00B44000
02D20000
0B485400
2D100500
74800040
21400050
04415410
00450504
00481441
01554011
00600005
ENDCHAR
STARTCHAR indexupleft.salt_outline
ENCODING 57684
SWIDTH 1100 0
DWIDTH 22 0
BBX 13 16 6 -1
BITMAP
24000000
41000000
10500000
04140000
01010000
02404000
04404000
10404400
14402600
09005340
50014E00
45553800
5414E000
00538000
002E0000
00040000
ENDCHAR
STARTCHAR indexupright.salt_outline
ENCODING 57685
SWIDTH 1100 0
DWIDTH 22 0
BBX 13 16 6 -1
BITMAP
00000500
00005140
00014100
00040400
00101000
00409000
00410400
01014400
55008400
A1401800
78500140
1E155440
07850500
01E10000
00790000
00140000
ENDCHAR
STARTCHAR block.v
ENCODING 57687
SWIDTH 1000 0
DWIDTH 20 0
BBX 22 22 -1 -4
BITMAP
BFFFFFFFFFE0
BFFFFFFFFFE0
BFFFFFFFFFE0
BFFFFFFFFFE0
BFFFFFFFFFE0
BFFFFFFFFFE0
BFFFFFFFFFE0
BFFFFFFFFFE0
BFFFFFFFFFE0
BFFFFFFFFFE0
BFFFFFFFFFE0
BFFFFFFFFFE0
BFFFFFFFFFE0
BFFFFFFFFFE0
BFFFFFFFFFE0
BFFFFFFFFFE0
BFFFFFFFFFE0
BFFFFFFFFFE0
BFFFFFFFFFE0
BFFFFFFFFFE0
BFFFFFFFFFE0
6AAAAAAAAA90
ENDCHAR
STARTCHAR uni25D6.v
ENCODING 57688
SWIDTH 1335 0
DWIDTH 27 0
BBX 22 12 2 1
BITMAP
00016AA50000
001AFFFE9000
00AFFFFFE400
02FFFFFFF900
0BFFFFFFFE40
1BFFFFFFFF80
1FFFFFFFFF90
2FFFFFFFFFD0
6FFFFFFFFFE0
6FFFFFFFFFE0
6FFFFFFFFFE0
6AAAAAAAAAA0
ENDCHAR
STARTCHAR uni25D7.v
ENCODING 57689
SWIDTH 1335 0
DWIDTH 27 0
BBX 22 12 2 1
BITMAP
7FFFFFFFFFE0
6FFFFFFFFFE0
6FFFFFFFFFE0
2FFFFFFFFFE0
2FFFFFFFFFD0
1FFFFFFFFF90
0BFFFFFFFF80
06FFFFFFFE00
01BFFFFFF900
006FFFFFE400
0006BFFA4000
000055540000
ENDCHAR
STARTCHAR uni27A1.w
ENCODING 57690
SWIDTH 650 0
DWIDTH 13 0
BBX 14 30 0 -8
BITMAP
00000A40
00002F80
00006F80
0001BF80
0002FFA0
000BFFE0
001BFFE0
006FFFE0
00BFFFE0
02FFFFE0
06FFFFE0
1BFFFFE0
2FFFFFE0
7FFFFFE0
BFFFFFE0
BFFFFFE0
6FFFFFE0
2FFFFFE0
0BFFFFE0
06FFFFE0
01BFFFE0
00BFFFE0
002FFFE0
001BFFE0
0006FFE0
0002FF90
0000BF80
00006F80
00001B80
00000540
ENDCHAR
STARTCHAR uni27A1.n
ENCODING 57691
SWIDTH 1000 0
DWIDTH 20 0
BBX 30 14 -5 0
BITMAP
00BFFFFFFFFFE000
6ABFFFFFFFFFEA90
BFFFFFFFFFFFFFE0
6FFFFFFFFFFFFF90
1BFFFFFFFFFFFE40
02FFFFFFFFFFF800
006FFFFFFFFF9000
001BFFFFFFFE4000
0002FFFFFFF80000
00006FFFFF900000
00001BFFFE400000
000002FFF8000000
000000AFA0000000
0000001540000000
ENDCHAR
STARTCHAR uni27A1.s
ENCODING 57692
SWIDTH 1000 0
DWIDTH 20 0
BBX 30 14 -5 0
BITMAP
0000001A40000000
000001BFE4000000
000006FFF9000000
00002FFFFF800000
0001BFFFFFE40000
0006FFFFFFF90000
002FFFFFFFFF8000
01BFFFFFFFFFE400
06FFFFFFFFFFF900
2FFFFFFFFFFFFF80
7FFFFFFFFFFFFFD0
BFFFFFFFFFFFFFE0
55BFFFFFFFFFE550
006AAAAAAAAA9000
ENDCHAR
STARTCHAR uni2B24.salt
ENCODING 57693
SWIDTH 1280 0
DWIDTH 26 0
BBX 22 24 2 -5
BITMAP
000155500000
005ABFEA4000
02BFFFFFE400
1BFFFFFFFE00
6FFFFFFFFF80
BFFFFFFFFFD0
BFFFFFFFFFD0
BFFFFFFFFFD0
BFFFFFFFFFD0
BFFFFFFFFFD0
BFFFFFFFFFD0
BFFFFFFFFFD0
BFFFFFFFFFD0
BFFFFFFFFFD0
BFFFFFFFFFD0
BFFFFFFFFFD0
BFFFFFFFFFD0
BFFFFFFFFFD0
BFFFFFFFFF90
2FFFFFFFFE40
0AFFFFFFF900
01AFFFFFA000
0016AAA90000
000005000000
ENDCHAR
STARTCHAR uni25DD.curve
ENCODING 57694
SWIDTH 1280 0
DWIDTH 26 0
BBX 22 22 2 -4
BITMAP
AAAAAAA90000
BFFFFFFFA000
BFFFFFFFF800
BFFFFFFFFE00
BFFFFFFFFE40
BFFFFFFFFF80
BFFFFFFFFF90
BFFFFFFFFF90
BFFFFFFFFFD0
BFFFFFFFFFD0
BFFFFFFFFFD0
BFFFFFFFFFD0
BFFFFFFFFFD0
BFFFFFFFFFD0
BFFFFFFFFFD0
BFFFFFFFFFD0
BFFFFFFFFFD0
BFFFFFFFFFD0
BFFFFFFFFFD0
BFFFFFFFFFD0
BFFFFFFFFFD0
555555555550
ENDCHAR
STARTCHAR uni2B1B.trapezoid_e
ENCODING 57695
SWIDTH 1280 0
DWIDTH 26 0
BBX 24 22 2 -4
BITMAP
AAAAAAAAAAA9
BFFFFFFFFFFD
BFFFFFFFFFF9
BFFFFFFFFFF8
BFFFFFFFFFF8
BFFFFFFFFFF4
BFFFFFFFFFF4
BFFFFFFFFFE4
BFFFFFFFFFE0
BFFFFFFFFFE0
BFFFFFFFFFD0
BFFFFFFFFFD0
BFFFFFFFFF90
BFFFFFFFFF80
BFFFFFFFFF80
BFFFFFFFFF40
BFFFFFFFFF40
BFFFFFFFFE40
BFFFFFFFFE00
BFFFFFFFFE00
BFFFFFFFFD00
555555555500
ENDCHAR
STARTCHAR uni2B1B.trapezoid_w
ENCODING 57696
SWIDTH 1280 0
DWIDTH 26 0
BBX 24 22 0 -4
BITMAP
AAAAAAAAAAA9
BFFFFFFFFFFD
7FFFFFFFFFFD
6FFFFFFFFFFD
6FFFFFFFFFFD
2FFFFFFFFFFD
2FFFFFFFFFFD
1FFFFFFFFFFD
1BFFFFFFFFFD
1BFFFFFFFFFD
0BFFFFFFFFFD
0BFFFFFFFFFD
07FFFFFFFFFD
06FFFFFFFFFD
06FFFFFFFFFD
02FFFFFFFFFD
02FFFFFFFFFD
01FFFFFFFFFD
01BFFFFFFFFD
01BFFFFFFFFD
00BFFFFFFFFD
005555555555
ENDCHAR
ENDFONT
